<?xml version="1.0" encoding="UTF-8"?>
<svg width="1700px" height="941px" viewBox="0 0 1700 941" version="1.1" xmlns="http://www.w3.org/2000/svg" xmlns:xlink="http://www.w3.org/1999/xlink">
    <title>Banner</title>
    <defs>
        <linearGradient x1="0%" y1="34.6802595%" x2="100%" y2="65.3197405%" id="linearGradient-1">
            <stop stop-color="#039EE0" offset="0%"></stop>
            <stop stop-color="#15425C" offset="100%"></stop>
        </linearGradient>
        <polygon id="path-2" points="0 0 1700 0 1700 941 915.584664 941 0 941"></polygon>
    </defs>
    <g id="Page-1" stroke="none" stroke-width="1" fill="none" fill-rule="evenodd">
        <g id="Banner">
            <g id="Bg">
                <mask id="mask-3" fill="white">
                    <use xlink:href="#path-2"></use>
                </mask>
                <use id="Mask" fill="url(#linearGradient-1)" fill-rule="nonzero" xlink:href="#path-2"></use>
                <circle id="Oval" stroke="#979797" fill="#039EE0" fill-rule="nonzero" opacity="0.063208" mask="url(#mask-3)" cx="338" cy="-59" r="1121"></circle>
                <circle id="Oval" fill="#F9F9F9" fill-rule="nonzero" opacity="0.042589" mask="url(#mask-3)" cx="315" cy="0" r="686"></circle>
                <circle id="Oval" fill="#124C6A" fill-rule="nonzero" opacity="0.043108" mask="url(#mask-3)" cx="259" cy="-13" r="331"></circle>
            </g>
            <g id="Bg-SHape" transform="translate(165.000000, 155.000000)">
                <circle id="Oval-2" fill="#FFFFFF" opacity="0.236676897" cx="973" cy="674" r="5"></circle>
                <circle id="Oval-2" fill="#D5EEFF" opacity="0.290852865" cx="97.5" cy="20.5" r="3.5"></circle>
                <circle id="Oval-2" stroke="#FFFFFF" stroke-width="2" opacity="0.255185082" cx="4" cy="334" r="4"></circle>
                <path d="M377.410913,689.669365 L392.364245,689.989117 C396.229355,690.071766 399.429646,687.005476 399.512295,683.140366 C399.541322,681.782888 399.174928,680.446268 398.457749,679.29334 L390.246175,666.09252 C388.495885,663.278777 384.796005,662.416678 381.982262,664.166968 C381.241866,664.627531 380.610751,665.243936 380.132857,665.973266 L371.705546,678.834458 C369.586702,682.068095 370.49042,686.407137 373.724056,688.525981 C374.821558,689.24512 376.099088,689.641314 377.410913,689.669365 Z" id="Path-7" stroke="#FFFFFF" stroke-width="5" opacity="0.0446893601" transform="translate(384.932949, 676.561947) rotate(-30.000000) translate(-384.932949, -676.561947) "></path>
                <circle id="Oval-3" stroke="#FFFFFF" stroke-width="5" opacity="0.164129" cx="579" cy="10" r="10"></circle>
            </g>
        </g>
    </g>
</svg>