<?xml version="1.0" encoding="utf-8"?>
<!-- Generator: Adobe Illustrator 25.0.0, SVG Export Plug-In . SVG Version: 6.00 Build 0)  -->
<svg version="1.1" id="Layer_1" xmlns="http://www.w3.org/2000/svg" xmlns:xlink="http://www.w3.org/1999/xlink" x="0px" y="0px"
	 viewBox="0 0 814.9 682.1" style="enable-background:new 0 0 814.9 682.1;" xml:space="preserve">
<style type="text/css">
	.st0{fill-rule:evenodd;clip-rule:evenodd;}
	.st1{fill-rule:evenodd;clip-rule:evenodd;fill:#FFFFFF;stroke:#EEEEEE;}
	.st2{fill:#00CA2E;}
	.st3{fill:#FFB900;}
	.st4{fill:#FF5054;}
	.st5{fill:#EAEDF0;}
	.st6{fill:none;stroke:#A0B4C2;stroke-linecap:round;stroke-linejoin:round;}
	.st7{fill:#A4B9CA;}
	.st8{fill:#D3DCE3;}
	.st9{fill:none;stroke:#A4B9CA;}
	.st10{fill:none;stroke:#A4B9CA;stroke-linejoin:round;}
	.st11{opacity:0.3;fill:#004071;enable-background:new    ;}
	.st12{opacity:0.1;fill:#004071;enable-background:new    ;}
	.st13{fill:none;stroke:#A0B4C2;}
	.st14{fill:#A0B4C2;}
	.st15{fill:#A6B9C8;}
	.st16{fill:#D5DCE1;}
	.st17{fill:#1289C0;}
	.st18{fill:none;stroke:#E7E7E7;}
</style>
<g id="Page-1">
	<g id="VNK-Home">
		<g id="Group-5">
			<g id="light">
				<g id="Rectangle">
					<path id="path-1-5_1_" class="st0" d="M813.8,677.1c0,2.8-2.2,5-5,5H6.8c-2.8,0-5-2.2-5-5V7.1c0-2.8,2.2-5,5-5h802
						c2.8,0,5,2.2,5,5"/>
					<path id="path-1-6" class="st1" d="M6.8,2.1h802c2.8,0,5,2.2,5,5v670c0,2.8-2.2,5-5,5H6.8c-2.8,0-5-2.2-5-5V7.1
						C1.8,4.3,4,2.1,6.8,2.1z"/>
				</g>
				<g>
					<circle id="Oval" class="st2" cx="78.5" cy="31.2" r="7.9"/>
				</g>
				<g>
					<circle id="Oval-2" class="st3" cx="53.4" cy="31.2" r="7.9"/>
				</g>
				<g>
					<circle id="Oval-3" class="st4" cx="30.9" cy="31.2" r="7.9"/>
				</g>
			</g>
			<g id="_5f88bbfa1d6b25a10dfa4860_Group-28">
				<g id="Clipped">
					<g>
						<g id="Group">
							<path id="Rectangle-2" class="st5" d="M544.5,150.4h211c3.3,0,6,2.7,6,6V416c0,3.3-2.7,6-6,6h-211c-3.3,0-6-2.7-6-6V156.4
								C538.5,153.1,541.2,150.4,544.5,150.4z"/>
							<path id="Path" class="st6" d="M611,384.8c0,0,2.7-5.8,7.4-5.8s7.4,5.8,7.4,5.8s-2.7,5.8-7.4,5.8S611,384.8,611,384.8z"/>
							<path id="Path-2" class="st6" d="M618.5,387.4c1.4-0.1,2.5-1.3,2.4-2.7c-0.1-1.4-1.3-2.5-2.7-2.4s-2.4,1.2-2.4,2.6
								C615.8,386.2,617,387.4,618.5,387.4z"/>
							<path id="Path-3" class="st6" d="M648.8,378.2c-0.6,0-1.3,0.2-1.8,0.5s-1,0.8-1.3,1.4c-0.4-0.7-1-1.2-1.7-1.6
								c-1.5-0.6-3.2-0.2-4.2,1.1c-0.5,0.6-0.7,1.4-0.7,2.2c0,3.5,6.6,9.7,6.6,9.7s6.6-6.2,6.6-9.7
								C652.4,379.7,650.8,378.2,648.8,378.2L648.8,378.2L648.8,378.2z"/>
							<path id="Shape" class="st6" d="M674.3,381.6l-4.1,2.1 M674.3,387.9l-4.1-2.1 M678.8,380.6c0,1.3-1.1,2.4-2.4,2.4
								c-1.3,0-2.4-1.1-2.4-2.4s1.1-2.4,2.4-2.4l0,0C677.8,378.2,678.8,379.2,678.8,380.6L678.8,380.6L678.8,380.6z M678.8,389
								c0,1.3-1.1,2.4-2.4,2.4s-2.4-1.1-2.4-2.4s1.1-2.4,2.4-2.4l0,0C677.8,386.6,678.8,387.7,678.8,389L678.8,389z M670.4,384.8
								c0,1.3-1.1,2.4-2.4,2.4s-2.4-1.1-2.4-2.4s1.1-2.4,2.4-2.4l0,0C669.3,382.4,670.4,383.5,670.4,384.8L670.4,384.8z"/>
							<path id="Rectangle-3" class="st7" d="M587,254.6h129.8c1.1,0,2,0.9,2,2v7.2c0,1.1-0.9,2-2,2H587c-1.1,0-2-0.9-2-2v-7.2
								C585,255.5,585.9,254.6,587,254.6z"/>
							<path id="Rectangle-4" class="st8" d="M609.3,273.2h85.2c1.1,0,2,0.9,2,2v7.2c0,1.1-0.9,2-2,2h-85.2c-1.1,0-2-0.9-2-2v-7.2
								C607.3,274.1,608.2,273.2,609.3,273.2z"/>
							<ellipse id="Oval-4" class="st9" cx="651.9" cy="202.5" rx="22.3" ry="22.3"/>
							<polygon id="Path-4-2" class="st10" points="648.2,193.2 661.2,202.5 648.2,211.8 							"/>
							<path id="Rectangle-5" class="st5" d="M544.5,451.7h211c3.3,0,6,2.7,6,6v187.6c0,3.3-2.7,6-6,6h-211c-3.3,0-6-2.7-6-6V457.7
								C538.5,454.4,541.2,451.7,544.5,451.7z"/>
							<path id="Rectangle-6" class="st11" d="M587,555.9h129.8c1.1,0,2,0.9,2,2v7.2c0,1.1-0.9,2-2,2H587c-1.1,0-2-0.9-2-2v-7.2
								C585,556.8,585.9,555.9,587,555.9z"/>
							<path id="Rectangle-7" class="st12" d="M609.3,574.5h85.2c1.1,0,2,0.9,2,2v7.2c0,1.1-0.9,2-2,2h-85.2c-1.1,0-2-0.9-2-2v-7.2
								C607.3,575.4,608.2,574.5,609.3,574.5z"/>
							<ellipse id="Oval-5" class="st13" cx="651.9" cy="503.8" rx="22.3" ry="22.3"/>
							<path id="Rectangle-8" class="st5" d="M39,150.4h211c3.3,0,6,2.7,6,6V416c0,3.3-2.7,6-6,6H39c-3.3,0-6-2.7-6-6V156.4
								C33,153.1,35.6,150.4,39,150.4z"/>
							<path id="Rectangle-9" class="st5" d="M291.8,150.4h211c3.3,0,6,2.7,6,6V416c0,3.3-2.7,6-6,6h-211c-3.3,0-6-2.7-6-6V156.4
								C285.8,153.1,288.4,150.4,291.8,150.4z"/>
							<path id="Path-5" class="st6" d="M358.2,384.8c0,0,2.8-5.8,7.4-5.8s7.4,5.8,7.4,5.8s-2.7,5.8-7.4,5.8
								S358.2,384.8,358.2,384.8z"/>
							<path id="Path-6" class="st6" d="M365.7,387.4c1.4-0.1,2.5-1.3,2.5-2.7c-0.1-1.4-1.3-2.5-2.7-2.5c-1.4,0.1-2.5,1.2-2.5,2.6
								C363,386.2,364.2,387.4,365.7,387.4z"/>
							<path id="Path-7" class="st6" d="M396,378.2c-0.6,0-1.3,0.2-1.8,0.5s-1,0.8-1.2,1.3c-0.9-1.7-3.1-2.3-4.8-1.4
								c-1.1,0.6-1.8,1.8-1.8,3.1c0,3.5,6.6,9.7,6.6,9.7s6.6-6.2,6.6-9.7C399.6,379.7,398,378.2,396,378.2L396,378.2z"/>
							<path id="Shape-2" class="st6" d="M421.5,381.6l-4.1,2.1 M421.5,387.9l-4.1-2.1 M426,380.6c0,1.3-1.1,2.4-2.4,2.4
								s-2.4-1.1-2.4-2.4s1.1-2.4,2.4-2.4l0,0C424.9,378.2,426,379.3,426,380.6L426,380.6z M426,389c0,1.3-1.1,2.4-2.4,2.4
								s-2.4-1.1-2.4-2.4s1.1-2.4,2.4-2.4l0,0C424.9,386.6,426,387.7,426,389L426,389z M417.6,384.8c0,1.3-1.1,2.4-2.4,2.4
								s-2.4-1.1-2.4-2.4s1.1-2.4,2.4-2.4l0,0C416.5,382.4,417.6,383.5,417.6,384.8L417.6,384.8z"/>
							<path id="Rectangle-10" class="st11" d="M332.4,254.6h129.8c1.1,0,2,0.9,2,2v7.2c0,1.1-0.9,2-2,2H332.4c-1.1,0-2-0.9-2-2
								v-7.2C330.4,255.5,331.3,254.6,332.4,254.6z"/>
							<path id="Rectangle-11" class="st12" d="M354.7,273.2h85.2c1.1,0,2,0.9,2,2v7.2c0,1.1-0.9,2-2,2h-85.2c-1.1,0-2-0.9-2-2v-7.2
								C352.7,274.1,353.6,273.2,354.7,273.2z"/>
							<ellipse id="Oval-6" class="st13" cx="397.3" cy="202.5" rx="22.3" ry="22.3"/>
							<polygon id="Path-8" class="st6" points="397.3,196.9 388,193.2 388,208.1 397.3,211.8 406.6,208.1 406.6,193.2 							"/>
							<line id="Path-9" class="st6" x1="397.2" y1="197.7" x2="397.2" y2="211"/>
							<path id="Rectangle-12" class="st5" d="M291.8,451.7h211c3.3,0,6,2.7,6,6v187.6c0,3.3-2.7,6-6,6h-211c-3.3,0-6-2.7-6-6V457.7
								C285.8,454.4,288.4,451.7,291.8,451.7z"/>
							<path id="Rectangle-13" class="st11" d="M332.4,555.9h129.8c1.1,0,2,0.9,2,2v7.2c0,1.1-0.9,2-2,2H332.4c-1.1,0-2-0.9-2-2
								v-7.2C330.4,556.8,331.3,555.9,332.4,555.9z"/>
							<path id="Rectangle-14" class="st12" d="M354.7,574.5h85.2c1.1,0,2,0.9,2,2v7.2c0,1.1-0.9,2-2,2h-85.2c-1.1,0-2-0.9-2-2v-7.2
								C352.7,575.4,353.6,574.5,354.7,574.5z"/>
							<ellipse id="Oval-7" class="st13" cx="397.3" cy="503.8" rx="22.3" ry="22.3"/>
							<path id="Shape-3" class="st14" d="M404.1,496.4h-13.6c-0.3,0-0.6,0.2-0.6,0.6c0,0,0,0,0,0.1v13.6c0,0.3,0.2,0.6,0.5,0.6
								c0,0,0,0,0.1,0h13.6c0.3,0,0.6-0.2,0.6-0.5c0,0,0,0,0-0.1V497C404.7,496.7,404.5,496.4,404.1,496.4L404.1,496.4z
								 M394.2,509.1H392V502h2.2V509.1L394.2,509.1z M393.1,501c-0.7,0-1.3-0.6-1.3-1.3s0.6-1.3,1.3-1.3c0.7,0,1.3,0.6,1.3,1.3l0,0
								C394.4,500.4,393.9,501,393.1,501C393.2,501,393.2,501,393.1,501z M402.6,509.1h-2.2v-3.5c0-0.8,0-1.9-1.1-1.9
								s-1.3,0.9-1.3,1.8v3.5h-2.2v-7h2.1v1c0.4-0.7,1.3-1.2,2.1-1.1c2.2,0,2.7,1.5,2.7,3.4L402.6,509.1z"/>
							<path id="Rectangle-15" class="st5" d="M39,451.7h211c3.3,0,6,2.7,6,6v187.6c0,3.3-2.7,6-6,6H39c-3.3,0-6-2.7-6-6V457.7
								C33,454.4,35.6,451.7,39,451.7z"/>
							<path id="Rectangle-16" class="st11" d="M79.6,555.9h129.8c1.1,0,2,0.9,2,2v7.2c0,1.1-0.9,2-2,2H79.6c-1.1,0-2-0.9-2-2v-7.2
								C77.6,556.8,78.5,555.9,79.6,555.9z"/>
							<path id="Rectangle-17" class="st12" d="M101.9,574.5h85.2c1.1,0,2,0.9,2,2v7.2c0,1.1-0.9,2-2,2h-85.2c-1.1,0-2-0.9-2-2v-7.2
								C99.9,575.4,100.8,574.5,101.9,574.5z"/>
							<ellipse id="Oval-8" class="st13" cx="144.5" cy="503.8" rx="22.3" ry="22.3"/>
							<polygon id="Path-10" class="st6" points="144.5,498.2 135.2,494.5 135.2,509.4 144.5,513.1 153.8,509.4 153.8,494.5 							
								"/>
							<line id="Path-11" class="st6" x1="144.4" y1="499.1" x2="144.4" y2="512.3"/>
						</g>
					</g>
				</g>
				<path id="Rectangle-18" class="st15" d="M90.8,100.1h59c1.1,0,2,0.9,2,2v7c0,1.1-0.9,2-2,2h-59c-1.1,0-2-0.9-2-2v-7
					C88.8,101,89.7,100.1,90.8,100.1z"/>
				<path id="Rectangle-19" class="st16" d="M183.8,100.1h59c1.1,0,2,0.9,2,2v7c0,1.1-0.9,2-2,2h-59c-1.1,0-2-0.9-2-2v-7
					C181.8,101,182.7,100.1,183.8,100.1z"/>
				<path id="Rectangle-20" class="st16" d="M276.8,100.1h59c1.1,0,2,0.9,2,2v7c0,1.1-0.9,2-2,2h-59c-1.1,0-2-0.9-2-2v-7
					C274.8,101,275.7,100.1,276.8,100.1z"/>
				<rect id="Rectangle-21" x="88.8" y="58.1" class="st17" width="63" height="7"/>
				<path id="Path-12" class="st6" d="M658.4,507.1c1.9-0.1,3.4-1.7,3.3-3.7c-0.1-1.8-1.5-3.2-3.3-3.3c0-3.6-3-6.5-6.5-6.5
					c-3.6,0-6.5,3-6.5,6.5l0,0c-1.9,0.5-3,2.4-2.5,4.3c0.4,1.5,1.8,2.6,3.3,2.6"/>
				<polyline id="Path-13" class="st6" points="653.1,504.1 650.8,508.1 653.8,508.1 651.6,512.1 				"/>
			</g>
		</g>
	</g>
</g>
<line class="st18" x1="1.8" y1="57.1" x2="813.8" y2="57.1"/>
<g id="Clipped_1_">
	<g>
		<g id="Group_1_">
			<path id="Rectangle-9_1_" class="st5" d="M39,150.4h211c3.3,0,6,2.7,6,6V416c0,3.3-2.7,6-6,6H39c-3.3,0-6-2.7-6-6V156.4
				C33,153.1,35.6,150.4,39,150.4z"/>
			<path id="Path-5_1_" class="st6" d="M105.4,384.8c0,0,2.8-5.8,7.4-5.8s7.4,5.8,7.4,5.8s-2.7,5.8-7.4,5.8S105.4,384.8,105.4,384.8
				z"/>
			<path id="Path-6_1_" class="st6" d="M112.9,387.4c1.4-0.1,2.5-1.3,2.5-2.7c-0.1-1.4-1.3-2.5-2.7-2.5c-1.4,0.1-2.5,1.2-2.5,2.6
				C110.2,386.2,111.4,387.4,112.9,387.4z"/>
			<path id="Path-7_1_" class="st6" d="M143.2,378.2c-0.6,0-1.3,0.2-1.8,0.5s-1,0.8-1.2,1.3c-0.9-1.7-3.1-2.3-4.8-1.4
				c-1.1,0.6-1.8,1.8-1.8,3.1c0,3.5,6.6,9.7,6.6,9.7s6.6-6.2,6.6-9.7C146.8,379.7,145.2,378.2,143.2,378.2L143.2,378.2z"/>
			<path id="Shape-2_1_" class="st6" d="M168.7,381.6l-4.1,2.1 M168.7,387.9l-4.1-2.1 M173.2,380.6c0,1.3-1.1,2.4-2.4,2.4
				s-2.4-1.1-2.4-2.4s1.1-2.4,2.4-2.4l0,0C172.1,378.2,173.2,379.3,173.2,380.6L173.2,380.6z M173.2,389c0,1.3-1.1,2.4-2.4,2.4
				s-2.4-1.1-2.4-2.4s1.1-2.4,2.4-2.4l0,0C172.1,386.6,173.2,387.7,173.2,389L173.2,389z M164.8,384.8c0,1.3-1.1,2.4-2.4,2.4
				s-2.4-1.1-2.4-2.4s1.1-2.4,2.4-2.4l0,0C163.7,382.4,164.8,383.5,164.8,384.8L164.8,384.8z"/>
			<path id="Rectangle-10_1_" class="st11" d="M79.6,254.6h129.8c1.1,0,2,0.9,2,2v7.2c0,1.1-0.9,2-2,2H79.6c-1.1,0-2-0.9-2-2v-7.2
				C77.6,255.5,78.5,254.6,79.6,254.6z"/>
			<path id="Rectangle-11_1_" class="st12" d="M101.9,273.2h85.2c1.1,0,2,0.9,2,2v7.2c0,1.1-0.9,2-2,2h-85.2c-1.1,0-2-0.9-2-2v-7.2
				C99.9,274.1,100.8,273.2,101.9,273.2z"/>
		</g>
	</g>
</g>
<g>
	<ellipse id="Oval-5_1_" class="st13" cx="144.5" cy="202.5" rx="22.3" ry="22.3"/>
	<path id="Path-12_1_" class="st6" d="M151,205.8c1.9-0.1,3.4-1.7,3.3-3.7c-0.1-1.8-1.5-3.2-3.3-3.3c0-3.6-3-6.5-6.5-6.5
		c-3.6,0-6.5,3-6.5,6.5l0,0c-1.9,0.5-3,2.4-2.5,4.3c0.4,1.5,1.8,2.6,3.3,2.6"/>
	<polyline id="Path-13_1_" class="st6" points="145.7,202.8 143.4,206.8 146.4,206.8 144.2,210.8 	"/>
</g>
</svg>
