<svg viewBox="0 0 788 681" xmlns="http://www.w3.org/2000/svg" xmlns:xlink="http://www.w3.org/1999/xlink"><filter id="a" height="151.6%" name="filter-3" width="144.6%" x="-22.3%" y="-18.5%"><feMorphology in="SourceAlpha" operator="dilate" radius="0.5" result="shadowSpreadOuter1"/><feOffset dy="50" in="shadowSpreadOuter1" result="shadowOffsetOuter1"/><feGaussianBlur in="shadowOffsetOuter1" result="shadowBlurOuter1" stdDeviation="50"/><feComposite in="shadowBlurOuter1" in2="SourceAlpha" operator="out" result="shadowBlurOuter1"/><feColorMatrix in="shadowBlurOuter1" values="0 0 0 0 0.35 0 0 0 0 0.4 0 0 0 0 0.54 0 0 0 0.1 0"/></filter><mask id="b" height="680.5" maskUnits="userSpaceOnUse" width="788" x="0" y="0"><path d="m5 0h777a5 5 0 0 1 5 5v670a5 5 0 0 1 -5 5h-777a5 5 0 0 1 -5-5v-670a5 5 0 0 1 5-5z" fill="#fff" fill-rule="evenodd" transform="translate(.5 .5)"/></mask><mask id="c" height="680" maskUnits="userSpaceOnUse" width="787" x=".5" y=".5"><path d="m5 0h777a5 5 0 0 1 5 5v670a5 5 0 0 1 -5 5h-777a5 5 0 0 1 -5-5v-670a5 5 0 0 1 5-5z" fill="#fff" fill-rule="evenodd" transform="translate(.5 .5)"/></mask><mask id="d" height="589" maskUnits="userSpaceOnUse" width="787" x=".5" y="60.5"><rect fill="#fff" height="589" rx="8" width="787" x=".5" y="60.5"/></mask><g filter="url(#a)"><path d="m5 0h777a5 5 0 0 1 5 5v670a5 5 0 0 1 -5 5h-777a5 5 0 0 1 -5-5v-670a5 5 0 0 1 5-5z" fill-rule="evenodd" transform="translate(.5 .5)"/></g><path d="m5 0h777a5 5 0 0 1 5 5v670a5 5 0 0 1 -5 5h-777a5 5 0 0 1 -5-5v-670a5 5 0 0 1 5-5z" fill="#fff" fill-rule="evenodd" stroke="#eee" transform="translate(.5 .5)"/><g mask="url(#b)"><path d="m.5.5h787v59.53h-787z" fill="#fff" fill-rule="evenodd" stroke="#e7e7e7"/></g><g font-family="Gilroy-Regular, Gilroy" font-size="11" mask="url(#c)"><text fill="#a1a1a1" transform="translate(106.29 32.77)">h<tspan letter-spacing="-.03em" x="6.14" y="0">t</tspan><tspan x="9.93" y="0">t</tspan><tspan letter-spacing="-.02em" x="14.06" y="0">p</tspan><tspan x="20.83" y="0">://</tspan></text><text fill="#363636" transform="translate(141.32 32.77)"><tspan letter-spacing="-.02em">y</tspan><tspan x="5.39" y="0">ou</tspan><tspan letter-spacing="-.02em" x="18.19" y="0">r</tspan><tspan letter-spacing="0em" x="21.43" y="0">s</tspan><tspan letter-spacing="0em" x="26.37" y="0">uppo</tspan><tspan letter-spacing=".01em" x="53.16" y="0">r</tspan><tspan letter-spacing="-.03em" x="56.73" y="0">t</tspan><tspan x="60.52" y="0">ed</tspan><tspan letter-spacing="-.02em" x="73.94" y="0">w</tspan><tspan x="82.19" y="0">e</tspan><tspan letter-spacing="-.01em" x="88.62" y="0">b</tspan><tspan letter-spacing="-.01em" x="95.5" y="0">s</tspan><tspan letter-spacing="0em" x="100.44" y="0">i</tspan><tspan letter-spacing="-.03em" x="102.71" y="0">t</tspan><tspan letter-spacing="-.04em" x="106.5" y="0">e.</tspan><tspan letter-spacing="0em" x="114.58" y="0">c</tspan><tspan x="120.59" y="0">om</tspan></text></g><g mask="url(#c)"><circle cx="74.2" cy="29.62" fill="#00ca2e" r="7.93"/></g><g mask="url(#c)"><circle cx="52.07" cy="29.62" fill="#ffb900" r="7.93"/></g><g mask="url(#c)"><circle cx="29.59" cy="29.62" fill="#ff5054" r="7.93"/></g><rect fill="#fff" height="589" rx="8" width="787" x=".5" y="60.5"/><g mask="url(#d)"><rect fill="#eaedf0" height="271.57" rx="6" width="223.05" x="537.23" y="148.85"/><g fill="none" stroke="#a0b4c2" stroke-linecap="round" stroke-linejoin="round"><path d="m609.23 382.72s2.7-5.79 7.44-5.79 7.44 5.79 7.44 5.79-2.71 5.79-7.44 5.79-7.44-5.79-7.44-5.79z" transform="translate(.5 .5)"/><path d="m616.66 385.29a2.58 2.58 0 1 0 -2.7-2.57 2.64 2.64 0 0 0 2.7 2.57z" transform="translate(.5 .5)"/><path d="m647 376.1a2.48 2.48 0 0 1 -4.76.3 3.52 3.52 0 0 0 -4.94 3.23c0 3.53 6.62 9.71 6.62 9.71s6.61-6.18 6.61-9.71a3.53 3.53 0 0 0 -3.53-3.53z" transform="translate(.5 .5)"/><path d="m672.46 379.58-4.12 2.06m4.12 4.21-4.12-2.06m8.67-5.28a2.41 2.41 0 1 1 -2.4-2.41 2.39 2.39 0 0 1 2.39 2.41zm0 8.42a2.41 2.41 0 1 1 -2.4-2.41 2.4 2.4 0 0 1 2.39 2.41zm-8.41-4.21a2.41 2.41 0 1 1 -2.41-2.41 2.41 2.41 0 0 1 2.41 2.41z" transform="translate(.5 .5)"/></g><rect fill="#a4b9ca" height="11.16" rx="2" width="133.83" x="583.7" y="253.02"/><rect fill="#d3dce3" height="11.16" rx="2" width="89.22" x="606.01" y="271.62"/><ellipse cx="650.62" cy="200.94" fill="none" rx="22.31" ry="22.32" stroke="#a4b9ca"/><path d="m646.9 191.63 13.01 9.31-13.01 9.3z" fill="none" stroke="#a4b9ca" stroke-linejoin="round"/><rect fill="#eaedf0" height="199" rx="6" width="223.05" x="537.23" y="450.18"/><rect fill="#004071" fill-opacity=".3" height="11.16" rx="2" width="133.83" x="583.7" y="554.34"/><rect fill="#004071" fill-opacity=".1" height="11.16" rx="2" width="89.22" x="606.01" y="572.94"/><ellipse cx="650.62" cy="502.26" fill="none" rx="22.31" ry="22.32" stroke="#a0b4c2"/><rect fill="#eaedf0" height="271.57" rx="6" width="223.05" x="31.65" y="148.85"/><rect fill="#eaedf0" height="271.57" rx="6" width="223.05" x="284.44" y="148.85"/><g fill="none" stroke="#a0b4c2"><path d="m356.43 382.72s2.71-5.79 7.44-5.79 7.44 5.79 7.44 5.79-2.7 5.79-7.44 5.79-7.44-5.79-7.44-5.79z" stroke-linecap="round" stroke-linejoin="round" transform="translate(.5 .5)"/><path d="m363.87 385.29a2.58 2.58 0 1 0 -2.7-2.57 2.65 2.65 0 0 0 2.7 2.57z" stroke-linecap="round" stroke-linejoin="round" transform="translate(.5 .5)"/><path d="m394.24 376.1a3.5 3.5 0 0 0 -3.09 1.86 3.51 3.51 0 0 0 -5.87-.5 3.56 3.56 0 0 0 -.74 2.17c0 3.53 6.61 9.71 6.61 9.71s6.62-6.18 6.62-9.71a3.54 3.54 0 0 0 -1-2.49 3.5 3.5 0 0 0 -2.49-1z" stroke-linecap="round" stroke-linejoin="round" transform="translate(.5 .5)"/><path d="m419.67 379.58-4.12 2.06m4.12 4.21-4.12-2.06m8.67-5.28a2.41 2.41 0 1 1 -2.4-2.41 2.4 2.4 0 0 1 2.4 2.41zm0 8.42a2.41 2.41 0 1 1 -2.4-2.41 2.41 2.41 0 0 1 2.4 2.41zm-8.42-4.21a2.41 2.41 0 1 1 -2.4-2.41 2.4 2.4 0 0 1 2.4 2.41z" stroke-linecap="round" stroke-linejoin="round" transform="translate(.5 .5)"/></g><rect fill="#004071" fill-opacity=".3" height="11.16" rx="2" width="133.83" x="329.05" y="253.02"/><rect fill="#004071" fill-opacity=".1" height="11.16" rx="2" width="89.22" x="351.36" y="271.62"/><ellipse cx="395.97" cy="200.94" fill="none" rx="22.31" ry="22.32" stroke="#a0b4c2"/><path d="m395.97 195.35-9.3-3.72v14.89l9.3 3.72 9.29-3.72v-14.89z" fill="none" stroke="#a0b4c2" stroke-linecap="round" stroke-linejoin="round"/><path d="m395.86 196.18v13.23" fill="none" stroke="#a0b4c2" stroke-linecap="round" stroke-linejoin="round"/><rect fill="#eaedf0" height="199" rx="6" width="223.05" x="284.44" y="450.18"/><rect fill="#004071" fill-opacity=".3" height="11.16" rx="2" width="133.83" x="329.05" y="554.34"/><rect fill="#004071" fill-opacity=".1" height="11.16" rx="2" width="89.22" x="351.36" y="572.94"/><ellipse cx="395.97" cy="502.26" fill="none" rx="22.31" ry="22.32" stroke="#a0b4c2"/><path d="m402.28 494.32h-13.63a.59.59 0 0 0 -.62.62v13.64a.59.59 0 0 0 .62.62h13.63a.59.59 0 0 0 .62-.62v-13.64a.59.59 0 0 0 -.62-.62zm-9.85 12.68h-2.17v-7.1h2.23v7.1zm-1.11-8.12a1.3 1.3 0 1 1 1.3-1.3 1.27 1.27 0 0 1 -1.3 1.33zm9.41 8.12h-2.23v-3.47c0-.81 0-1.86-1.11-1.86s-1.3.87-1.3 1.8v3.53h-2.23v-7.1h2.14v1a2.32 2.32 0 0 1 2.11-1.11c2.23 0 2.66 1.49 2.66 3.41z" fill="#a0b4c2" transform="translate(.5 .5)"/><rect fill="#eaedf0" height="199" rx="6" width="223.05" x="31.65" y="450.18"/><rect fill="#004071" fill-opacity=".3" height="11.16" rx="2" width="133.83" x="76.26" y="554.34"/><rect fill="#004071" fill-opacity=".1" height="11.16" rx="2" width="89.22" x="98.56" y="572.94"/><ellipse cx="143.18" cy="502.26" fill="none" rx="22.31" ry="22.32" stroke="#a0b4c2"/><path d="m143.18 496.68-9.3-3.72v14.88l9.3 3.72 9.29-3.72v-14.88z" fill="none" stroke="#a0b4c2" stroke-linecap="round" stroke-linejoin="round"/><path d="m143.07 497.51v13.23" fill="none" stroke="#a0b4c2" stroke-linecap="round" stroke-linejoin="round"/></g><rect fill="#a6b9c8" height="11" rx="2" width="63" x="87.5" y="98.5"/><rect fill="#d5dce1" height="11" rx="2" width="63" x="180.5" y="98.5"/><rect fill="#d5dce1" height="11" rx="2" width="63" x="273.5" y="98.5"/><path d="m87.5 59.5h63v4h-63z" fill="#1289c0"/><g fill="none" stroke="#a0b4c2" stroke-linecap="round" stroke-linejoin="round"><path d="m656.55 505a3.47 3.47 0 0 0 0-6.93 6.49 6.49 0 0 0 -13 .08 3.48 3.48 0 0 0 .86 6.85" transform="translate(.5 .5)"/><path d="m651.75 502.5-2.25 4h3l-2.25 4"/></g></svg>