<?xml version="1.0" encoding="utf-8"?>
<!-- Generator: Adobe Illustrator 25.0.0, SVG Export Plug-In . SVG Version: 6.00 Build 0)  -->
<svg version="1.1" id="Layer_1" xmlns="http://www.w3.org/2000/svg" xmlns:xlink="http://www.w3.org/1999/xlink" x="0px" y="0px"
	 viewBox="0 0 143 143" style="enable-background:new 0 0 143 143;" xml:space="preserve">
<style type="text/css">
	.st0{fill-rule:evenodd;clip-rule:evenodd;fill:url(#SVGID_1_);}
	.st1{fill:#A6D9FA;}
	.st2{fill:#0083CE;}
</style>
<g transform="translate(-982 -1704) translate(982 1704)">
	
		<linearGradient id="SVGID_1_" gradientUnits="userSpaceOnUse" x1="-224.4196" y1="490.4493" x2="-223.4196" y2="489.4493" gradientTransform="matrix(143 0 0 -143 32092 70134.2422)">
		<stop  offset="0" style="stop-color:#E7EEFF"/>
		<stop  offset="1" style="stop-color:#DEF5FF"/>
	</linearGradient>
	<circle class="st0" cx="71.5" cy="71.5" r="71.5"/>
	<g>
		<g>
			<path class="st1" d="M65.5,44h6c0.8,0,1.5-0.7,1.5-1.5S72.3,41,71.5,41h-6c-0.8,0-1.5,0.7-1.5,1.5S64.7,44,65.5,44z"/>
			<path class="st2" d="M95.2,51.4h-5.8v-8.6c0-3.2-2.6-5.8-5.8-5.8H54.8c-3.2,0-5.8,2.6-5.8,5.8v57.5c0,3.2,2.6,5.8,5.8,5.8h28.9
				c3.2,0,5.8-2.6,5.8-5.8v-23h5.8c3.2,0,5.8-2.6,5.8-5.8V57.1C101,53.9,98.4,51.4,95.2,51.4z M51.9,42.8c0-1.6,1.3-2.9,2.9-2.9
				h28.9c1.6,0,2.9,1.3,2.9,2.9v1.4c-10.8,0-9.4-0.4-10.8,1.4h-13c-1.4-1.9,0-1.4-10.8-1.4C51.9,44.2,51.9,42.8,51.9,42.8z
				 M86.6,100.2c0,1.6-1.3,2.9-2.9,2.9H54.8c-1.6,0-2.9-1.3-2.9-2.9v-2.9h34.7V100.2z M86.6,94.5H51.9V47.1h8.3
				c1.4,1.9-0.6,1.4,16.2,1.4c0.9,0,1.2-0.7,1.8-1.4h8.3v4.3h-8.7c-3.2,0-5.8,2.6-5.8,5.8c0,23.2-0.3,22.1,0.6,22.8
				c0.9,0.6,0.8,0.4,8.3-2.6h5.5V94.5z M98.1,71.5c0,1.6-1.3,2.9-2.9,2.9H80.8c-0.4,0-0.2,0-5.8,2.2V57.1c0-1.6,1.3-2.9,2.9-2.9
				h17.3c1.6,0,2.9,1.3,2.9,2.9V71.5z"/>
			<path class="st1" d="M57.4,83c-0.8,0-1.4,0.7-1.4,1.5c0,0.8,0.6,1.5,1.4,1.5h23.1c0.8,0,1.4-0.7,1.4-1.5c0-0.8-0.6-1.5-1.4-1.5
				H57.4L57.4,83z M80.6,88H57.4c-0.8,0-1.4,0.7-1.4,1.5c0,0.8,0.6,1.5,1.4,1.5h23.1c0.8,0,1.4-0.7,1.4-1.5C82,88.7,81.4,88,80.6,88
				z M58.4,80h10.1c0.8,0,1.4-0.7,1.4-1.5c0-0.8-0.6-1.5-1.4-1.5H58.4c-0.8,0-1.4,0.7-1.4,1.5C57,79.3,57.6,80,58.4,80z M58.4,75
				h10.1c0.8,0,1.4-0.7,1.4-1.5c0-0.8-0.6-1.5-1.4-1.5H58.4c-0.8,0-1.4,0.7-1.4,1.5C57,74.3,57.6,75,58.4,75z M91.8,61.6l-3.5-0.5
				l-1.5-3.3C86.5,57.3,86,57,85.5,57c-0.5,0-1,0.3-1.3,0.8l-1.5,3.3c-3.7,0.6-4.3,0.4-4.6,1.5c-0.3,1.1,0.2,1.3,2.9,4
				c-0.6,3.8-0.9,4.4,0,5c0.9,0.7,1.3,0.2,4.6-1.6c3.3,1.9,3.2,1.9,3.7,1.9c0.4,0,0.8-0.2,1-0.5c0.3-0.3,0.4-0.7,0.3-1.2l-0.6-3.6
				l2.5-2.5c0.4-0.4,0.5-1,0.4-1.5C92.8,62.1,92.3,61.7,91.8,61.6z M87.5,67.8c-2.1-1.2-1.7-1.1-3.8,0c0.4-2.5,0.5-2.1-1.2-3.8
				c2.3-0.4,2-0.1,3.1-2.3c1.1,2.3,0.8,2,3.1,2.3C87,65.8,87,65.4,87.5,67.8C87.4,67.8,87.5,67.8,87.5,67.8z"/>
		</g>
	</g>
</g>
</svg>
