<svg xmlns="http://www.w3.org/2000/svg" width="143" height="143" viewBox="0 0 143 143">
    <defs>
        <linearGradient id="e44ll0fqza" x1="0%" x2="100%" y1="0%" y2="100%">
            <stop offset="0%" stop-color="#E7EEFF"/>
            <stop offset="100%" stop-color="#DEF5FF"/>
        </linearGradient>
        <filter id="6wds64mxdb">
            <feColorMatrix in="SourceGraphic" values="0 0 0 0 0.000000 0 0 0 0 0.513725 0 0 0 0 0.807843 0 0 0 1.000000 0"/>
        </filter>
    </defs>
    <g fill="none" fill-rule="evenodd">
        <g>
            <g transform="translate(-982 -1704) translate(982 1704)">
                <circle cx="71.5" cy="71.5" r="71.5" fill="url(#e44ll0fqza)"/>
                <g filter="url(#6wds64mxdb)">
                    <g fill="#000" fill-rule="nonzero">
                        <path d="M17.223 7h6c.828 0 1.5-.672 1.5-1.5S24.05 4 23.223 4h-6c-.829 0-1.5.672-1.5 1.5s.671 1.5 1.5 1.5z" transform="translate(48.277 37)"/>
                        <path d="M46.945 14.375h-5.778V5.75c0-3.176-2.586-5.75-5.777-5.75H6.5C3.31 0 .724 2.574.724 5.75v57.5C.723 66.426 3.31 69 6.5 69H35.39c3.19 0 5.777-2.574 5.777-5.75v-23h5.778c3.191 0 5.778-2.574 5.778-5.75V20.125c0-3.176-2.587-5.75-5.778-5.75zM3.612 5.75c0-1.588 1.293-2.875 2.889-2.875H35.39c1.595 0 2.888 1.287 2.888 2.875v1.438c-10.833 0-9.417-.432-10.833 1.437h-13c-1.444-1.912 0-1.438-10.833-1.438V5.75zm34.666 57.5c0 1.588-1.293 2.875-2.888 2.875H6.5c-1.595 0-2.888-1.287-2.888-2.875v-2.875h34.666v2.875zm0-5.75H3.612V10.062h8.305c1.445 1.912-.577 1.438 16.25 1.438.896 0 1.228-.676 1.806-1.438h8.305v4.313h-8.666c-3.191 0-5.778 2.574-5.778 5.75 0 23.244-.274 22.138.636 22.756.91.618.765.373 8.305-2.631h5.503V57.5zm11.556-23c0 1.588-1.293 2.875-2.889 2.875H32.501c-.405 0-.16 0-5.778 2.185V20.125c0-1.588 1.293-2.875 2.889-2.875h17.333c1.596 0 2.889 1.287 2.889 2.875V34.5z" transform="translate(48.277 37)"/>
                        <path d="M9.167 46c-.797 0-1.444.672-1.444 1.5S8.37 49 9.167 49h23.111c.798 0 1.445-.672 1.445-1.5s-.647-1.5-1.445-1.5H9.168zM32.278 51H9.168c-.798 0-1.445.672-1.445 1.5S8.37 54 9.167 54h23.111c.798 0 1.445-.672 1.445-1.5s-.647-1.5-1.445-1.5zM10.167 43h10.111c.798 0 1.445-.672 1.445-1.5s-.647-1.5-1.445-1.5h-10.11c-.798 0-1.445.672-1.445 1.5S9.37 43 10.167 43zM10.167 38h10.111c.798 0 1.445-.672 1.445-1.5s-.647-1.5-1.445-1.5h-10.11c-.798 0-1.445.672-1.445 1.5S9.37 38 10.167 38zM43.52 24.584l-3.477-.528-1.55-3.29c-.258-.474-.74-.766-1.26-.766-.523 0-1.004.292-1.261.765l-1.55 3.291c-3.71.559-4.274.438-4.608 1.51-.333 1.071.16 1.298 2.898 4.045-.623 3.834-.927 4.378 0 5.042.927.664 1.304.196 4.593-1.6C40.65 35 40.535 35 40.999 35c.404-.018.782-.21 1.043-.532.261-.32.382-.74.333-1.159l-.594-3.623 2.521-2.55c.381-.4.517-.987.352-1.523-.164-.537-.602-.933-1.134-1.029zm-4.346 6.25c-2.145-1.178-1.739-1.148-3.825 0 .42-2.506.507-2.083-1.174-3.79 2.347-.361 2.029-.105 3.086-2.339 1.072 2.28.768 1.993 3.086 2.34-1.666 1.72-1.666 1.313-1.202 3.789h.029z" transform="translate(48.277 37)"/>
                    </g>
                </g>
            </g>
        </g>
    </g>
</svg>
