<svg xmlns="http://www.w3.org/2000/svg" width="104" height="84" viewBox="0 0 104 84">
    <defs>
        <filter id="76i386n58a">
            <feColorMatrix in="SourceGraphic" values="0 0 0 0 0.000000 0 0 0 0 0.513725 0 0 0 0 0.807843 0 0 0 1.000000 0"/>
        </filter>
    </defs>
    <g fill="none" fill-rule="evenodd">
        <g filter="url(#76i386n58a)" transform="translate(-442 -2437)">
            <g>
                <path fill="#000" fill-rule="nonzero" d="M17.851 55.526h32.4v12.633c-2.88.675-5.128 2.925-5.8 5.806H15.727c-.966 0-1.75.784-1.75 1.75s.784 1.75 1.75 1.75h28.716c.812 3.52 3.946 6.013 7.559 6.013 3.612 0 6.746-2.493 7.558-6.013h28.713c.966 0 1.75-.784 1.75-1.75s-.784-1.75-1.75-1.75H59.559c-.674-2.884-2.926-5.135-5.81-5.807V55.526h35.412c6.09.007 11.529-3.81 13.592-9.54 2.064-5.73.308-12.138-4.388-16.015-4.696-3.878-11.321-4.39-16.557-1.279-1.395-4.845-4.819-8.85-9.388-10.982-4.57-2.132-9.837-2.182-14.447-.139C56.712 7.373 47.733-.084 37.477.547c-10.256.632-18.251 9.135-18.251 19.411 0 .246.005.493.016.744-.467-.038-.93-.057-1.391-.057-9.58.073-17.309 7.86-17.309 17.44 0 9.581 7.728 17.368 17.309 17.441zm38.414 20.183v.014c-.004 2.354-1.914 4.259-4.267 4.257-2.354-.002-4.261-1.91-4.261-4.264s1.907-4.262 4.26-4.264c2.354-.002 4.264 1.903 4.268 4.257zM17.851 24.145c1.009.003 2.015.114 3 .331.565.121 1.153-.044 1.572-.442.42-.398.615-.977.523-1.547-.14-.836-.214-1.681-.219-2.529 0-8.807 7.14-15.946 15.946-15.946 8.807 0 15.946 7.14 15.946 15.946 0 .075-.006.146-.011.219l-.012.2c-.034.662.309 1.285.885 1.612.577.326 1.288.3 1.838-.07 4.04-2.697 9.192-3.095 13.597-1.05 4.406 2.044 7.428 6.235 7.977 11.061.073.654.506 1.212 1.122 1.444.616.232 1.31.1 1.796-.344 3.61-3.283 8.958-3.773 13.104-1.202 4.146 2.571 6.084 7.58 4.748 12.273-1.337 4.692-5.623 7.928-10.502 7.929h-71.31c-7.653-.065-13.823-6.287-13.823-13.94 0-7.654 6.17-13.876 13.823-13.941v-.004z" transform="translate(442 2437)"/>
            </g>
        </g>
    </g>
</svg>
