<?xml version="1.0" encoding="utf-8"?>
<!-- Generator: Adobe Illustrator 25.0.0, SVG Export Plug-In . SVG Version: 6.00 Build 0)  -->
<svg version="1.1" id="Layer_1" xmlns="http://www.w3.org/2000/svg" xmlns:xlink="http://www.w3.org/1999/xlink" x="0px" y="0px"
	 viewBox="0 0 104 84" style="enable-background:new 0 0 104 84;" xml:space="preserve">
<style type="text/css">
	.st0{fill:#0083CE;}
	.st1{fill:#A6D9FA;}
</style>
<path id="Shape" class="st0" d="M17.9,55.5h32.4v12.6c-2.9,0.7-5.1,2.9-5.8,5.8H15.7c-1,0-1.8,0.8-1.8,1.8c0,1,0.8,1.8,1.8,1.8h28.7
	c0.8,3.5,3.9,6,7.6,6s6.7-2.5,7.6-6h28.7c1,0,1.8-0.8,1.8-1.8c0-1-0.8-1.8-1.8-1.8H59.6c-0.7-2.9-2.9-5.1-5.8-5.8V55.5h35.4
	c6.1,0,11.5-3.8,13.6-9.5c2.1-5.7,0.3-12.1-4.4-16S87,25.6,81.8,28.7c-1.4-4.8-4.8-8.8-9.4-11c-4.6-2.1-9.8-2.2-14.4-0.1
	C56.7,7.4,47.7-0.1,37.5,0.5S19.2,9.7,19.2,20c0,0.2,0,0.5,0,0.7c-0.5,0-0.9-0.1-1.4-0.1C8.3,20.7,0.5,28.5,0.5,38.1
	S8.3,55.5,17.9,55.5z M56.3,75.7L56.3,75.7c0,2.4-1.9,4.3-4.3,4.3c-2.4,0-4.3-1.9-4.3-4.3c0-2.4,1.9-4.3,4.3-4.3
	C54.4,71.5,56.3,73.4,56.3,75.7L56.3,75.7z M17.9,24.1c1,0,2,0.1,3,0.3c0.6,0.1,1.2,0,1.6-0.4c0.4-0.4,0.6-1,0.5-1.5
	c-0.1-0.8-0.2-1.7-0.2-2.5C22.7,11.2,29.9,4,38.7,4S54.6,11.2,54.6,20c0,0.1,0,0.1,0,0.2l0,0.2c0,0.7,0.3,1.3,0.9,1.6
	s1.3,0.3,1.8-0.1c4-2.7,9.2-3.1,13.6-1.1s7.4,6.2,8,11.1c0.1,0.7,0.5,1.2,1.1,1.4s1.3,0.1,1.8-0.3c3.6-3.3,9-3.8,13.1-1.2
	c4.1,2.6,6.1,7.6,4.7,12.3S94,52,89.2,52H17.9C10.2,52,4,45.7,4,38.1S10.2,24.2,17.9,24.1L17.9,24.1z"/>
<path id="Path_4_" class="st1" d="M43.2,28.4l-5.3,5.5l-2.1-2.2c-0.6-0.7-1.7-0.7-2.3,0c-0.6,0.7-0.6,1.7,0,2.4
	c5.3,5.5,3.2,5.7,12-3.3c0.6-0.7,0.6-1.7,0-2.4C44.9,27.7,43.9,27.7,43.2,28.4z"/>
<path id="Shape_1_" class="st1" d="M40,17.9c-8.3,0-15,6.7-15,15s6.7,15,15,15s15-6.7,15-15S48.3,17.9,40,17.9z M40,44.6
	c-6.4,0-11.7-5.2-11.7-11.7S33.6,21.2,40,21.2s11.7,5.2,11.7,11.7c0,3.1-1.2,6.1-3.4,8.2C46.1,43.3,43.1,44.6,40,44.6z"/>
</svg>
