<?xml version="1.0" encoding="UTF-8"?>
<svg width="265px" height="205px" viewBox="0 0 265 205" version="1.1" xmlns="http://www.w3.org/2000/svg" xmlns:xlink="http://www.w3.org/1999/xlink">
    <title>Icon/Illustration/UserData</title>
    <defs>
        <linearGradient x1="50.0011338%" y1="100%" x2="50.0011338%" y2="0%" id="linearGradient-1">
            <stop stop-color="#808080" stop-opacity="0.25" offset="0%"></stop>
            <stop stop-color="#808080" stop-opacity="0.12" offset="54%"></stop>
            <stop stop-color="#808080" stop-opacity="0.1" offset="100%"></stop>
        </linearGradient>
        <linearGradient x1="50.0142857%" y1="100%" x2="50.0142857%" y2="0%" id="linearGradient-2">
            <stop stop-color="#808080" stop-opacity="0.25" offset="0%"></stop>
            <stop stop-color="#808080" stop-opacity="0.12" offset="54%"></stop>
            <stop stop-color="#808080" stop-opacity="0.1" offset="100%"></stop>
        </linearGradient>
        <linearGradient x1="50%" y1="100%" x2="50%" y2="0%" id="linearGradient-3">
            <stop stop-color="#808080" stop-opacity="0.25" offset="0%"></stop>
            <stop stop-color="#808080" stop-opacity="0.12" offset="54%"></stop>
            <stop stop-color="#808080" stop-opacity="0.1" offset="100%"></stop>
        </linearGradient>
        <linearGradient x1="50%" y1="100%" x2="50%" y2="0%" id="linearGradient-4">
            <stop stop-color="#808080" stop-opacity="0.25" offset="0%"></stop>
            <stop stop-color="#808080" stop-opacity="0.12" offset="54%"></stop>
            <stop stop-color="#808080" stop-opacity="0.1" offset="100%"></stop>
        </linearGradient>
    </defs>
    <g id="Icon/Illustration/UserData" stroke="none" stroke-width="1" fill="none" fill-rule="evenodd">
        <g id="Illustration-Icon">
            <g id="Group" opacity="0.5" transform="translate(81.000000, 55.644000)" fill="url(#linearGradient-1)">
                <polygon id="Path" points="111.850498 148.865925 0.106425339 148.865925 0.106425339 0.118896435 94.1154751 0.118896435 111.850498 18.3328183"></polygon>
            </g>
            <polygon id="Path" stroke="#F8F8F8" fill="#FFFFFF" points="193 202.644 83 202.644 83 56.6440004 176.065198 56.6440004 193 73.1483482"></polygon>
            <g id="Group" opacity="0.5" transform="translate(174.000000, 57.644000)" fill="url(#linearGradient-2)">
                <polygon id="Path" points="0.103943662 16.8613846 0.103943662 0.122923077 1.56422535 0.122923077 17.8504225 16.8613846"></polygon>
            </g>
            <polygon id="Path" fill="#FAFAFA" points="175 73.6440004 175 56.6440004 192 73.6440004"></polygon>
            <g id="Group" opacity="0.5" transform="translate(93.000000, 83.644000)" fill="url(#linearGradient-3)">
                <circle id="Oval" cx="8.97913043" cy="8.99217391" r="8.86956522"></circle>
            </g>
            <circle id="Oval" fill="#039EE0" cx="102" cy="92.6440004" r="8"></circle>
            <g id="Group" opacity="0.5" transform="translate(93.000000, 118.644000)" fill="url(#linearGradient-3)">
                <circle id="Oval" cx="8.97913043" cy="8.99217391" r="8.86956522"></circle>
            </g>
            <circle id="Oval" fill="#E0E0E0" cx="102" cy="127.644" r="8"></circle>
            <g id="Group" opacity="0.5" transform="translate(93.000000, 152.644000)" fill="url(#linearGradient-3)">
                <circle id="Oval" cx="8.97913043" cy="8.99217391" r="8.86956522"></circle>
            </g>
            <circle id="Oval" fill="#E0E0E0" cx="102" cy="161.644" r="8"></circle>
            <rect id="Rectangle" fill="#E0E0E0" x="121" y="89.6440004" width="21" height="2"></rect>
            <rect id="Rectangle" fill="#E0E0E0" x="121" y="93.6440004" width="33" height="2"></rect>
            <rect id="Rectangle" fill="#E0E0E0" x="121" y="123.644" width="21" height="2"></rect>
            <rect id="Rectangle" fill="#E0E0E0" x="121" y="128.644" width="33" height="2"></rect>
            <rect id="Rectangle" fill="#E0E0E0" x="121" y="158.644" width="21" height="2"></rect>
            <rect id="Rectangle" fill="#E0E0E0" x="121" y="162.644" width="36" height="2"></rect>
            <polygon id="Path" fill="#FFFFFF" points="99.125 92.8440004 101.825 95.3582861 105.65 89.6440004 107 90.7868575 101.825 97.6440004 98 93.3011433"></polygon>
            <polygon id="Path" fill="#FFFFFF" points="99.125 126.844 101.825 129.358286 105.65 123.644 107 124.786858 101.825 131.644 98 127.301143"></polygon>
            <polygon id="Path" fill="#FFFFFF" points="99.125 160.844 101.825 163.358286 105.65 157.644 107 158.786858 101.825 165.644 98 161.301143"></polygon>
            <g id="Group" opacity="0.5" transform="translate(213.000000, 70.644000)" fill="url(#linearGradient-4)">
                <rect id="Rectangle" x="0.227692308" y="0" width="36.7516084" height="38.8742763" rx="18.3758042"></rect>
            </g>
            <rect id="Rectangle" fill="#1384B7" x="215" y="71.6440004" width="33" height="37" rx="16.5"></rect>
            <path d="M232.999852,96.2660559 L232.999852,94.9532162 C236.900177,93.9100559 239.443226,90.0254595 238.93565,85.8860757 C238.428075,81.7466919 235.028238,78.6440004 231,78.6440004 C226.971762,78.6440004 223.571925,81.7466919 223.06435,85.8860757 C222.556774,90.0254595 225.099823,93.9100559 229.000148,94.9532162 L229.000148,96.2660559 C225.616322,97.2134309 223.262064,100.38792 223.250574,104.018802 L223.250574,107.644 L238.749426,107.644 L238.749426,104.018802 C238.737936,100.38792 236.383678,97.2134309 232.999852,96.2660559 L232.999852,96.2660559 Z" id="Path" fill="#FFFFFF"></path>
            <ellipse id="Oval" fill="#FFFFFF" cx="231.5" cy="85.6440004" rx="8.5" ry="9"></ellipse>
            <path d="M240.815946,87.6440004 C240.815946,87.6440004 240.351351,95.8710014 244,96.7689005 C244,96.7689005 236.459459,100.584972 235,92.2794048 L240.815946,87.6440004 Z" id="Path" fill="#FFFFFF"></path>
            <path d="M223.184054,87.6440004 C223.184054,87.6440004 223.648649,95.8710014 220,96.7689005 C220,96.7689005 227.540541,100.584972 229,92.2794048 L223.184054,87.6440004 Z" id="Path" fill="#FFFFFF"></path>
            <g id="Group" opacity="0.5" transform="translate(119.000000, 0.644000)" fill="url(#linearGradient-4)">
                <rect id="Rectangle" x="0.227692308" y="0" width="36.7516084" height="38.8742763" rx="18.3758042"></rect>
            </g>
            <rect id="Rectangle" fill="#1384B7" x="122" y="1.6440004" width="33" height="37" rx="16.5"></rect>
            <path d="M150.737667,14.729436 C150.477482,12.5782664 150.087204,10.4220294 149.241601,8.41021712 C148.395998,6.39840487 147.03783,4.55128757 145.14368,3.40602418 C144.469524,2.96591867 143.689493,2.703981 142.880067,2.6458936 C141.399612,2.59521823 140.031037,3.56818537 139.268693,4.80466443 C139.01056,5.23297061 138.785318,5.67928738 138.594813,6.13996047 C137.143083,6.38074384 136.04884,7.55731023 135.946125,8.98791636 C132.742606,10.3196171 130.764457,13.488972 131.025622,16.8714561 C131.286787,20.2539403 133.729361,23.0995968 137.101349,23.9498198 L137.101349,25.3003185 C133.51645,26.2130409 131.011715,29.3616253 131,32.970036 L131,36.6440004 L147.269395,36.6440004 L147.269395,32.9675022 C147.25768,29.3590915 144.752945,26.2105072 141.168047,25.2977847 L141.168047,23.9498198 C144.759725,23.045488 147.268904,19.8902759 147.269395,16.2775686 C147.269395,16.2598322 147.269395,16.239562 147.269395,16.2218257 L148.185248,18.2057664 C149.056869,20.0959578 149.949306,22.1229727 149.608463,24.1702577 C151.281455,21.3831122 151.143557,17.9321194 150.737667,14.729436 Z" id="Path" fill="#FFFFFF"></path>
            <g id="Group" opacity="0.5" transform="translate(28.000000, 124.644000)" fill="url(#linearGradient-4)">
                <rect id="Rectangle" x="0.227692308" y="0" width="36.7516084" height="38.8742763" rx="18.3758042"></rect>
            </g>
            <rect id="Rectangle" fill="#1384B7" x="30" y="125.644" width="33" height="37" rx="16.5"></rect>
            <path d="M40.6786128,141.531641 C40.1766911,140.540774 39.9459335,139.43 40.0106686,138.316429 C40.0822555,137.196574 40.5799181,136.149691 41.3973512,135.399402 C42.3091077,134.605971 43.5459472,134.325936 44.7396117,134.227406 C45.9332762,134.128875 47.1447187,134.188512 48.3206052,133.952557 C50.2832095,133.546892 52.0047526,132.355231 53.1003426,130.644 C53.2182555,131.578524 53.2097098,132.525165 53.0749454,133.457311 C52.8971656,134.380388 52.4323984,135.287907 51.6476275,135.790932 C52.5974797,135.342358 52.4958912,136.395081 52.2876348,137.025159 C52.7600212,137.605971 53.9028915,137.701909 53.9613048,138.453853 C54.0567955,139.203397 53.9749313,139.96539 53.7225719,140.67598 C53.4355845,141.368287 53.7428896,142.589549 53.0089129,142.644" id="Path" stroke="#FFFFFF" fill="#FFFFFF"></path>
            <path d="M51,136.644 C51,136.644 54.6770763,136.975787 52.0595345,142.644" id="Path" fill="#FFFFFF"></path>
            <path d="M48.999852,152.266056 L48.999852,150.953216 C52.9001768,149.910056 55.4432256,146.02546 54.9356503,141.886076 C54.428075,137.746692 51.0282381,134.644 47,134.644 C42.9717619,134.644 39.571925,137.746692 39.0643497,141.886076 C38.5567744,146.02546 41.0998232,149.910056 45.000148,150.953216 L45.000148,152.266056 C41.6163219,153.213431 39.2620642,156.38792 39.2505735,160.018802 L39.2505735,163.644 L54.7494265,163.644 L54.7494265,160.018802 C54.7379358,156.38792 52.3836781,153.213431 48.999852,152.266056 L48.999852,152.266056 Z" id="Path" fill="#FFFFFF"></path>
            <line x1="46" y1="115.644" x2="46" y2="113.644" id="Path" stroke="#CFD8DC" stroke-width="2"></line>
            <line x1="46" y1="110.644" x2="46" y2="26.6440004" id="Path" stroke="#CFD8DC" stroke-width="2" stroke-dasharray="12"></line>
            <polyline id="Path" stroke="#CFD8DC" stroke-width="2" points="46 25.6440004 46 23.6440004 48 23.6440004"></polyline>
            <line x1="51" y1="24.6440004" x2="110" y2="24.6440004" id="Path" stroke="#CFD8DC" stroke-width="2" stroke-dasharray="11.86"></line>
            <line x1="111" y1="24.6440004" x2="113" y2="24.6440004" id="Path" stroke="#CFD8DC" stroke-width="2"></line>
            <line x1="166" y1="24.6440004" x2="168" y2="24.6440004" id="Path" stroke="#CFD8DC" stroke-width="2"></line>
            <line x1="171" y1="24.6440004" x2="236" y2="24.6440004" id="Path" stroke="#CFD8DC" stroke-width="2" stroke-dasharray="11.87"></line>
            <polyline id="Path" stroke="#CFD8DC" stroke-width="2" points="238 23.6440004 240 23.6440004 240 25.6440004"></polyline>
            <line x1="240" y1="26.6440004" x2="240" y2="57.6440004" id="Path" stroke="#CFD8DC" stroke-width="2" stroke-dasharray="12.73"></line>
            <line x1="240" y1="59.6440004" x2="240" y2="61.6440004" id="Path" stroke="#CFD8DC" stroke-width="2"></line>
            <polygon id="Rectangle" fill="#69F0AE" opacity="0.3" transform="translate(2.745382, 138.919065) rotate(30.000000) translate(-2.745382, -138.919065) " points="1.46092254 137.635377 4.03117875 137.634041 4.02984204 140.202753 1.45958583 140.20409"></polygon>
            <polygon id="Rectangle" fill="#69F0AE" opacity="0.3" transform="translate(180.329677, 12.551845) rotate(30.000000) translate(-180.329677, -12.551845) " points="179.045217 11.2681572 181.615473 11.2668204 181.614137 13.8355331 179.04388 13.8368699"></polygon>
            <polygon id="Rectangle" fill="#4D8AF0" opacity="0.3" transform="translate(58.130085, 176.221639) rotate(30.000000) translate(-58.130085, -176.221639) " points="56.8456252 174.937951 59.4158814 174.936614 59.4145447 177.505327 56.8442885 177.506664"></polygon>
            <polygon id="Rectangle" fill="#4D8AF0" opacity="0.3" transform="translate(202.686502, 51.883956) rotate(30.000000) translate(-202.686502, -51.883956) " points="201.402042 50.6002678 203.972298 50.5989311 203.970961 53.1676438 201.400705 53.1689805"></polygon>
            <circle id="Oval" fill="#69F0AE" opacity="0.3" cx="212.5" cy="169.144" r="1.5"></circle>
            <circle id="Oval" fill="#69F0AE" opacity="0.3" cx="67.5" cy="66.1440004" r="1.5"></circle>
            <circle id="Oval" fill="#FF5252" opacity="0.3" cx="222.5" cy="136.144" r="1.5"></circle>
            <path d="M263.979262,10.9842265 L263.979262,10.9842265 C264.049384,11.2116067 264.254105,11.3636639 264.482425,11.3579513 L264.482425,11.3579513 C264.706308,11.3571349 264.905125,11.5075182 264.974545,11.730187 C265.043965,11.9528558 264.968132,12.1969471 264.786838,12.3343732 L264.786838,12.3343732 C264.605801,12.4713155 264.529629,12.7146235 264.598152,12.9370702 L264.598152,12.9370702 C264.667625,13.1597531 264.59181,13.4038912 264.4105,13.5413448 C264.229189,13.6787983 263.983811,13.678161 263.803155,13.5397673 L263.803155,13.5397673 C263.62239,13.4023683 263.37761,13.4023683 263.196845,13.5397673 L263.196845,13.5397673 C263.016189,13.678161 262.770811,13.6787983 262.5895,13.5413448 C262.40819,13.4038912 262.332375,13.1597531 262.401848,12.9370702 L262.401848,12.9370702 C262.470371,12.7146235 262.394199,12.4713155 262.213162,12.3343732 L262.213162,12.3343732 C262.031868,12.1969471 261.956035,11.9528558 262.025455,11.730187 C262.094875,11.5075182 262.293692,11.3571349 262.517575,11.3579513 L262.517575,11.3579513 C262.745895,11.3636639 262.950616,11.2116067 263.020738,10.9842265 L263.020738,10.9842265 C263.09879,10.7788231 263.288709,10.6440004 263.5,10.6440004 C263.711291,10.6440004 263.90121,10.7788231 263.979262,10.9842265 L263.979262,10.9842265 Z" id="Path" fill="#FF5252" opacity="0.3"></path>
            <path d="M68.9792624,129.984226 L68.9792624,129.984226 C69.0493837,130.211607 69.2541053,130.363664 69.482425,130.357951 L69.482425,130.357951 C69.7063085,130.357135 69.9051251,130.507518 69.9745453,130.730187 C70.0439655,130.952856 69.9681319,131.196947 69.7868384,131.334373 L69.7868384,131.334373 C69.6058009,131.471316 69.5296287,131.714623 69.5981525,131.93707 L69.5981525,131.93707 C69.667625,132.159753 69.5918098,132.403891 69.4104995,132.541345 C69.2291893,132.678798 68.983811,132.678161 68.8031555,132.539767 L68.8031555,132.539767 C68.6223902,132.402368 68.3776098,132.402368 68.1968445,132.539767 L68.1968445,132.539767 C68.016189,132.678161 67.7708107,132.678798 67.5895005,132.541345 C67.4081902,132.403891 67.332375,132.159753 67.4018475,131.93707 L67.4018475,131.93707 C67.4703713,131.714623 67.3941991,131.471316 67.2131616,131.334373 L67.2131616,131.334373 C67.0318681,131.196947 66.9560345,130.952856 67.0254547,130.730187 C67.0948749,130.507518 67.2936915,130.357135 67.517575,130.357951 L67.517575,130.357951 C67.7458947,130.363664 67.9506163,130.211607 68.0207376,129.984226 L68.0207376,129.984226 C68.0987897,129.778823 68.2887088,129.644 68.5,129.644 C68.7112912,129.644 68.9012103,129.778823 68.9792624,129.984226 L68.9792624,129.984226 Z" id="Path" fill="#FF5252" opacity="0.3"></path>
            <path d="M35.9792624,18.9842265 L35.9792624,18.9842265 C36.0493837,19.2116067 36.2541053,19.3636639 36.482425,19.3579513 L36.482425,19.3579513 C36.7063085,19.3571349 36.9051251,19.5075182 36.9745453,19.730187 C37.0439655,19.9528558 36.9681319,20.1969471 36.7868384,20.3343732 L36.7868384,20.3343732 C36.6058009,20.4713155 36.5296287,20.7146235 36.5981525,20.9370702 L36.5981525,20.9370702 C36.667625,21.1597531 36.5918098,21.4038912 36.4104995,21.5413448 C36.2291893,21.6787983 35.983811,21.678161 35.8031555,21.5397673 L35.8031555,21.5397673 C35.6223902,21.4023683 35.3776098,21.4023683 35.1968445,21.5397673 L35.1968445,21.5397673 C35.016189,21.678161 34.7708107,21.6787983 34.5895005,21.5413448 C34.4081902,21.4038912 34.332375,21.1597531 34.4018475,20.9370702 L34.4018475,20.9370702 C34.4703713,20.7146235 34.3941991,20.4713155 34.2131616,20.3343732 L34.2131616,20.3343732 C34.0318681,20.1969471 33.9560345,19.9528558 34.0254547,19.730187 C34.0948749,19.5075182 34.2936915,19.3571349 34.517575,19.3579513 L34.517575,19.3579513 C34.7458947,19.3636639 34.9506163,19.2116067 35.0207376,18.9842265 L35.0207376,18.9842265 C35.0987897,18.7788231 35.2887088,18.6440004 35.5,18.6440004 C35.7112912,18.6440004 35.9012103,18.7788231 35.9792624,18.9842265 Z" id="Path" fill="#FF5252" opacity="0.3"></path>
            <path d="M110.979262,1.98422649 L110.979262,1.98422649 C111.049384,2.21160666 111.254105,2.36366395 111.482425,2.3579513 L111.482425,2.3579513 C111.706308,2.35713491 111.905125,2.50751822 111.974545,2.73018702 C112.043965,2.95285582 111.968132,3.19694715 111.786838,3.33437316 L111.786838,3.33437316 C111.605801,3.47131554 111.529629,3.71462347 111.598152,3.93707021 L111.598152,3.93707021 C111.667625,4.1597531 111.59181,4.40389123 111.4105,4.54134477 C111.229189,4.67879831 110.983811,4.67816097 110.803155,4.53976726 L110.803155,4.53976726 C110.62239,4.40236834 110.37761,4.40236834 110.196845,4.53976726 L110.196845,4.53976726 C110.016189,4.67816097 109.770811,4.67879831 109.5895,4.54134477 C109.40819,4.40389123 109.332375,4.1597531 109.401848,3.93707021 L109.401848,3.93707021 C109.470371,3.71462347 109.394199,3.47131554 109.213162,3.33437316 L109.213162,3.33437316 C109.031868,3.19694715 108.956035,2.95285582 109.025455,2.73018702 C109.094875,2.50751822 109.293692,2.35713491 109.517575,2.3579513 L109.517575,2.3579513 C109.745895,2.36366395 109.950616,2.21160666 110.020738,1.98422649 L110.020738,1.98422649 C110.09879,1.77882306 110.288709,1.6440004 110.5,1.6440004 C110.711291,1.6440004 110.90121,1.77882306 110.979262,1.98422649 Z" id="Path" fill="#4D8AF0" opacity="0.3"></path>
            <path d="M251.979262,73.9842265 L251.979262,73.9842265 C252.049384,74.2116067 252.254105,74.3636639 252.482425,74.3579513 L252.482425,74.3579513 C252.706308,74.3571349 252.905125,74.5075182 252.974545,74.730187 C253.043965,74.9528558 252.968132,75.1969471 252.786838,75.3343732 L252.786838,75.3343732 C252.605801,75.4713155 252.529629,75.7146235 252.598152,75.9370702 L252.598152,75.9370702 C252.667625,76.1597531 252.59181,76.4038912 252.4105,76.5413448 C252.229189,76.6787983 251.983811,76.678161 251.803155,76.5397673 L251.803155,76.5397673 C251.62239,76.4023683 251.37761,76.4023683 251.196845,76.5397673 L251.196845,76.5397673 C251.016189,76.678161 250.770811,76.6787983 250.5895,76.5413448 C250.40819,76.4038912 250.332375,76.1597531 250.401848,75.9370702 L250.401848,75.9370702 C250.470371,75.7146235 250.394199,75.4713155 250.213162,75.3343732 L250.213162,75.3343732 C250.031868,75.1969471 249.956035,74.9528558 250.025455,74.730187 C250.094875,74.5075182 250.293692,74.3571349 250.517575,74.3579513 L250.517575,74.3579513 C250.745895,74.3636639 250.950616,74.2116067 251.020738,73.9842265 L251.020738,73.9842265 C251.09879,73.7788231 251.288709,73.6440004 251.5,73.6440004 C251.711291,73.6440004 251.90121,73.7788231 251.979262,73.9842265 Z" id="Path" fill="#4D8AF0" opacity="0.3"></path>
        </g>
    </g>
</svg>