<svg xmlns="http://www.w3.org/2000/svg" width="168" height="163" viewBox="0 0 168 163">
    <g fill="none" fill-rule="evenodd">
        <g>
            <g>
                <g>
                    <path fill="#A6D9FA" d="M80.11 53.91l-33.612 58.213c-1.62 2.814.414 6.342 3.666 6.342h67.218c3.252 0 5.286-3.528 3.66-6.342L87.436 53.91c-1.632-2.82-5.7-2.82-7.326 0" transform="translate(-1009 -1558) translate(853 1438) translate(156 120)"/>
                    <path stroke="#0083CE" stroke-linejoin="round" stroke-width="6" d="M80.11 53.91l-33.612 58.213c-1.62 2.814.414 6.342 3.666 6.342h67.218c3.252 0 5.286-3.528 3.66-6.342L87.436 53.91c-1.632-2.82-5.7-2.82-7.326 0z" transform="translate(-1009 -1558) translate(853 1438) translate(156 120)"/>
                    <path stroke="#0083CE" stroke-linejoin="round" stroke-width="6" d="M149.157 27.925L18.381 27.925 18.381 34.987 18.381 43.723 18.381 120.409 18.381 144.463 149.163 144.463 149.163 43.723 149.163 34.987 149.163 27.925z" transform="translate(-1009 -1558) translate(853 1438) translate(156 120)"/>
                    <path stroke="#0083CE" stroke-width="6" d="M32.134 37.057L28.834 37.057 28.834 40.357" transform="translate(-1009 -1558) translate(853 1438) translate(156 120)"/>
                    <path stroke="#0083CE" stroke-dasharray="7.026 7.026" stroke-width="6" d="M28.835 47.38v80.779" transform="translate(-1009 -1558) translate(853 1438) translate(156 120)"/>
                    <path stroke="#0083CE" stroke-width="6" d="M28.835 131.674L28.835 134.974 32.135 134.974" transform="translate(-1009 -1558) translate(853 1438) translate(156 120)"/>
                    <path stroke="#0083CE" stroke-dasharray="6.888 6.888" stroke-width="6" d="M39.019 134.972L131.965 134.972" transform="translate(-1009 -1558) translate(853 1438) translate(156 120)"/>
                    <path stroke="#0083CE" stroke-width="6" d="M135.411 134.972L138.711 134.972 138.711 131.672" transform="translate(-1009 -1558) translate(853 1438) translate(156 120)"/>
                    <path stroke="#0083CE" stroke-dasharray="7.026 7.026" stroke-width="6" d="M138.71 124.648V43.87" transform="translate(-1009 -1558) translate(853 1438) translate(156 120)"/>
                    <path stroke="#0083CE" stroke-width="6" d="M138.71 40.358L138.71 37.058 135.41 37.058" transform="translate(-1009 -1558) translate(853 1438) translate(156 120)"/>
                    <path stroke="#0083CE" stroke-dasharray="6.888 6.888" stroke-width="6" d="M128.527 37.057L35.581 37.057" transform="translate(-1009 -1558) translate(853 1438) translate(156 120)"/>
                    <path fill="#A6D9FA" d="M18.388 27.925L149.158 27.925 149.158 18.385 114.784 18.385 18.388 18.385z" transform="translate(-1009 -1558) translate(853 1438) translate(156 120)"/>
                    <path stroke="#0083CE" stroke-linejoin="round" stroke-width="6" d="M18.388 27.925L149.158 27.925 149.158 18.385 114.784 18.385 18.388 18.385z" transform="translate(-1009 -1558) translate(853 1438) translate(156 120)"/>
                    <path stroke="#0083CE" stroke-width="6" d="M140.532 18.385L140.532 27.925M131.907 18.385L131.907 27.925M123.282 18.385L123.282 27.925" transform="translate(-1009 -1558) translate(853 1438) translate(156 120)"/>
                    <path stroke="#0083CE" stroke-linejoin="round" stroke-width="6" d="M30.874 2.999L2.998 2.999 2.998 30.875M136.671 2.999L164.547 2.999 164.547 30.875M164.544 131.975L164.544 159.851 136.668 159.851M3.001 131.975L3.001 159.851 30.877 159.851" transform="translate(-1009 -1558) translate(853 1438) translate(156 120)"/>
                    <path stroke="#0083CE" stroke-width="6" d="M3.001 30.875L3.001 34.175" transform="translate(-1009 -1558) translate(853 1438) translate(156 120)"/>
                    <path stroke="#0083CE" stroke-dasharray="6.3 6.3" stroke-width="6" d="M3.001 40.472L3.001 125.522" transform="translate(-1009 -1558) translate(853 1438) translate(156 120)"/>
                    <path stroke="#0083CE" stroke-width="6" d="M3.001 128.677L3.001 131.977M164.544 30.875L164.544 34.175" transform="translate(-1009 -1558) translate(853 1438) translate(156 120)"/>
                    <path stroke="#0083CE" stroke-dasharray="6.3 6.3" stroke-width="6" d="M164.544 40.472L164.544 125.522" transform="translate(-1009 -1558) translate(853 1438) translate(156 120)"/>
                    <path stroke="#0083CE" stroke-width="6" d="M164.544 128.677L164.544 131.977M138.71 2.999L135.41 2.999" transform="translate(-1009 -1558) translate(853 1438) translate(156 120)"/>
                    <path stroke="#0083CE" stroke-dasharray="6.75 6.75" stroke-width="6" d="M128.661 2.999L37.545 2.999" transform="translate(-1009 -1558) translate(853 1438) translate(156 120)"/>
                    <path stroke="#0083CE" stroke-width="6" d="M34.173 2.999L30.873 2.999M137.69 159.848L134.39 159.848" transform="translate(-1009 -1558) translate(853 1438) translate(156 120)"/>
                    <path stroke="#0083CE" stroke-dasharray="6.75 6.75" stroke-width="6" d="M127.642 159.848L36.526 159.848" transform="translate(-1009 -1558) translate(853 1438) translate(156 120)"/>
                    <path stroke="#0083CE" stroke-width="6" d="M33.153 159.848L29.853 159.848M83.773 71.548L83.773 97.57M83.773 103.997L83.773 110.903" transform="translate(-1009 -1558) translate(853 1438) translate(156 120)"/>
                </g>
            </g>
        </g>
    </g>
</svg>
