<svg xmlns="http://www.w3.org/2000/svg" width="70" height="92" viewBox="0 0 70 92">
    <defs>
        <filter id="nt0v8kp8ga">
            <feColorMatrix in="SourceGraphic" values="0 0 0 0 0.000000 0 0 0 0 0.513725 0 0 0 0 0.807843 0 0 0 1.000000 0"/>
        </filter>
    </defs>
    <g fill="none" fill-rule="evenodd">
        <g filter="url(#nt0v8kp8ga)" transform="translate(-760 -2437)">
            <g fill="#000" fill-rule="nonzero">
                <path d="M34.31 0c-16.374 0-34 3.008-34 9.61v44.966c0 6.39 16.502 9.413 32.411 9.6v12.715c-2.973.63-5.296 2.938-5.93 5.892H1.9c-.877 0-1.588.706-1.588 1.577s.71 1.577 1.587 1.577h24.892C27.54 89.471 30.677 92 34.31 92c3.633 0 6.77-2.53 7.519-6.063h24.89c.876 0 1.586-.706 1.586-1.577 0-.87-.71-1.577-1.587-1.577H41.83c-.635-2.955-2.958-5.263-5.932-5.892V64.18c15.905-.189 32.414-3.214 32.414-9.6V9.612C68.31 3.008 50.685 0 34.31 0zm30.827 32.095c0 2.192-10.88 6.457-30.826 6.457-19.947 0-30.827-4.265-30.827-6.457v-18.1c5.803 3.562 18.655 5.226 30.827 5.226s25.024-1.664 30.826-5.227v18.101zM34.311 3.154c19.946 0 30.826 4.265 30.826 6.456 0 2.192-10.88 6.457-30.826 6.457-19.947 0-30.827-4.266-30.827-6.457 0-2.19 10.88-6.456 30.827-6.456zm4.511 81.209c-.033 2.451-2.04 4.422-4.507 4.424-2.467.002-4.478-1.965-4.515-4.417v-.017c.003-2.476 2.024-4.48 4.516-4.478 2.49.003 4.508 2.012 4.505 4.488h.001zm-4.511-23.327c-19.947 0-30.827-4.265-30.827-6.457v-18.1c5.803 3.563 18.655 5.227 30.827 5.227s25.024-1.664 30.826-5.227v18.1c0 2.192-10.88 6.457-30.826 6.457z" transform="translate(760.69 2437)"/>
                <path d="M11.31 21c-2.022 0-3.845 1.218-4.619 3.087-.774 1.868-.346 4.019 1.085 5.449 1.43 1.43 3.58 1.857 5.449 1.083 1.868-.774 3.086-2.598 3.086-4.62-.003-2.76-2.24-4.996-5-4.999zm0 6.725c-.955 0-1.73-.775-1.73-1.73 0-.957.775-1.731 1.73-1.731.957 0 1.732.774 1.732 1.73 0 .46-.182.901-.506 1.227-.325.325-.766.508-1.225.509v-.005zM22.312 24c-2.023 0-3.846 1.218-4.62 3.086-.774 1.868-.347 4.019 1.083 5.45 1.43 1.43 3.58 1.857 5.449 1.083 1.868-.773 3.087-2.597 3.087-4.62-.004-2.759-2.24-4.995-5-4.999zm0 6.73c-.7 0-1.332-.421-1.6-1.068s-.12-1.392.375-1.887c.495-.495 1.24-.643 1.887-.375.646.268 1.068.9 1.068 1.6-.002.955-.776 1.728-1.73 1.73z" transform="translate(760.69 2437)"/>
            </g>
        </g>
    </g>
</svg>
