<?xml version="1.0" encoding="utf-8"?>
<!-- Generator: Adobe Illustrator 25.0.0, SVG Export Plug-In . SVG Version: 6.00 Build 0)  -->
<svg version="1.1" id="Layer_1" xmlns="http://www.w3.org/2000/svg" xmlns:xlink="http://www.w3.org/1999/xlink" x="0px" y="0px"
	 viewBox="0 0 70 92" style="enable-background:new 0 0 70 92;" xml:space="preserve">
<style type="text/css">
	.st0{fill:#0083CE;}
	.st1{fill:#A6D9FA;}
</style>
<path id="Shape" class="st0" d="M35,0C18.6,0,1,3,1,9.6v45C1,61,17.5,64,33.4,64.2v12.7c-3,0.6-5.3,2.9-5.9,5.9H2.6
	c-0.9,0-1.6,0.7-1.6,1.6s0.7,1.6,1.6,1.6h24.9c0.7,3.5,3.9,6.1,7.5,6.1s6.8-2.5,7.5-6.1h24.9c0.9,0,1.6-0.7,1.6-1.6
	s-0.7-1.6-1.6-1.6H42.5c-0.6-3-3-5.3-5.9-5.9V64.2C52.5,64,69,61,69,54.6v-45C69,3,51.4,0,35,0z M65.8,32.1c0,2.2-10.9,6.5-30.8,6.5
	S4.2,34.3,4.2,32.1V14c5.8,3.6,18.7,5.2,30.8,5.2s25-1.7,30.8-5.2V32.1z M35,3.2c19.9,0,30.8,4.3,30.8,6.5S54.9,16.1,35,16.1
	S4.2,11.8,4.2,9.6S15.1,3.2,35,3.2z M39.5,84.4c0,2.5-2,4.4-4.5,4.4c-2.5,0-4.5-2-4.5-4.4v0c0-2.5,2-4.5,4.5-4.5
	S39.5,81.9,39.5,84.4L39.5,84.4z M35,61c-19.9,0-30.8-4.3-30.8-6.5V36.5C10,40,22.8,41.7,35,41.7s25-1.7,30.8-5.2v18.1
	C65.8,56.8,54.9,61,35,61z"/>
<path id="Shape_1_" class="st1" d="M12,21c-2,0-3.8,1.2-4.6,3.1s-0.3,4,1.1,5.4s3.6,1.9,5.4,1.1C15.8,29.8,17,28,17,26
	C17,23.2,14.8,21,12,21z M12,27.7c-1,0-1.7-0.8-1.7-1.7c0-1,0.8-1.7,1.7-1.7s1.7,0.8,1.7,1.7c0,0.5-0.2,0.9-0.5,1.2
	C12.9,27.5,12.5,27.7,12,27.7L12,27.7z"/>
<path id="Shape_2_" class="st1" d="M23,24c-2,0-3.8,1.2-4.6,3.1c-0.8,1.9-0.3,4,1.1,5.4c1.4,1.4,3.6,1.9,5.4,1.1S28,31,28,29
	C28,26.2,25.8,24,23,24z M23,30.7c-0.7,0-1.3-0.4-1.6-1.1c-0.3-0.6-0.1-1.4,0.4-1.9c0.5-0.5,1.2-0.6,1.9-0.4
	c0.6,0.3,1.1,0.9,1.1,1.6C24.7,30,24,30.7,23,30.7L23,30.7z"/>
</svg>
