<?xml version="1.0" encoding="utf-8"?>
<!-- Generator: Adobe Illustrator 25.0.0, SVG Export Plug-In . SVG Version: 6.00 Build 0)  -->
<svg version="1.1" id="Layer_1" xmlns="http://www.w3.org/2000/svg" xmlns:xlink="http://www.w3.org/1999/xlink" x="0px" y="0px"
	 viewBox="0 0 70 98" style="enable-background:new 0 0 70 98;" xml:space="preserve">
<style type="text/css">
	.st0{fill:#A6D9FA;}
	.st1{fill:#0083CE;}
</style>
<g id="Page-1">
	<g id="VNK-Software-Development" transform="translate(-541.000000, -1091.000000)">
		<g id="Group" transform="translate(541.178879, 1091.000000)">
			<path id="Shape_1_" class="st0" d="M34.8,75c-2.8,0-5,2.2-5,5s2.2,5,5,5s5-2.2,5-5S37.6,75,34.8,75z M34.8,81.7
				c-0.9,0-1.7-0.7-1.7-1.7s0.7-1.7,1.7-1.7s1.7,0.7,1.7,1.7S35.7,81.7,34.8,81.7z"/>
		</g>
	</g>
</g>
<g id="Male-Cutomer-service-with-laptop">
	<g>
		<path id="Shape" class="st1" d="M67.5,63.3c-2.5-2.7-2,0.7-2-5.3c0-4.9-3.5-9.2-8.3-10l-14.1-2.7v-4.9c2-1.4,3.6-3.4,4.7-5.6h3.4
			c3.4,0,6.1-2.7,6.1-6.1V18.4c0-3.4-2.7-6.1-6.1-6.1h-2V8.2c0-4.5-3.6-8.2-8.1-8.2C17.5,0.1,17.8-0.4,17,1.1s0.1,2.1,3.1,6.7
			c0.9,1.3,0.7,2.4,0.7,4.5h-2c-3.4,0-6.1,2.7-6.1,6.1v2c0,3.4,2.7,6.1,6.1,6.1h2v2c0,4.7,2.3,9,6.1,11.7v4.9l-14,2.6
			c-4.8,0.9-8.3,5.1-8.3,10c0,6.1,0.4,2.6-2,5.3S0.8,66,3,96.1C3,97.2,3.9,98,5,98H65c1.1,0,2-0.8,2-1.9
			C69.2,65.5,69.9,65.8,67.5,63.3z M51.2,30.7H49c0.2-1.4,0.2-2.7,0.2-4.1h2c2.6,0,2-1.5,2,2C53.2,29.8,52.3,30.7,51.2,30.7z
			 M53.2,18.4v2c0,1.1-0.9,2-2,2h-2v-6.1h2C52.3,16.4,53.2,17.3,53.2,18.4z M41,4.1c2.2,0,4.1,1.8,4.1,4.1v4.1H24.8
			c0-4.1,0.2-4.4-2.3-8.2H41z M18.7,22.5c-1.1,0-2-0.9-2-2v-2c0-1.1,0.9-2,2-2h2v6.1H18.7z M24.8,28.6V16.4h20.3
			c0,13.1,0,12.9-0.2,14.3H37c-1.1,0-2,0.9-2,2c0,1.1,0.9,2,2,2h6.1c-2.6,3.5-7.2,4.9-11.3,3.6S24.8,33,24.8,28.6L24.8,28.6z
			 M39,42.3v3.8c-2.4,1.9-5.7,1.9-8.1,0v-3.8C33.5,43.1,36.4,43.1,39,42.3L39,42.3z M13.6,51.8l14.7-2.7c3.8,3.2,9.4,3.2,13.2,0
			l14.7,2.7c2.9,0.5,5,3.1,5,6.1v3.3H8.6v-3.4C8.6,54.9,10.7,52.4,13.6,51.8L13.6,51.8z M63.2,93.9H6.7L4.9,67.5
			C4.8,67,5,66.4,5.4,66c0.4-0.4,0.9-0.6,1.5-0.6c60.8,0,56.7-0.3,57.6,0.7C65.3,67,65.2,65.4,63.2,93.9z"/>
	</g>
</g>
</svg>
