<svg xmlns="http://www.w3.org/2000/svg" width="250" height="228" viewBox="0 0 250 228">
    <defs>
        <linearGradient id="6xv0388y9a" x1="49.999%" x2="49.999%" y1="100.004%" y2="0%">
            <stop offset="0%" stop-color="gray" stop-opacity=".25"/>
            <stop offset="54%" stop-color="gray" stop-opacity=".12"/>
            <stop offset="100%" stop-color="gray" stop-opacity=".1"/>
        </linearGradient>
        <linearGradient id="9y0nf5368b" x1="0%" x2="100%" y1="49.997%" y2="49.997%">
            <stop offset="0%" stop-color="gray" stop-opacity=".25"/>
            <stop offset="54%" stop-color="gray" stop-opacity=".12"/>
            <stop offset="100%" stop-color="gray" stop-opacity=".1"/>
        </linearGradient>
        <linearGradient id="f74wzizz5c" x1="50%" x2="50%" y1="100%" y2="0%">
            <stop offset="0%" stop-color="gray" stop-opacity=".25"/>
            <stop offset="54%" stop-color="gray" stop-opacity=".12"/>
            <stop offset="100%" stop-color="gray" stop-opacity=".1"/>
        </linearGradient>
        <linearGradient id="wav2jv3o5d" x1="49.999%" x2="49.999%" y1="100.007%" y2="0%">
            <stop offset="0%" stop-color="gray" stop-opacity=".25"/>
            <stop offset="54%" stop-color="gray" stop-opacity=".12"/>
            <stop offset="100%" stop-color="gray" stop-opacity=".1"/>
        </linearGradient>
        <linearGradient id="c6hrqdy52e" x1="50%" x2="50%" y1="100%" y2="0%">
            <stop offset="0%" stop-color="gray" stop-opacity=".25"/>
            <stop offset="54%" stop-color="gray" stop-opacity=".12"/>
            <stop offset="100%" stop-color="gray" stop-opacity=".1"/>
        </linearGradient>
    </defs>
    <g fill="none" fill-rule="evenodd">
        <g>
            <g transform="translate(-718 -1247) translate(718 1247)">
                <g stroke="#2196F3" stroke-width="4" opacity=".404">
                    <g opacity=".3">
                        <path d="M.174.085c.437.245.872.495 1.305.749" transform="translate(35 30) translate(137.037 4.892)"/>
                        <path stroke-dasharray="11.85" d="M4.018 2.364c26.273 16.55 43.82 46.466 43.82 80.624.006 7.935-.954 15.838-2.857 23.524" transform="translate(35 30) translate(137.037 4.892)"/>
                        <path d="M44.608 107.986c-.13.496-.266.99-.405 1.484" transform="translate(35 30) translate(137.037 4.892)"/>
                    </g>
                    <path stroke-dasharray="12" d="M0 88.065C0 47.454 25.729 12.894 61.667 0" opacity=".21" transform="translate(35 30)"/>
                    <path stroke-dasharray="12" d="M137.037 170.718c-13.59 7.427-28.814 11.306-44.278 11.282-30.296 0-57.205-14.596-74.161-37.183" opacity=".5" transform="translate(35 30)"/>
                    <g opacity=".21">
                        <path d="M123.13 80.762c-.143.49-.29.977-.445 1.463" transform="translate(35 30) translate(29.365 24.462)"/>
                        <path stroke-dasharray="11.95" d="M121.696 85.107c-8.9 23.952-31.902 41.014-58.885 41.014C28.123 126.121 0 97.921 0 63.136S28.123.15 62.811.15c13.766-.02 27.155 4.516 38.088 12.904" transform="translate(35 30) translate(29.365 24.462)"/>
                        <path d="M102.1 13.987c.396.32.789.643 1.177.971" transform="translate(35 30) translate(29.365 24.462)"/>
                    </g>
                    <g opacity=".5">
                        <path d="M.005.558C.522.483 1.04.418 1.557.364" transform="translate(35 30) translate(87.116 50.882)"/>
                        <path stroke-dasharray="11.56" d="M4.526.163h.906c12.841 0 24.723 6.697 31.225 17.6 6.503 10.905 6.653 24.384.397 35.426" transform="translate(35 30) translate(87.116 50.882)"/>
                        <path d="M36.299 54.458c-.271.434-.551.859-.841 1.273" transform="translate(35 30) translate(87.116 50.882)"/>
                    </g>
                </g>
                <g transform="translate(20)">
                    <path fill="#4D8AF0" d="M207.177 24.024c-.63-.275-.954-.982-.752-1.641.015-.05.026-.1.03-.151.01-.293-.168-.56-.44-.661-.274-.102-.582-.018-.765.21-.03.041-.055.086-.075.133-.274.633-.977.958-1.634.756-.05-.016-.1-.026-.151-.03-.291-.01-.556.168-.658.442-.102.274-.017.583.21.767.04.03.085.055.132.075.63.276.954.982.753 1.642-.016.049-.026.1-.03.151-.01.292.167.559.44.66.273.103.58.018.764-.21.03-.04.055-.085.075-.133.274-.632.978-.957 1.634-.755.05.016.1.026.151.03.291.01.556-.168.658-.442.102-.275.017-.584-.21-.767-.04-.03-.085-.056-.132-.076z" opacity=".5"/>
                    <path fill="#FDD835" d="M20.08 19.131c-.63-.275-.954-.981-.753-1.641.016-.05.026-.1.03-.151.01-.293-.168-.559-.44-.661-.274-.102-.581-.017-.764.21-.03.042-.056.086-.076.133-.274.633-.977.958-1.634.756-.05-.016-.1-.026-.15-.03-.292-.01-.557.168-.659.442-.102.275-.017.583.21.767.04.03.085.056.132.076.63.275.954.981.753 1.641-.016.05-.026.1-.03.151-.01.293.167.559.44.661.273.102.58.018.764-.21.03-.042.055-.086.075-.133.274-.633.978-.958 1.635-.756.048.016.099.026.15.03.291.01.556-.168.658-.442.102-.274.018-.583-.21-.767-.04-.03-.085-.056-.132-.076zM100.96 132.642c-.63-.275-.954-.982-.753-1.641.016-.05.027-.1.03-.151.01-.293-.167-.56-.44-.661-.273-.102-.58-.018-.764.21-.03.041-.055.086-.075.133-.274.633-.977.958-1.634.756-.05-.016-.1-.026-.151-.03-.291-.01-.556.168-.658.442-.102.274-.017.583.21.767.04.03.085.056.132.075.63.276.954.982.753 1.642-.016.049-.027.1-.03.151-.01.293.167.559.44.66.273.103.58.018.764-.21.03-.04.055-.085.075-.133.274-.632.978-.957 1.634-.755.05.016.1.026.151.03.291.01.556-.168.658-.442.102-.275.017-.584-.21-.767-.04-.03-.085-.056-.132-.076z" opacity=".5"/>
                    <ellipse cx="16.079" cy="143.356" fill="#F55F44" opacity=".493" rx="2.436" ry="2.446"/>
                    <ellipse cx="226.564" cy="116.936" fill="#F55F44" opacity=".5" rx="2.436" ry="2.446"/>
                    <ellipse cx="74.547" cy="225.554" fill="#4D8AF0" opacity=".5" rx="2.436" ry="2.446"/>
                    <ellipse cx="2.436" cy="169.777" fill="#47E6B1" opacity=".5" rx="2.436" ry="2.446"/>
                    <ellipse cx="102.806" cy="2.446" fill="#47E6B1" opacity=".5" rx="2.436" ry="2.446"/>
                    <ellipse cx="178.815" cy="220.661" fill="#47E6B1" opacity=".5" rx="2.436" ry="2.446"/>
                </g>
                <path fill="#039EE0" d="M21 45H126V113H21z" opacity=".2"/>
                <path fill="url(#6xv0388y9a)" d="M0 36H121V105H0z"/>
                <path fill="#FFF" d="M1 46H119V104H1z"/>
                <path fill="url(#9y0nf5368b)" d="M9 51H50V94H9z"/>
                <path fill="#039EE0" d="M11 52H50V93H11z"/>
                <path fill="#FFF" d="M40.71 67.864c-.3-2.467-.713-4.948-1.64-7.248-.929-2.3-2.425-4.428-4.505-5.739-.741-.506-1.6-.807-2.49-.875-1.642-.058-3.134 1.056-3.974 2.475-.284.491-.531 1.003-.741 1.53-1.597.276-2.801 1.625-2.914 3.265-3.527 1.525-5.707 5.16-5.42 9.04.286 3.882 2.975 7.147 6.686 8.121v1.55c-3.944 1.047-6.7 4.659-6.712 8.797V93h17.902v-4.22c-.013-4.138-2.768-7.75-6.713-8.797v-1.55c3.952-1.037 6.713-4.656 6.713-8.8v-.064l1.007 2.275c.958 2.167 1.94 4.495 1.568 6.84 1.833-3.19 1.68-7.148 1.234-10.82z"/>
                <path fill="#039EE0" d="M1 37H119V46H1z"/>
                <path fill="#E0E0E0" d="M64 64H109V67H64z"/>
                <path fill="#F5F5F5" d="M64 77H109V80H64z"/>
                <path fill="#6C63FF" d="M65 70H91V73H65z" opacity=".2"/>
                <path fill="#69F0AE" d="M64 82H82V85H64z" opacity=".2"/>
                <path fill="#1384B7" d="M86 82H104V85H86z"/>
                <path fill="#FF6E40" d="M183 53H243V81H183z" opacity=".2"/>
                <path fill="url(#f74wzizz5c)" d="M175 46H238V76H175z"/>
                <path fill="#FFF" d="M177 47H237V75H177z"/>
                <path fill="#FF6E40" d="M186 53H220V56H186z" opacity=".3"/>
                <path fill="#FF6E40" d="M185 61H203V64H185z"/>
                <path fill="#039EE0" d="M111 171H250V208H111z" opacity=".2"/>
                <path fill="url(#wav2jv3o5d)" d="M102 162H243V202H102z"/>
                <path fill="#FFF" d="M103 163H242V200H103z"/>
                <ellipse cx="137.5" cy="182" fill="url(#c6hrqdy52e)" rx="13.5" ry="14"/>
                <circle cx="137" cy="182" r="12" fill="#039EE0"/>
                <g fill="#6C63FF" opacity=".2">
                    <path d="M.235.115H22.217V4.018H.235zM.235 7.53H60.78V11.433H.235zM.235 14.949H60.78V18.852H.235z" transform="translate(162 172)"/>
                </g>
                <path fill="#FFF" d="M146 176.196L143.274 174 136.088 183.944 132.079 180.713 130 183.589 135.375 187.924 135.389 187.903 136.749 189z"/>
            </g>
        </g>
    </g>
</svg>
