<svg xmlns="http://www.w3.org/2000/svg" width="85" height="85" viewBox="0 0 85 85">
    <defs>
        <linearGradient id="axqmdt1k1a" x1="0%" x2="100%" y1="0%" y2="100%">
            <stop offset="0%" stop-color="#E7EEFF"/>
            <stop offset="100%" stop-color="#DEF5FF"/>
        </linearGradient>
    </defs>
    <g fill="none" fill-rule="evenodd">
        <g fill-rule="nonzero">
            <g>
                <g>
                    <g>
                        <g fill="url(#axqmdt1k1a)" transform="translate(-1195 -2410) translate(265 2147) translate(892 220) translate(38.539 43.48)">
                            <circle cx="41.997" cy="41.997" r="41.997"/>
                        </g>
                        <g>
                            <path fill="#0083CE" d="M37 34h-2v-4.66c0-2.418-1.73-4.49-4.11-4.92L24 23.17v-2.43c.993-.7 1.789-1.643 2.31-2.74H28c1.657 0 3-1.343 3-3v-5c0-1.657-1.343-3-3-3h-1V5c0-2.21-1.79-4-4-4-11.64 0-11.48-.22-11.88.53-.4.75.06 1 1.54 3.27.43.63.34 1.2.34 2.2h-1c-1.657 0-3 1.343-3 3v1c0 1.657 1.343 3 3 3h1v1c.001 2.289 1.122 4.432 3 5.74v2.43l-6.89 1.25C6.73 24.85 5 26.922 5 29.34V34H3c-1.657 0-3 1.343-3 3v9c0 1.657 1.343 3 3 3h34c1.657 0 3-1.343 3-3v-9c0-1.657-1.343-3-3-3zm-20.34-8.92L18.59 27l-1.43 1.43-2.05-3.07 1.55-.28zm6.68 0l1.55.28-2.05 3.07L21.41 27l1.93-1.92zM28 16h-1.08c.084-.663.111-1.332.08-2h1c1.26 0 1-.75 1 1 0 .552-.448 1-1 1zm1-6v1c0 .552-.448 1-1 1h-1V9h1c.552 0 1 .448 1 1zm-6-7c1.105 0 2 .895 2 2v2H15c0-2 .08-2.18-1.13-4H23zm-11 9c-.552 0-1-.448-1-1v-1c0-.552.448-1 1-1h1v3h-1zm3 3V9h10c0 6.42 0 6.32-.1 7H21c-.552 0-1 .448-1 1s.448 1 1 1h3c-1.291 1.722-3.54 2.424-5.581 1.743C16.377 19.063 15 17.153 15 15zm7 6.71v1.88l-2 2-2-2v-1.88c1.305.39 2.695.39 4 0zM7 29.34c0-1.448 1.035-2.69 2.46-2.95l3.5-.64c4.47 6.69 3.38 6.33 7 2.66 3.79 3.8 2.67 3.89 7-2.66l3.5.64c1.456.226 2.533 1.476 2.54 2.95V34h-4v-2c0-.552-.448-1-1-1s-1 .448-1 1v2H13v-2c0-.552-.448-1-1-1s-1 .448-1 1v2H7v-4.66zM38 46c0 .552-.448 1-1 1H3c-.552 0-1-.448-1-1v-9c0-.552.448-1 1-1h34c.552 0 1 .448 1 1v9z" transform="translate(-1195 -2410) translate(265 2147) translate(892 220) translate(38.539 43.48) translate(22.461 18.52)"/>
                            <path fill="#A6D9FA" d="M22.68 40.08l-1.27-.19-.57-1.15c-.184-.285-.5-.457-.84-.457-.34 0-.656.172-.84.457l-.57 1.15c-1.32.19-1.81.16-2 .83-.19.67.21.93 1.16 1.86-.24 1.37-.41 1.77.15 2.18.56.41 1 .09 2.13-.52l1.13.59c.319.172.708.145 1-.068.293-.214.436-.576.37-.932l-.22-1.26.92-.9c.25-.255.333-.628.217-.965-.117-.337-.414-.579-.767-.625zM33.68 40.08l-1.27-.19-.57-1.15c-.184-.285-.5-.457-.84-.457-.34 0-.656.172-.84.457l-.57 1.15c-1.32.19-1.82.16-2 .83-.18.67.26 1 1.16 1.86-.22 1.28-.42 1.76.15 2.18.57.42 1 .06 2.13-.52 1.2.63 1.26.7 1.57.7.278.001.542-.12.722-.333.179-.212.255-.493.208-.767l-.22-1.26.92-.9c.256-.254.343-.632.226-.972-.117-.341-.418-.585-.776-.628zM11.68 40.08l-1.27-.19-.57-1.15c-.184-.285-.5-.457-.84-.457-.34 0-.656.172-.84.457l-.57 1.15c-1.32.19-1.81.16-2 .83-.19.67.21.93 1.16 1.86-.24 1.37-.41 1.77.15 2.18.56.41 1 .1 2.13-.52 1.2.63 1.26.7 1.57.7.278.001.542-.12.722-.333.179-.212.255-.493.208-.767l-.22-1.26.92-.9c.256-.254.343-.632.226-.972-.117-.341-.418-.585-.776-.628z" transform="translate(-1195 -2410) translate(265 2147) translate(892 220) translate(38.539 43.48) translate(22.461 18.52)"/>
                        </g>
                    </g>
                </g>
            </g>
        </g>
    </g>
</svg>
