<?xml version="1.0" encoding="UTF-8"?>
<svg width="40px" height="40px" viewBox="0 0 40 40" version="1.1" xmlns="http://www.w3.org/2000/svg" xmlns:xlink="http://www.w3.org/1999/xlink">
    <title>Facebook</title>
    <g id="Page-1" stroke="none" stroke-width="1" fill="none" fill-rule="evenodd">
        <g id="VNK-Software-Development" transform="translate(-1165.000000, -3485.000000)">
            <g id="Footer" transform="translate(278.000000, 3347.000000)">
                <g id="Our-Address" transform="translate(887.000000, 0.000000)">
                    <g id="Facebook" transform="translate(0.000000, 138.000000)">
                        <circle id="Placeholder" fill="#15425C" cx="20" cy="20" r="20"></circle>
                        <g id="Icon/Social/Facebook" transform="translate(16.000000, 13.000000)" fill="#FFFFFF">
                            <path d="M4.75367591,14 L4.75367591,7.7 L6.65786266,7.7 L6.96888889,4.9 L4.75367591,4.9 L4.75367591,3.5364 C4.75367591,2.8154 4.77201152,2.1 5.77503714,2.1 L6.79096559,2.1 L6.79096559,0.098 C6.79096559,0.0679 5.91832651,0 5.03550099,0 C3.19175383,0 2.03728968,1.1599 2.03728968,3.29 L2.03728968,4.9 L1.40924309e-14,4.9 L1.40924309e-14,7.7 L2.03728968,7.7 L2.03728968,14 L4.75367591,14 Z" id="facebook"></path>
                        </g>
                    </g>
                </g>
            </g>
        </g>
    </g>
</svg>