<?xml version="1.0" encoding="utf-8"?>
<!-- Generator: Adobe Illustrator 25.0.0, SVG Export Plug-In . SVG Version: 6.00 Build 0)  -->
<svg version="1.1" id="Layer_1" xmlns="http://www.w3.org/2000/svg" xmlns:xlink="http://www.w3.org/1999/xlink" x="0px" y="0px"
	 viewBox="0 0 85 85" style="enable-background:new 0 0 85 85;" xml:space="preserve">
<style type="text/css">
	.st0{fill:url(#SVGID_1_);}
	.st1{fill:#A6D9FA;}
	.st2{fill:#0083CE;}
</style>
<g transform="translate(-899 -2445) translate(265 2147) translate(595 253) translate(39.527 45.456)">
	<g>
		
			<linearGradient id="SVGID_1_" gradientUnits="userSpaceOnUse" x1="17.2584" y1="67.7577" x2="18.2584" y2="66.7577" gradientTransform="matrix(83.994 0 0 -83.994 -1449.6272 5691.291)">
			<stop  offset="0" style="stop-color:#E7EEFF"/>
			<stop  offset="1" style="stop-color:#DEF5FF"/>
		</linearGradient>
		<circle class="st0" cx="42" cy="42" r="42"/>
	</g>
</g>
<g>
	<g id="Page-1">
		<g id="VNK-Software-Development" transform="translate(-541.000000, -1091.000000)">
			<g id="Group" transform="translate(541.178879, 1091.000000)">
				<path id="Shape_1_" class="st1" d="M43.5,54.3c-1.4,0-2.6,1.1-2.6,2.6c0,1.4,1.1,2.6,2.6,2.6s2.6-1.1,2.6-2.6
					C46,55.4,44.9,54.3,43.5,54.3z M43.5,57.7c-0.5,0-0.9-0.4-0.9-0.9c0-0.5,0.4-0.9,0.9-0.9s0.9,0.4,0.9,0.9
					C44.3,57.3,43.9,57.7,43.5,57.7z"/>
			</g>
		</g>
	</g>
	<g id="Male-Cutomer-service-with-laptop">
		<g>
			<path id="Shape" class="st2" d="M60.3,48.3c-1.3-1.4-1,0.3-1-2.7c0-2.5-1.8-4.7-4.3-5.1l-7.2-1.4v-2.5c1-0.7,1.9-1.7,2.4-2.9h1.8
				c1.7,0,3.1-1.4,3.1-3.1v-5.2c0-1.7-1.4-3.1-3.1-3.1h-1v-2.1c0-2.3-1.9-4.2-4.1-4.2c-12.1,0-11.9-0.2-12.3,0.6
				c-0.4,0.8,0.1,1.1,1.6,3.4c0.4,0.7,0.4,1.3,0.4,2.3h-1c-1.7,0-3.1,1.4-3.1,3.1v1c0,1.7,1.4,3.1,3.1,3.1h1v1c0,2.4,1.2,4.6,3.1,6
				v2.5l-7.2,1.3c-2.5,0.5-4.3,2.6-4.3,5.1c0,3.1,0.2,1.3-1,2.7c-1.3,1.4-0.9,1.4,0.2,16.8c0,0.5,0.5,1,1,1H59c0.5,0,1-0.4,1-1
				C61.2,49.4,61.5,49.6,60.3,48.3z M51.9,31.6h-1.1c0.1-0.7,0.1-1.4,0.1-2.1h1c1.3,0,1-0.8,1,1C53,31.1,52.5,31.6,51.9,31.6z
				 M53,25.3v1c0,0.6-0.5,1-1,1h-1v-3.1h1C52.5,24.3,53,24.7,53,25.3z M46.7,18c1.1,0,2.1,0.9,2.1,2.1v2.1H38.4
				c0-2.1,0.1-2.3-1.2-4.2H46.7z M35.3,27.4c-0.6,0-1-0.5-1-1v-1c0-0.6,0.5-1,1-1h1v3.1H35.3z M38.4,30.5v-6.3h10.4
				c0,6.7,0,6.6-0.1,7.3h-4c-0.6,0-1,0.5-1,1s0.5,1,1,1h3.1c-1.3,1.8-3.7,2.5-5.8,1.8C39.9,34.8,38.4,32.8,38.4,30.5L38.4,30.5z
				 M45.7,37.6v1.9c-1.2,1-2.9,1-4.1,0v-1.9C42.9,38,44.3,38,45.7,37.6L45.7,37.6z M32.7,42.4l7.5-1.4c2,1.6,4.8,1.6,6.8,0l7.5,1.4
				c1.5,0.3,2.6,1.6,2.6,3.1v1.7h-27v-1.7C30.1,44,31.2,42.7,32.7,42.4L32.7,42.4z M58.1,64H29.2l-1-13.5c0-0.3,0.1-0.6,0.3-0.8
				c0.2-0.2,0.5-0.3,0.8-0.3c31.1,0,29-0.2,29.5,0.3C59.2,50.2,59.1,49.4,58.1,64z"/>
		</g>
	</g>
</g>
</svg>
