<svg xmlns="http://www.w3.org/2000/svg" width="85" height="85" viewBox="0 0 85 85">
    <defs>
        <linearGradient id="pg867wa45a" x1="0%" x2="100%" y1="0%" y2="100%">
            <stop offset="0%" stop-color="#E7EEFF"/>
            <stop offset="100%" stop-color="#DEF5FF"/>
        </linearGradient>
        <filter id="96yecnr4vb">
            <feColorMatrix in="SourceGraphic" values="0 0 0 0 0.000000 0 0 0 0 0.513725 0 0 0 0 0.807843 0 0 0 1.000000 0"/>
        </filter>
    </defs>
    <g fill="none" fill-rule="evenodd">
        <g>
            <g>
                <g>
                    <g>
                        <g fill="url(#pg867wa45a)" fill-rule="nonzero" transform="translate(-899 -2445) translate(265 2147) translate(595 253) translate(39.527 45.456)">
                            <g>
                                <circle cx="41.997" cy="41.997" r="41.997"/>
                            </g>
                        </g>
                        <g>
                            <g filter="url(#96yecnr4vb)" transform="translate(-899 -2445) translate(265 2147) translate(595 253) translate(39.527 45.456) translate(24.37 17.544)">
                                <g>
                                    <path fill="#000" fill-rule="nonzero" d="M34.126 32.303c-1.264-1.374-1.028.333-1.028-2.728.001-2.514-1.771-4.669-4.212-5.121l-7.14-1.354v-2.52c1.021-.727 1.838-1.71 2.374-2.851h1.736c1.702 0 3.082-1.399 3.082-3.123V9.4c0-1.724-1.38-3.123-3.082-3.123h-1.027V4.195c0-2.3-1.84-4.164-4.11-4.164C8.763.031 8.927-.198 8.516.583c-.41.78.062 1.093 1.582 3.404.442.656.35 1.25.35 2.29H9.419c-1.702 0-3.082 1.399-3.082 3.123v1.041c0 1.725 1.38 3.123 3.082 3.123h1.028v1.042c.001 2.382 1.152 4.613 3.081 5.975v2.52L6.44 24.41c-2.44.453-4.213 2.609-4.212 5.123 0 3.123.216 1.322-1.027 2.727-1.243 1.405-.884 1.416.205 16.77.038.547.487.97 1.028.969h30.47c.54.001.989-.422 1.027-.968 1.099-15.636 1.417-15.438.195-16.73zm-8.27-16.656h-1.11c.087-.69.115-1.387.083-2.083h1.027c1.294 0 1.027-.78 1.027 1.042 0 .574-.46 1.04-1.027 1.04zM26.883 9.4v1.041c0 .575-.46 1.041-1.027 1.041h-1.027V8.36h1.027c.567 0 1.027.467 1.027 1.041zM20.72 2.113c1.134 0 2.054.932 2.054 2.082v2.082H12.501c0-2.082.082-2.269-1.16-4.164h9.379zm-11.3 9.37c-.568 0-1.028-.467-1.028-1.042v-1.04c0-.575.46-1.042 1.027-1.042h1.028v3.123H9.419zm3.081 3.123V8.359h10.273c0 6.684 0 6.58-.103 7.288h-4.006c-.567 0-1.027.466-1.027 1.04 0 .575.46 1.042 1.027 1.042h3.082c-1.327 1.792-3.636 2.523-5.734 1.814-2.097-.708-3.512-2.697-3.512-4.937zm7.191 6.985v1.915c-1.206.96-2.903.96-4.109 0v-1.915c1.34.405 2.769.405 4.11 0zM6.81 26.452l7.468-1.363c1.953 1.625 4.767 1.625 6.719 0l7.468 1.363c1.483.275 2.552 1.596 2.527 3.123v1.687H4.282v-1.728c-.004-1.512 1.06-2.81 2.528-3.082zm25.138 21.466H3.328l-.946-13.46c-.02-.289.08-.573.275-.784.194-.211.467-.33.753-.33 30.818 0 28.764-.156 29.206.333.441.49.36-.333-.668 14.241z" transform="translate(.102)"/>
                                </g>
                            </g>
                            <path fill="#A6D9FA" fill-rule="nonzero" d="M17.602 38c-1.38 0-2.5 1.12-2.5 2.5s1.12 2.5 2.5 2.5 2.5-1.12 2.5-2.5-1.12-2.5-2.5-2.5zm0 3.333c-.46 0-.833-.373-.833-.833 0-.46.373-.833.833-.833.46 0 .833.373.833.833 0 .46-.373.833-.833.833z" transform="translate(-899 -2445) translate(265 2147) translate(595 253) translate(39.527 45.456) translate(24.37 17.544)"/>
                        </g>
                    </g>
                </g>
            </g>
        </g>
    </g>
</svg>
