<?xml version="1.0" encoding="UTF-8"?>
<svg width="40px" height="40px" viewBox="0 0 40 40" version="1.1" xmlns="http://www.w3.org/2000/svg" xmlns:xlink="http://www.w3.org/1999/xlink">
    <title>Group 2</title>
    <g id="Page-1" stroke="none" stroke-width="1" fill="none" fill-rule="evenodd">
        <g id="VNK-Software-Development" transform="translate(-1271.000000, -3485.000000)">
            <g id="Footer" transform="translate(278.000000, 3347.000000)">
                <g id="Our-Address" transform="translate(887.000000, 0.000000)">
                    <g id="Social-Button" transform="translate(0.000000, 138.000000)">
                        <g id="Group-2" transform="translate(106.000000, 0.000000)">
                            <circle id="Placeholder" fill="#15425C" cx="20" cy="20" r="20"></circle>
                            <path d="M28,19.9696503 L28,25 L24.998689,25 L24.998689,20.306776 C24.998689,19.1283587 24.5653578,18.3236072 23.4786724,18.3236072 C22.6493893,18.3236072 22.1567436,18.8654007 21.9391827,19.3900117 C21.8601714,19.5774971 21.839803,19.8378451 21.839803,20.1008031 L21.839803,24.9997825 L18.8382682,24.9997825 C18.8382682,24.9997825 18.8785573,17.0510122 18.8382682,16.2282081 L21.8400269,16.2282081 L21.8400269,17.471223 C21.8339835,17.4810105 21.825478,17.4905806 21.8201062,17.4999331 L21.8400269,17.4999331 L21.8400269,17.471223 C22.2388885,16.8748369 22.9502142,16.0222352 24.5449894,16.0222352 C26.5196009,16.0222352 28,17.2759076 28,19.9696503 L28,19.9696503 Z M15.6984076,12 C14.6717081,12 14,12.6548938 14,13.5153254 C14,14.357487 14.6522351,15.0313033 15.6590139,15.0313033 L15.6784869,15.0313033 C16.7253309,15.0313033 17.3762231,14.357487 17.3762231,13.5153254 C17.3563024,12.6548938 16.7253309,12 15.6984076,12 L15.6984076,12 Z M14.178391,25 L17.1788067,25 L17.1788067,16.2282081 L14.178391,16.2282081 L14.178391,25 Z" id="Shape" fill="#FFFFFF" fill-rule="nonzero"></path>
                        </g>
                    </g>
                </g>
            </g>
        </g>
    </g>
</svg>