<svg xmlns="http://www.w3.org/2000/svg" xmlns:xlink="http://www.w3.org/1999/xlink" width="24" height="24" viewBox="0 0 24 24">
    <defs>
        <filter id="tzba089h6a">
            <feColorMatrix in="SourceGraphic" values="0 0 0 0 0.082353 0 0 0 0 0.258824 0 0 0 0 0.360784 0 0 0 1.000000 0"/>
        </filter>
        <path id="9vf9wv2cmb" d="M0 0H24V24H0z"/>
    </defs>
    <g fill="none" fill-rule="evenodd">
        <g filter="url(#tzba089h6a)" transform="translate(-956 -1168)">
            <g transform="translate(956 1168)">
                <mask id="s6y9ge06mc" fill="#fff">
                    <use xlink:href="#9vf9wv2cmb"/>
                </mask>
                <path fill="#2E3A59" d="M2 6c0-1.105.895-2 2-2h16c1.105 0 2 .895 2 2v12c0 1.105-.895 2-2 2H4c-1.105 0-2-.895-2-2V6c0-.736 0-.736 0 0zm18 1.869V18H4V7.869l8 5.333 8-5.333zM19.197 6H4.803L12 10.798 19.197 6z" mask="url(#s6y9ge06mc)"/>
            </g>
        </g>
    </g>
</svg>
