<?xml version="1.0" encoding="utf-8"?>
<!-- Generator: Adobe Illustrator 25.0.0, SVG Export Plug-In . SVG Version: 6.00 Build 0)  -->
<svg version="1.1" id="Layer_1" xmlns="http://www.w3.org/2000/svg" xmlns:xlink="http://www.w3.org/1999/xlink" x="0px" y="0px"
	 viewBox="0 0 104 80" style="enable-background:new 0 0 104 80;" xml:space="preserve">
<style type="text/css">
	.st0{fill:#0083CE;}
	.st1{fill:#A6D9FA;}
</style>
<path id="Shape" class="st0" d="M14,79.1H90c7.5,0,13.6-6.1,13.6-13.6v-3.8c0-1-0.8-1.7-1.8-1.8h-5V10.1c0-5.1-4.1-9.2-9.2-9.2H16.4
	c-5.1,0-9.2,4.1-9.2,9.2V60h-5c-1,0-1.8,0.8-1.8,1.8v3.8C0.5,73.1,6.6,79.1,14,79.1z M10.7,10.1c0-3.1,2.5-5.7,5.7-5.7h71.1
	c3.1,0,5.7,2.5,5.7,5.7V60h-4.6V16.9c0-3.9-3.1-7-7-7H22.3c-3.9,0-7,3.1-7,7V60h-4.6V10.1z M85.2,60H18.8V16.9
	c0-1.9,1.6-3.5,3.5-3.5h59.3c1.9,0,3.5,1.6,3.5,3.5V60z M4,63.5h96v2.1c0,5.6-4.5,10.1-10.1,10.1H14C8.5,75.6,4,71.1,4,65.6L4,63.5z
	"/>
<path id="Path" class="st1" d="M37.9,71.3h28.2c1,0,1.8-0.8,1.8-1.8s-0.8-1.8-1.8-1.8H37.9c-1,0-1.8,0.8-1.8,1.8
	S36.9,71.3,37.9,71.3z"/>
</svg>
