<svg xmlns="http://www.w3.org/2000/svg" width="104" height="80" viewBox="0 0 104 80">
    <defs>
        <filter id="xwocs7s1oa">
            <feColorMatrix in="SourceGraphic" values="0 0 0 0 0.000000 0 0 0 0 0.513725 0 0 0 0 0.807843 0 0 0 1.000000 0"/>
        </filter>
    </defs>
    <g fill="none" fill-rule="evenodd">
        <g filter="url(#xwocs7s1oa)" transform="translate(-1061 -2100)">
            <g fill="#000" fill-rule="nonzero">
                <path d="M14.037 79.142h75.925c7.486-.008 13.552-6.074 13.56-13.56v-3.838c0-.966-.784-1.75-1.75-1.75h-5.017V10.117C96.749 5.047 92.641.94 87.572.934H16.428c-5.07.006-9.177 4.114-9.183 9.183v49.877H2.228c-.966 0-1.75.784-1.75 1.75v3.838c.008 7.485 6.074 13.551 13.559 13.56zm-3.292-69.025c.003-3.137 2.546-5.68 5.683-5.683h71.144c3.137.003 5.68 2.546 5.683 5.683v49.877h-4.58v-43.1c-.007-3.867-3.142-6.998-7.009-7H22.334c-3.867.002-7.002 3.133-7.009 7v43.1h-4.58V10.117zm74.43 49.877h-66.35v-43.1c.005-1.934 1.575-3.5 3.509-3.5h59.332c1.934 0 3.504 1.566 3.509 3.5v43.1zm-81.2 3.5h96.044v2.088c-.007 5.553-4.507 10.053-10.06 10.06H14.037c-5.553-.007-10.053-4.507-10.059-10.06l-.003-2.088z" transform="translate(1061 2100)"/>
                <path d="M37.9 71.318h28.2c.966 0 1.75-.784 1.75-1.75s-.784-1.75-1.75-1.75H37.9c-.966 0-1.75.784-1.75 1.75s.784 1.75 1.75 1.75z" transform="translate(1061 2100)"/>
            </g>
        </g>
    </g>
</svg>
