<svg xmlns="http://www.w3.org/2000/svg" width="62" height="80" viewBox="0 0 62 80">
    <defs>
        <filter id="4s3p53yloa">
            <feColorMatrix in="SourceGraphic" values="0 0 0 0 0.000000 0 0 0 0 0.513725 0 0 0 0 0.807843 0 0 0 1.000000 0"/>
        </filter>
    </defs>
    <g fill="none" fill-rule="evenodd">
        <g filter="url(#4s3p53yloa)" transform="translate(-451 -2094)">
            <g fill="#000" fill-rule="nonzero">
                <path d="M20.583 8h6.667c.92 0 1.667-.895 1.667-2s-.747-2-1.667-2h-6.667c-.92 0-1.666.895-1.666 2s.746 2 1.666 2z" transform="translate(451.083 2094)"/>
                <path d="M54.25 16.667h-6.667v-10C47.583 2.985 44.6 0 40.917 0H7.583C3.901 0 .917 2.985.917 6.667v66.666C.917 77.015 3.9 80 7.583 80h33.334c3.682 0 6.666-2.985 6.666-6.667V46.667h6.667c3.682 0 6.667-2.985 6.667-6.667V23.333c0-3.682-2.985-6.666-6.667-6.666zm-50-10c0-1.841 1.492-3.334 3.333-3.334h33.334c1.84 0 3.333 1.493 3.333 3.334v1.666c-12.5 0-10.867-.5-12.5 1.667h-15c-1.667-2.217 0-1.667-12.5-1.667V6.667zm40 66.666c0 1.841-1.492 3.334-3.333 3.334H7.583c-1.84 0-3.333-1.493-3.333-3.334V70h40v3.333zm0-6.666h-40v-55h9.583c1.667 2.216-.666 1.666 18.75 1.666 1.034 0 1.417-.783 2.084-1.666h9.583v5h-10c-3.682 0-6.667 2.984-6.667 6.666 0 26.95-.316 25.667.734 26.384 1.05.716.883.433 9.583-3.05h6.35v20zM57.583 40c0 1.84-1.492 3.333-3.333 3.333H37.583c-.466 0-.183 0-6.666 2.534V23.333c0-1.84 1.492-3.333 3.333-3.333h20c1.84 0 3.333 1.492 3.333 3.333V40z" transform="translate(451.083 2094)"/>
                <path d="M10.583 53c-.92 0-1.666.895-1.666 2s.746 2 1.666 2H37.25c.92 0 1.667-.895 1.667-2s-.747-2-1.667-2H10.583zM37.25 59H10.583c-.92 0-1.666.895-1.666 2s.746 2 1.666 2H37.25c.92 0 1.667-.895 1.667-2s-.747-2-1.667-2zM11.583 50H23.25c.92 0 1.667-.895 1.667-2s-.747-2-1.667-2H11.583c-.92 0-1.666.895-1.666 2s.746 2 1.666 2zM11.583 44H23.25c.92 0 1.667-.895 1.667-2s-.747-2-1.667-2H11.583c-.92 0-1.666.895-1.666 2s.746 2 1.666 2zM50.553 28.196l-3.94-.6-1.757-3.729c-.292-.536-.838-.867-1.429-.867-.591 0-1.137.331-1.428.867l-1.757 3.73c-4.204.633-4.844.496-5.222 1.71-.377 1.215.18 1.472 3.284 4.585-.706 4.346-1.05 4.962 0 5.715 1.051.752 1.478.222 5.205-1.814C47.302 40 47.171 40 47.696 40c.458-.02.886-.239 1.182-.603.297-.363.434-.84.378-1.313l-.673-4.106 2.857-2.891c.431-.453.585-1.118.399-1.726-.187-.608-.682-1.057-1.286-1.165zm-4.926 7.082c-2.43-1.334-1.97-1.3-4.334 0 .476-2.84.574-2.36-1.33-4.294 2.66-.41 2.298-.12 3.497-2.652 1.215 2.584.87 2.259 3.497 2.652-1.888 1.95-1.888 1.489-1.362 4.294h.032z" transform="translate(451.083 2094)"/>
            </g>
        </g>
    </g>
</svg>
