<?xml version="1.0" encoding="utf-8"?>
<!-- Generator: Adobe Illustrator 25.0.0, SVG Export Plug-In . SVG Version: 6.00 Build 0)  -->
<svg version="1.1" id="Layer_1" xmlns="http://www.w3.org/2000/svg" xmlns:xlink="http://www.w3.org/1999/xlink" x="0px" y="0px"
	 viewBox="0 0 62 80" style="enable-background:new 0 0 62 80;" xml:space="preserve">
<style type="text/css">
	.st0{fill:#0083CE;}
	.st1{fill:#A6D9FA;}
</style>
<path id="Path" class="st0" d="M20.7,8h6.7C28.3,8,29,7.1,29,6s-0.7-2-1.7-2h-6.7C19.7,4,19,4.9,19,6S19.7,8,20.7,8z"/>
<path id="Shape" class="st0" d="M54.3,16.7h-6.7v-10C47.7,3,44.7,0,41,0H7.7C4,0,1,3,1,6.7v66.7C1,77,4,80,7.7,80H41
	c3.7,0,6.7-3,6.7-6.7V46.7h6.7c3.7,0,6.7-3,6.7-6.7V23.3C61,19.7,58,16.7,54.3,16.7z M4.3,6.7c0-1.8,1.5-3.3,3.3-3.3H41
	c1.8,0,3.3,1.5,3.3,3.3v1.7c-12.5,0-10.9-0.5-12.5,1.7h-15c-1.7-2.2,0-1.7-12.5-1.7V6.7z M44.3,73.3c0,1.8-1.5,3.3-3.3,3.3H7.7
	c-1.8,0-3.3-1.5-3.3-3.3V70h40V73.3z M44.3,66.7h-40v-55h9.6c1.7,2.2-0.7,1.7,18.8,1.7c1,0,1.4-0.8,2.1-1.7h9.6v5h-10
	c-3.7,0-6.7,3-6.7,6.7c0,26.9-0.3,25.7,0.7,26.4c1,0.7,0.9,0.4,9.6-3h6.3V66.7z M57.7,40c0,1.8-1.5,3.3-3.3,3.3H37.7
	c-0.5,0-0.2,0-6.7,2.5V23.3c0-1.8,1.5-3.3,3.3-3.3h20c1.8,0,3.3,1.5,3.3,3.3V40z"/>
<path id="Path_1_" class="st1" d="M10.7,53C9.7,53,9,53.9,9,55s0.7,2,1.7,2h26.7c0.9,0,1.7-0.9,1.7-2s-0.7-2-1.7-2H10.7z"/>
<path id="Path_2_" class="st1" d="M37.3,59H10.7C9.7,59,9,59.9,9,61s0.7,2,1.7,2h26.7c0.9,0,1.7-0.9,1.7-2S38.3,59,37.3,59z"/>
<path id="Path_3_" class="st1" d="M11.7,50h11.7c0.9,0,1.7-0.9,1.7-2s-0.7-2-1.7-2H11.7c-0.9,0-1.7,0.9-1.7,2S10.7,50,11.7,50z"/>
<path id="Path_4_" class="st1" d="M11.7,44h11.7c0.9,0,1.7-0.9,1.7-2s-0.7-2-1.7-2H11.7c-0.9,0-1.7,0.9-1.7,2S10.7,44,11.7,44z"/>
<path id="Shape_1_" class="st1" d="M50.6,28.2l-3.9-0.6l-1.8-3.7c-0.3-0.5-0.8-0.9-1.4-0.9s-1.1,0.3-1.4,0.9l-1.8,3.7
	c-4.2,0.6-4.8,0.5-5.2,1.7c-0.4,1.2,0.2,1.5,3.3,4.6c-0.7,4.3-1.1,5,0,5.7c1.1,0.8,1.5,0.2,5.2-1.8c3.8,2.2,3.7,2.2,4.2,2.2
	c0.5,0,0.9-0.2,1.2-0.6c0.3-0.4,0.4-0.8,0.4-1.3L48.7,34l2.9-2.9c0.4-0.5,0.6-1.1,0.4-1.7C51.7,28.8,51.2,28.3,50.6,28.2z
	 M45.7,35.3c-2.4-1.3-2-1.3-4.3,0c0.5-2.8,0.6-2.4-1.3-4.3c2.7-0.4,2.3-0.1,3.5-2.7c1.2,2.6,0.9,2.3,3.5,2.7
	C45.2,32.9,45.2,32.5,45.7,35.3L45.7,35.3z"/>
</svg>
