<svg xmlns="http://www.w3.org/2000/svg" xmlns:xlink="http://www.w3.org/1999/xlink" width="229" height="168" viewBox="0 0 229 168">
    <defs>
        <path id="g4caiyorza" d="M0 167.441L228.81 167.441 228.81 -0.001 0 -0.001z"/>
    </defs>
    <g fill="none" fill-rule="evenodd">
        <g>
            <g transform="translate(-474 -2141) translate(474 2141)">
                <path stroke="#0083CE" stroke-linejoin="round" stroke-width="6" d="M123.626 141.807c0-4.944-4.008-8.952-8.952-8.952s-8.952 4.008-8.952 8.952 4.008 8.958 8.952 8.958 8.952-4.014 8.952-8.958zM91.197 95.931H15.783c-1.626 0-2.946-1.314-2.946-2.94V81.933c0-1.626 1.32-2.94 2.946-2.94h75.414c1.626 0 2.94 1.314 2.94 2.94v11.058c0 1.626-1.314 2.94-2.94 2.94zM91.185 49.507h-75.39c-1.632 0-2.958-1.32-2.958-2.952V35.461c0-1.632 1.326-2.952 2.958-2.952h75.39c1.632 0 2.952 1.32 2.952 2.952v11.094c0 1.632-1.32 2.952-2.952 2.952zM53.489 125.383L53.489 133.129M24.186 141.815L44.352 141.815M62.624 141.815L105.722 141.815M62.445 142.085c0-4.944-4.008-8.958-8.958-8.958-4.944 0-8.952 4.014-8.952 8.958s4.008 8.952 8.952 8.952c4.95 0 8.958-4.008 8.958-8.952z"/>
                <path fill="#A6D9FA" d="M101.647 95.942H5.33c-1.29 0-2.328 1.044-2.328 2.328v24.78c0 1.29 1.038 2.334 2.328 2.334h96.318c1.284 0 2.328-1.044 2.328-2.334V98.27c0-1.284-1.044-2.328-2.328-2.328"/>
                <path stroke="#0083CE" stroke-linejoin="round" stroke-width="6" d="M101.647 95.942H5.33c-1.29 0-2.328 1.044-2.328 2.328v24.78c0 1.29 1.038 2.334 2.328 2.334h96.318c1.284 0 2.328-1.044 2.328-2.334V98.27c0-1.284-1.044-2.328-2.328-2.328z"/>
                <path fill="#A6D9FA" d="M101.647 49.472H5.33c-1.29 0-2.328 1.044-2.328 2.328v24.78c0 1.29 1.038 2.334 2.328 2.334h96.318c1.284 0 2.328-1.044 2.328-2.334V51.8c0-1.284-1.044-2.328-2.328-2.328"/>
                <path stroke="#0083CE" stroke-linejoin="round" stroke-width="6" d="M101.647 49.472H5.33c-1.29 0-2.328 1.044-2.328 2.328v24.78c0 1.29 1.038 2.334 2.328 2.334h96.318c1.284 0 2.328-1.044 2.328-2.334V51.8c0-1.284-1.044-2.328-2.328-2.328z"/>
                <path fill="#A6D9FA" d="M101.647 3.001H5.33c-1.29 0-2.328 1.044-2.328 2.328v24.78c0 1.284 1.038 2.334 2.328 2.334h96.318c1.284 0 2.328-1.05 2.328-2.334V5.33c0-1.284-1.044-2.328-2.328-2.328"/>
                <path stroke="#0083CE" stroke-linejoin="round" stroke-width="6" d="M101.647 3.001H5.33c-1.29 0-2.328 1.044-2.328 2.328v24.78c0 1.284 1.038 2.334 2.328 2.334h96.318c1.284 0 2.328-1.05 2.328-2.334V5.33c0-1.284-1.044-2.328-2.328-2.328z"/>
                <mask id="vsc8jpgykb" fill="#fff">
                    <use xlink:href="#g4caiyorza"/>
                </mask>
                <path stroke="#0083CE" stroke-width="6" d="M34.806 106.805L36.648 106.805 36.648 104.963 34.806 104.963zM52.566 106.805L54.414 106.805 54.414 104.963 52.566 104.963zM17.04 106.805L18.882 106.805 18.882 104.963 17.04 104.963zM70.326 106.805L72.174 106.805 72.174 104.963 70.326 104.963zM88.092 106.805L89.934 106.805 89.934 104.963 88.092 104.963zM34.806 116.363L36.648 116.363 36.648 114.515 34.806 114.515zM52.566 116.363L54.414 116.363 54.414 114.515 52.566 114.515zM17.04 116.363L18.882 116.363 18.882 114.515 17.04 114.515zM70.326 116.363L72.174 116.363 72.174 114.515 70.326 114.515zM88.092 116.363L89.934 116.363 89.934 114.515 88.092 114.515zM34.806 60.341L36.648 60.341 36.648 58.493 34.806 58.493zM52.566 60.341L54.414 60.341 54.414 58.493 52.566 58.493zM17.04 60.341L18.882 60.341 18.882 58.493 17.04 58.493zM70.326 60.341L72.174 60.341 72.174 58.493 70.326 58.493zM88.092 60.341L89.934 60.341 89.934 58.493 88.092 58.493zM34.806 69.893L36.648 69.893 36.648 68.051 34.806 68.051zM52.566 69.893L54.414 69.893 54.414 68.051 52.566 68.051zM17.04 69.893L18.882 69.893 18.882 68.051 17.04 68.051zM70.326 69.893L72.174 69.893 72.174 68.051 70.326 68.051zM88.092 69.893L89.934 69.893 89.934 68.051 88.092 68.051zM34.806 13.463L36.648 13.463 36.648 11.621 34.806 11.621zM52.566 13.463L54.414 13.463 54.414 11.621 52.566 11.621zM17.04 13.463L18.882 13.463 18.882 11.621 17.04 11.621zM70.326 13.463L72.174 13.463 72.174 11.621 70.326 11.621zM88.092 13.463L89.934 13.463 89.934 11.621 88.092 11.621zM34.806 23.021L36.648 23.021 36.648 21.173 34.806 21.173zM52.566 23.021L54.414 23.021 54.414 21.173 52.566 21.173zM17.04 23.021L18.882 23.021 18.882 21.173 17.04 21.173zM70.326 23.021L72.174 23.021 72.174 21.173 70.326 21.173zM88.092 23.021L89.934 23.021 89.934 21.173 88.092 21.173zM43.686 41.879L45.534 41.879 45.534 40.037 43.686 40.037zM61.446 41.879L63.288 41.879 63.288 40.037 61.446 40.037zM25.92 41.879L27.768 41.879 27.768 40.037 25.92 40.037zM79.212 41.879L81.06 41.879 81.06 40.037 79.212 40.037zM43.686 88.349L45.534 88.349 45.534 86.501 43.686 86.501zM61.446 88.349L63.288 88.349 63.288 86.501 61.446 86.501zM25.92 88.349L27.768 88.349 27.768 86.501 25.92 86.501zM79.212 88.349L81.06 88.349 81.06 86.501 79.212 86.501z" mask="url(#vsc8jpgykb)"/>
                <path stroke="#0083CE" stroke-linejoin="round" stroke-width="6" d="M213.034 95.931H137.62c-1.632 0-2.946-1.314-2.946-2.94V81.933c0-1.626 1.314-2.94 2.946-2.94h75.414c1.626 0 2.94 1.314 2.94 2.94v11.058c0 1.626-1.314 2.94-2.94 2.94zM213.022 49.507h-75.39c-1.638 0-2.958-1.32-2.958-2.952V35.461c0-1.632 1.32-2.952 2.958-2.952h75.39c1.626 0 2.952 1.32 2.952 2.952v11.094c0 1.632-1.326 2.952-2.952 2.952zM175.323 125.383L175.323 133.129M123.626 141.815L166.19 141.815M184.458 141.815L204.624 141.815M184.282 142.085c0-4.944-4.014-8.958-8.958-8.958s-8.952 4.014-8.952 8.958 4.008 8.952 8.952 8.952 8.958-4.008 8.958-8.952z" mask="url(#vsc8jpgykb)"/>
                <path fill="#A6D9FA" d="M223.481 95.942h-96.318c-1.29 0-2.328 1.044-2.328 2.328v24.78c0 1.29 1.038 2.334 2.328 2.334h96.318c1.29 0 2.334-1.044 2.334-2.334V98.27c0-1.284-1.044-2.328-2.334-2.328" mask="url(#vsc8jpgykb)"/>
                <path stroke="#0083CE" stroke-linejoin="round" stroke-width="6" d="M223.481 95.942h-96.318c-1.29 0-2.328 1.044-2.328 2.328v24.78c0 1.29 1.038 2.334 2.328 2.334h96.318c1.29 0 2.334-1.044 2.334-2.334V98.27c0-1.284-1.044-2.328-2.334-2.328z" mask="url(#vsc8jpgykb)"/>
                <path fill="#A6D9FA" d="M223.481 49.472h-96.318c-1.29 0-2.328 1.044-2.328 2.328v24.78c0 1.29 1.038 2.334 2.328 2.334h96.318c1.29 0 2.334-1.044 2.334-2.334V51.8c0-1.284-1.044-2.328-2.334-2.328" mask="url(#vsc8jpgykb)"/>
                <path stroke="#0083CE" stroke-linejoin="round" stroke-width="6" d="M223.481 49.472h-96.318c-1.29 0-2.328 1.044-2.328 2.328v24.78c0 1.29 1.038 2.334 2.328 2.334h96.318c1.29 0 2.334-1.044 2.334-2.334V51.8c0-1.284-1.044-2.328-2.334-2.328z" mask="url(#vsc8jpgykb)"/>
                <path fill="#A6D9FA" d="M223.481 3.001h-96.318c-1.29 0-2.328 1.044-2.328 2.328v24.78c0 1.284 1.038 2.334 2.328 2.334h96.318c1.29 0 2.334-1.05 2.334-2.334V5.33c0-1.284-1.044-2.328-2.334-2.328" mask="url(#vsc8jpgykb)"/>
                <path stroke="#0083CE" stroke-linejoin="round" stroke-width="6" d="M223.481 3.001h-96.318c-1.29 0-2.328 1.044-2.328 2.328v24.78c0 1.284 1.038 2.334 2.328 2.334h96.318c1.29 0 2.334-1.05 2.334-2.334V5.33c0-1.284-1.044-2.328-2.334-2.328z" mask="url(#vsc8jpgykb)"/>
                <path stroke="#0083CE" stroke-width="6" d="M156.636 106.805L158.484 106.805 158.484 104.963 156.636 104.963zM174.402 106.805L176.25 106.805 176.25 104.963 174.402 104.963zM138.876 106.805L140.718 106.805 140.718 104.963 138.876 104.963zM192.162 106.805L194.01 106.805 194.01 104.963 192.162 104.963zM209.928 106.805L211.776 106.805 211.776 104.963 209.928 104.963zM156.636 116.363L158.484 116.363 158.484 114.515 156.636 114.515zM174.402 116.363L176.25 116.363 176.25 114.515 174.402 114.515zM138.876 116.363L140.718 116.363 140.718 114.515 138.876 114.515zM192.162 116.363L194.01 116.363 194.01 114.515 192.162 114.515zM209.928 116.363L211.776 116.363 211.776 114.515 209.928 114.515zM156.636 60.341L158.484 60.341 158.484 58.493 156.636 58.493zM174.402 60.341L176.25 60.341 176.25 58.493 174.402 58.493zM138.876 60.341L140.718 60.341 140.718 58.493 138.876 58.493zM192.162 60.341L194.01 60.341 194.01 58.493 192.162 58.493zM209.928 60.341L211.776 60.341 211.776 58.493 209.928 58.493zM156.636 69.893L158.484 69.893 158.484 68.051 156.636 68.051zM174.402 69.893L176.25 69.893 176.25 68.051 174.402 68.051zM138.876 69.893L140.718 69.893 140.718 68.051 138.876 68.051zM192.162 69.893L194.01 69.893 194.01 68.051 192.162 68.051zM209.928 69.893L211.776 69.893 211.776 68.051 209.928 68.051zM156.636 13.463L158.484 13.463 158.484 11.621 156.636 11.621zM174.402 13.463L176.25 13.463 176.25 11.621 174.402 11.621zM138.876 13.463L140.718 13.463 140.718 11.621 138.876 11.621zM192.162 13.463L194.01 13.463 194.01 11.621 192.162 11.621zM209.928 13.463L211.776 13.463 211.776 11.621 209.928 11.621zM156.636 23.021L158.484 23.021 158.484 21.173 156.636 21.173zM174.402 23.021L176.25 23.021 176.25 21.173 174.402 21.173zM138.876 23.021L140.718 23.021 140.718 21.173 138.876 21.173zM192.162 23.021L194.01 23.021 194.01 21.173 192.162 21.173zM209.928 23.021L211.776 23.021 211.776 21.173 209.928 21.173zM165.522 41.879L167.37 41.879 167.37 40.037 165.522 40.037zM183.288 41.879L185.13 41.879 185.13 40.037 183.288 40.037zM147.756 41.879L149.604 41.879 149.604 40.037 147.756 40.037zM201.048 41.879L202.896 41.879 202.896 40.037 201.048 40.037zM165.522 88.349L167.37 88.349 167.37 86.501 165.522 86.501zM183.288 88.349L185.13 88.349 185.13 86.501 183.288 86.501zM147.756 88.349L149.604 88.349 149.604 86.501 147.756 86.501zM201.048 88.349L202.896 88.349 202.896 86.501 201.048 86.501z" mask="url(#vsc8jpgykb)"/>
                <path stroke="#0083CE" stroke-linejoin="round" stroke-width="6" d="M114.673 150.763L114.673 167.437" mask="url(#vsc8jpgykb)"/>
            </g>
        </g>
    </g>
</svg>
