<svg xmlns="http://www.w3.org/2000/svg" width="84" height="84" viewBox="0 0 84 84">
    <g fill="none" fill-rule="evenodd">
        <g fill-rule="nonzero">
            <g>
                <path fill="#A6D9FA" d="M41.724 67.691c14.424 0 26.088-11.678 26.05-26.084-.036-14.406-11.759-26.084-26.184-26.084S15.502 27.2 15.539 41.606c.038 14.406 11.761 26.085 26.185 26.085z" transform="translate(-1092 -1651) translate(1092 1651)"/>
                <path fill="#0083CE" d="M34.925 4.92c.002-.008.003-.016.006-.023.072-.175.177-.332.308-.463L39.257.415c.554-.553 1.452-.553 2.006 0 .553.554.553 1.452 0 2.006l-1.597 1.597H41.6c14.786 0 28.379 8.628 34.63 21.98.332.71.027 1.554-.683 1.886-.194.092-.4.134-.6.134-.534 0-1.045-.301-1.285-.817C67.875 14.841 55.29 6.854 41.6 6.854h-1.934l1.597 1.597c.553.554.553 1.452 0 2.006-.277.276-.64.415-1.003.415-.364 0-.726-.139-1.003-.415l-4.019-4.019c-.13-.131-.236-.289-.308-.463-.003-.007-.004-.015-.006-.022-.063-.16-.1-.334-.1-.517s.037-.356.1-.517zm13.45 72.843c0-.182-.038-.356-.1-.516l-.007-.022c-.072-.175-.177-.333-.308-.464l-4.019-4.018c-.553-.554-1.451-.554-2.005 0-.554.554-.554 1.451 0 2.005l1.597 1.597H41.6c-14.67 0-27.977-9.184-33.117-22.855-.276-.733-1.096-1.102-1.827-.828-.733.277-1.103 1.094-.828 1.828C11.38 69.258 25.756 79.18 41.6 79.18h1.933l-1.597 1.597c-.554.554-.554 1.452 0 2.005.277.277.64.416 1.003.416.363 0 .725-.139 1.003-.416l4.018-4.018c.132-.131.236-.29.308-.463.004-.008.004-.015.007-.023.063-.159.1-.332.1-.516zM5.437 48.376c.182 0 .356-.037.516-.1l.022-.007c.175-.072.333-.177.464-.308l4.018-4.018c.554-.554.554-1.452 0-2.006-.554-.553-1.451-.553-2.005 0l-1.597 1.597V41.6c0-14.298 8.486-27.103 21.619-32.625.722-.303 1.062-1.135.758-1.857-.303-.722-1.134-1.063-1.857-.758C13.187 12.325 4.018 26.158 4.018 41.6v1.934l-1.597-1.597c-.554-.553-1.451-.553-2.005 0-.554.554-.554 1.452 0 2.006l4.018 4.018c.132.131.29.236.464.308l.022.007c.16.063.334.1.517.1zM82.784 37.92l-4.018-4.018c-.132-.132-.29-.236-.464-.308-.007-.004-.015-.004-.022-.007-.16-.063-.334-.1-.517-.1-.182 0-.356.037-.516.1l-.022.007c-.175.072-.333.176-.464.308l-4.018 4.018c-.554.554-.554 1.452 0 2.005.554.554 1.451.554 2.005 0l1.597-1.597V41.6c0 14.38-8.93 27.605-22.223 32.906-.727.29-1.082 1.115-.792 1.842.222.555.754.893 1.317.893.176 0 .353-.032.526-.1C69.533 71.414 79.18 57.13 79.18 41.6v-3.273l1.597 1.597c.277.277.64.415 1.003.415.363 0 .725-.138 1.003-.415.554-.553.554-1.451 0-2.005zm-13.59 3.685c.017 7.34-2.824 14.243-8.005 19.436C56 66.243 49.087 69.11 41.724 69.11c-15.181 0-27.564-12.337-27.603-27.499-.019-7.34 2.824-14.244 8.005-19.437 5.19-5.204 12.102-8.069 19.464-8.069 15.182 0 27.565 12.337 27.603 27.5zM49.192 18.14c2.5 2.868 4.477 7.135 5.658 12.267h8.772c-2.977-5.776-8.161-10.239-14.43-12.267zm3.32 15.103h-9.508v14.976h9.77c.294-2.124.455-4.354.455-6.647 0-2.906-.254-5.714-.717-8.33zM18.022 48.219h9.502c-.27-2.122-.416-4.346-.416-6.647 0-2.916.23-5.712.657-8.33l-9.38.001c-.945 2.646-1.435 5.465-1.428 8.36.006 2.297.335 4.52.931 6.63.045-.004.088-.014.134-.014zm12.378 0h9.77V33.243H30.66c-.463 2.614-.717 5.422-.717 8.329 0 2.294.162 4.523.456 6.647zm.866-17.812h8.903v-13.21c-3.832 1.034-7.152 6.18-8.903 13.21zm-.384 20.649c1.615 7.883 5.155 13.777 9.287 14.892V51.056h-9.287zm21.411 0h-9.288v14.892c4.132-1.115 7.672-7.01 9.288-14.892zm-.385-20.649c-1.75-7.03-5.07-12.176-8.903-13.21v13.21h8.903zm-32.294 0h8.71c1.181-5.136 3.161-9.406 5.664-12.274-3.68 1.186-7.048 3.23-9.854 6.042-1.852 1.857-3.364 3.96-4.52 6.232zm14.392 34.627c-2.78-3.175-4.921-8.077-6.038-13.978H18.87c2.762 6.583 8.298 11.729 15.135 13.978zm30.507-13.978h-9.307c-1.134 5.991-3.324 10.949-6.167 14.119 3.792-1.17 7.263-3.251 10.142-6.137 2.32-2.327 4.116-5.035 5.332-7.982zm1.844-9.445c-.008-2.937-.533-5.754-1.487-8.368h-9.461c.427 2.617.657 5.413.657 8.329 0 2.301-.146 4.525-.416 6.647h9.527c.099 0 .195.013.288.034.59-2.136.898-4.364.892-6.642z" transform="translate(-1092 -1651) translate(1092 1651)"/>
            </g>
        </g>
    </g>
</svg>
