<svg xmlns="http://www.w3.org/2000/svg" xmlns:xlink="http://www.w3.org/1999/xlink" width="234" height="165" viewBox="0 0 234 165">
    <defs>
        <path id="5ib3nxt9da" d="M0 164.218L233.436 164.218 233.436 -0.002 0 -0.002z"/>
    </defs>
    <g fill="none" fill-rule="evenodd">
        <g>
            <g transform="translate(-946 -2702) translate(946 2702)">
                <path stroke="#0083CE" stroke-linejoin="round" stroke-width="6" d="M134.158 148.897l-2.946 3.102H98.59l-2.946-3.102H3.004v3.084c0 5.1 3.936 9.24 8.784 9.24h209.856c4.86 0 8.796-4.14 8.796-9.24v-3.084h-96.282z"/>
                <mask id="3eekj5812b" fill="#fff">
                    <use xlink:href="#5ib3nxt9da"/>
                </mask>
                <path fill="#A6D9FA" d="M51.378 16.27L181.092 16.27 181.092 2.998 51.378 2.998z" mask="url(#3eekj5812b)"/>
                <path stroke="#0083CE" stroke-linejoin="round" stroke-width="6" d="M51.378 16.27L181.092 16.27 181.092 2.998 51.378 2.998zM34.437 38.248h16.938V26.092H34.173c-7.764 0-14.058 6.288-14.058 14.052v107.928h10.968V41.602c0-1.854 1.5-3.354 3.354-3.354zM213.323 40.147c0-7.764-6.294-14.058-14.058-14.058h-18.174V38.25h16.938c1.848 0 3.348 1.5 3.348 3.348v106.47h11.946V40.147z" mask="url(#3eekj5812b)"/>
                <path fill="#A6D9FA" d="M198.03 38.248h-16.937v92.472H51.379V38.248H34.435c-1.848 0-3.348 1.5-3.348 3.354V148.12h170.292V41.602c0-1.854-1.5-3.354-3.348-3.354" mask="url(#3eekj5812b)"/>
                <path stroke="#0083CE" stroke-linejoin="round" stroke-width="6" d="M198.03 38.248h-16.937v92.472H51.379V38.248H34.435c-1.848 0-3.348 1.5-3.348 3.354V148.12h170.292V41.602c0-1.854-1.5-3.354-3.348-3.354z" mask="url(#3eekj5812b)"/>
                <path stroke="#0083CE" stroke-linejoin="round" stroke-width="6" d="M51.376 130.721L181.09 130.721 181.09 38.249 181.09 26.093 181.09 16.271 51.376 16.271 51.376 26.093 51.376 38.249z" mask="url(#3eekj5812b)"/>
                <path stroke="#0083CE" stroke-width="6" d="M169.091 2.998L169.091 16.27M157.091 2.998L157.091 16.27M145.091 2.998L145.091 16.27M41.415 38.248L41.415 41.554" mask="url(#3eekj5812b)"/>
                <path stroke="#0083CE" stroke-dasharray="6.306 6.306" stroke-width="6" d="M41.415 47.864L41.415 132.98" mask="url(#3eekj5812b)"/>
                <path stroke="#0083CE" stroke-width="6" d="M41.415 136.129L41.415 139.441 44.727 139.441" mask="url(#3eekj5812b)"/>
                <path stroke="#0083CE" stroke-dasharray="6.828 6.828" stroke-width="6" d="M51.552 139.44L184.674 139.44" mask="url(#3eekj5812b)"/>
                <path stroke="#0083CE" stroke-width="6" d="M188.087 139.44L191.399 139.44 191.399 136.128" mask="url(#3eekj5812b)"/>
                <path stroke="#0083CE" stroke-dasharray="6.306 6.306" stroke-width="6" d="M191.398 129.824L191.398 44.702" mask="url(#3eekj5812b)"/>
                <path stroke="#0083CE" stroke-width="6" d="M191.398 41.553L191.398 38.247" mask="url(#3eekj5812b)"/>
                <path stroke="#0083CE" stroke-linejoin="round" stroke-width="6" d="M62.872 32.84L84.94 32.84M91.988 32.84L144.308 32.84M62.872 53.213L118.246 53.213M77.052 63.403L95.13 63.403M102.177 63.403L169.089 63.403M62.872 104.782L99.364 104.782M79.319 114.971L97.391 114.971M104.438 114.971L150.206 114.971M116.105 74.313L167.597 74.313M100.753 94.692L142.723 94.692M76.888 43.024L161.74 43.024M62.872 84.502L112.15 84.502M77.04 94.692L93.702 94.692M76.888 74.313L109.054 74.313" mask="url(#3eekj5812b)"/>
            </g>
        </g>
    </g>
</svg>
