<svg xmlns="http://www.w3.org/2000/svg" width="115" height="78" viewBox="0 0 115 78">
    <g fill="none" fill-rule="evenodd">
        <g fill-rule="nonzero">
            <g>
                <path fill="#0083CE" d="M68.17 68.197H48.257c-.99 0-1.791.802-1.791 1.791 0 .99.802 1.791 1.79 1.791H68.17c.99 0 1.791-.802 1.791-1.791 0-.989-.802-1.79-1.79-1.79zm0 0H48.257c-.99 0-1.791.802-1.791 1.791 0 .99.802 1.791 1.79 1.791H68.17c.99 0 1.791-.802 1.791-1.791 0-.989-.802-1.79-1.79-1.79zm19.798-28.681c-.098-.267-2.432-6.62-9.16-7.823-2.895-.535-5.844.276-7.84 2.112-.053.044-.116.089-.178.133l-22.008-8.357c-.098-.223-.187-.508-.267-.918-.766-4.17-2.985-6.843-6.843-8.188-.276-.08-.704-.179-1.123-.268-.213-.044-.427-.08-.588-.124-.187-.098-.392-.17-.606-.196-6.477-.9-10.772 4.054-10.95 4.259-.214.249-.356.552-.41.882l-.116.74c-.151.961.482 1.861 1.435 2.04.882.169 5.337 1.015 5.89 1.078.07.017 1.657.48 1.086 3.332-.196 1.07-.56 1.809-1.069 2.13-.48.302-1.007.169-1.016.169-.08-.018-.16-.036-.24-.045-.437-.062-3.769-.641-5.774-.989-.472-.089-.953.027-1.345.303-.392.276-.65.695-.73 1.167l-.117.74c-.053.303-.026.606.08.89.09.268 2.433 6.63 9.142 7.824 2.905.543 5.863-.267 7.85-2.103.062-.053.116-.098.187-.142l21.999 8.366c.098.214.196.499.276.909.757 4.179 2.976 6.843 6.843 8.188.276.09.695.178 1.105.267.214.045.436.09.597.125.187.098.392.17.606.205.543.071 1.06.107 1.568.107 5.604 0 9.222-4.179 9.39-4.375.215-.25.348-.552.402-.873l.125-.74c.151-.962-.482-1.87-1.435-2.049-.89-.17-5.346-1.007-5.898-1.069-.063-.027-1.658-.481-1.087-3.341.196-1.07.57-1.8 1.069-2.12.481-.304 1.016-.179 1.016-.17.08.018.169.036.25.044.427.054 3.76.633 5.764.99.463.08.962-.027 1.345-.304.392-.276.66-.703.73-1.176l.126-.74c.044-.302.017-.605-.08-.89zm-7.324-1.417c-.605-.142-2.174-.356-3.733.633-1.399.882-2.299 2.397-2.682 4.481-.534 2.673.178 4.41.856 5.4.935 1.345 2.272 1.987 3.207 2.147.214.027 1.319.223 2.709.481-1.319.856-3.243 1.693-5.542 1.462-.357-.134-.775-.223-1.248-.321-.294-.062-.588-.116-.721-.16-2.575-.891-3.903-2.522-4.438-5.445-.213-1.122-.56-1.969-1.104-2.744-.214-.285-.5-.508-.829-.632l-23.255-8.84c-.365-.133-.766-.15-1.14-.044-.758.223-1.4.57-2.032 1.105-.454.419-2.147 1.764-4.82 1.265-2.54-.454-4.197-1.995-5.195-3.332 1.15.196 2.281.383 2.718.454.606.134 2.174.348 3.733-.632 1.399-.882 2.299-2.397 2.682-4.482.534-2.682-.17-4.42-.864-5.417-.927-1.337-2.264-1.978-3.19-2.13-.232-.026-1.363-.231-2.7-.48 1.328-.856 3.252-1.694 5.533-1.47.348.133.766.222 1.23.32.294.062.597.116.74.16 2.574.9 3.902 2.522 4.436 5.453.214 1.114.553 1.96 1.105 2.735.205.295.49.508.82.642l23.264 8.83c.356.142.757.151 1.132.044.748-.213 1.399-.561 2.031-1.096.455-.418 2.156-1.755 4.812-1.265h.017c2.53.455 4.197 1.996 5.186 3.333-1.15-.205-2.281-.392-2.718-.455zm31.613 24.048h-5.453V10.826c0-5.747-4.642-10.247-10.576-10.247h-77.41c-5.747 0-9.765 4.215-9.765 10.247v51.321H1.79C.8 62.147 0 62.95 0 63.938v3.733C0 73.267 4.562 77.83 10.166 77.83h94.518c5.167 0 9.364-4.197 9.364-9.356v-4.535c0-.989-.802-1.79-1.79-1.79zM12.634 10.826c0-4.045 2.433-6.665 6.184-6.665h77.41c3.92 0 6.994 2.931 6.994 6.665v51.321h-3.67c0-.018.008-.035.008-.053V9.614c0-.99-.802-1.791-1.79-1.791H18.086c-.989 0-1.79.802-1.79 1.79v52.48c0 .019.008.036.008.054h-3.67V10.826zm83.345.579v50.742h-76.1V11.405h76.1zm14.487 57.068c0 3.181-2.593 5.774-5.782 5.774H10.166c-3.635 0-6.584-2.95-6.584-6.576V65.73h106.884v2.744zM35.221 40.407c2.905.543 5.863-.267 7.85-2.103.062-.053.116-.098.187-.142l21.999 8.366c.098.214.196.499.276.909.757 4.179 2.976 6.843 6.843 8.188.276.09.695.178 1.105.267.214.045.436.09.597.125.187.098.392.17.606.205.543.071 1.06.107 1.568.107 5.604 0 9.222-4.179 9.39-4.375.215-.25.348-.552.402-.873l.125-.74c.151-.962-.482-1.87-1.435-2.049-.89-.17-5.346-1.007-5.898-1.069-.063-.027-1.658-.481-1.087-3.341.196-1.07.57-1.8 1.069-2.12.481-.304 1.016-.179 1.016-.17.08.018.169.036.25.044.427.054 3.76.633 5.764.99.463.08.962-.027 1.345-.304.392-.276.66-.703.73-1.176l.126-.74c.044-.302.017-.605-.08-.89-.099-.267-2.433-6.62-9.16-7.823-2.896-.535-5.845.276-7.84 2.112-.054.044-.117.089-.18.133l-22.007-8.357c-.098-.223-.187-.508-.267-.918-.766-4.17-2.985-6.843-6.843-8.188-.276-.08-.704-.179-1.123-.268-.213-.044-.427-.08-.588-.124-.187-.098-.392-.17-.606-.196-6.477-.9-10.772 4.054-10.95 4.259-.214.249-.356.552-.41.882l-.116.74c-.151.961.482 1.861 1.435 2.04.882.169 5.337 1.015 5.89 1.078.07.017 1.657.48 1.086 3.332-.196 1.07-.56 1.809-1.069 2.13-.48.302-1.007.169-1.016.169-.08-.018-.16-.036-.24-.045-.437-.062-3.769-.641-5.774-.989-.472-.089-.953.027-1.345.303-.392.276-.65.695-.73 1.167l-.117.74c-.053.303-.026.606.08.89.09.268 2.433 6.63 9.142 7.824zm-1.826-6.398c.606.134 2.174.348 3.733-.632 1.399-.882 2.299-2.397 2.682-4.482.534-2.682-.17-4.42-.864-5.417-.927-1.337-2.264-1.978-3.19-2.13-.232-.026-1.363-.231-2.7-.48 1.328-.856 3.252-1.694 5.533-1.47.348.133.766.222 1.23.32.294.062.597.116.74.16 2.574.9 3.902 2.522 4.436 5.453.214 1.114.553 1.96 1.105 2.735.205.295.49.508.82.642l23.264 8.83c.356.142.757.151 1.132.044.748-.213 1.399-.561 2.031-1.096.455-.418 2.156-1.755 4.812-1.265h.017c2.53.455 4.197 1.996 5.186 3.333-1.15-.205-2.281-.392-2.718-.455-.605-.142-2.174-.356-3.733.633-1.399.882-2.299 2.397-2.682 4.481-.534 2.673.178 4.41.856 5.4.935 1.345 2.272 1.987 3.207 2.147.214.027 1.319.223 2.709.481-1.319.856-3.243 1.693-5.542 1.462-.357-.134-.775-.223-1.248-.321-.294-.062-.588-.116-.721-.16-2.575-.891-3.903-2.522-4.438-5.445-.213-1.122-.56-1.969-1.104-2.744-.214-.285-.5-.508-.829-.632l-23.255-8.84c-.365-.133-.766-.15-1.14-.044-.758.223-1.4.57-2.032 1.105-.454.419-2.147 1.764-4.82 1.265-2.54-.454-4.197-1.995-5.195-3.332 1.15.196 2.281.383 2.718.454zM68.17 68.197H48.257c-.99 0-1.791.802-1.791 1.791 0 .99.802 1.791 1.79 1.791H68.17c.99 0 1.791-.802 1.791-1.791 0-.989-.802-1.79-1.79-1.79zm19.798-28.681c-.098-.267-2.432-6.62-9.16-7.823-2.895-.535-5.844.276-7.84 2.112-.053.044-.116.089-.178.133l-22.008-8.357c-.098-.223-.187-.508-.267-.918-.766-4.17-2.985-6.843-6.843-8.188-.276-.08-.704-.179-1.123-.268-.213-.044-.427-.08-.588-.124-.187-.098-.392-.17-.606-.196-6.477-.9-10.772 4.054-10.95 4.259-.214.249-.356.552-.41.882l-.116.74c-.151.961.482 1.861 1.435 2.04.882.169 5.337 1.015 5.89 1.078.07.017 1.657.48 1.086 3.332-.196 1.07-.56 1.809-1.069 2.13-.48.302-1.007.169-1.016.169-.08-.018-.16-.036-.24-.045-.437-.062-3.769-.641-5.774-.989-.472-.089-.953.027-1.345.303-.392.276-.65.695-.73 1.167l-.117.74c-.053.303-.026.606.08.89.09.268 2.433 6.63 9.142 7.824 2.905.543 5.863-.267 7.85-2.103.062-.053.116-.098.187-.142l21.999 8.366c.098.214.196.499.276.909.757 4.179 2.976 6.843 6.843 8.188.276.09 2.094.561 2.308.597.543.071 1.06.107 1.568.107 5.604 0 9.222-4.179 9.39-4.375.215-.25.348-.552.402-.873l.125-.74c.151-.962-.482-1.87-1.435-2.049-.89-.17-5.346-1.007-5.898-1.069-.063-.027-1.658-.481-1.087-3.341.196-1.07.57-1.8 1.069-2.12.481-.304 1.016-.179 1.016-.17.08.018.169.036.25.044.427.054 3.76.633 5.764.99.463.08.962-.027 1.345-.304.392-.276.66-.703.73-1.176l.126-.74c.044-.302.017-.605-.08-.89zm-7.324-1.417c-.605-.142-2.174-.356-3.733.633-1.399.882-2.299 2.397-2.682 4.481-.534 2.673.178 4.41.856 5.4.935 1.345 2.272 1.987 3.207 2.147.214.027 1.319.223 2.709.481-1.319.856-3.243 1.693-5.542 1.462-.357-.134-.775-.223-1.248-.321-.294-.062-.588-.116-.721-.16-2.575-.891-3.903-2.522-4.438-5.445-.213-1.122-.56-1.969-1.104-2.744-.214-.285-.5-.508-.829-.632l-23.255-8.84c-.365-.133-.766-.15-1.14-.044-.758.223-1.4.57-2.032 1.105-.454.419-2.147 1.764-4.82 1.265-2.54-.454-4.197-1.995-5.195-3.332 1.15.196 2.281.383 2.718.454.606.134 2.174.348 3.733-.632 1.399-.882 2.299-2.397 2.682-4.482.534-2.682-.17-4.42-.864-5.417-.927-1.337-2.264-1.978-3.19-2.13-.232-.026-1.363-.231-2.7-.48 1.328-.856 3.252-1.694 5.533-1.47.348.133.766.222 1.23.32.294.062.597.116.74.16 2.574.9 3.902 2.522 4.436 5.453.214 1.114.553 1.96 1.105 2.735.205.295.49.508.82.642l23.264 8.83c.356.142.757.151 1.132.044.748-.213 1.399-.561 2.031-1.096.455-.418 2.156-1.755 4.812-1.265h.017c2.53.455 4.197 1.996 5.186 3.333-1.15-.205-2.281-.392-2.718-.455z" transform="translate(-794 -1215) translate(794 1215)"/>
                <path fill="#A6D9FA" d="M78.292 50.76c.214.027 1.319.223 2.709.481-1.319.856-3.243 1.693-5.542 1.462-1.506-.134-1.836-.437-1.97-.481-2.574-.891-3.902-2.522-4.437-5.445-.213-1.122-.56-1.969-1.104-2.744-.214-.285-.5-.508-.829-.632l-23.255-8.84c-.365-.133-.766-.15-1.14-.044-.758.223-1.4.57-2.032 1.105-.454.419-2.147 1.764-4.82 1.265-2.54-.454-4.197-1.995-5.195-3.332 1.15.196 2.281.383 2.718.454.606.134 2.174.348 3.733-.632 1.399-.882 2.299-2.397 2.682-4.482.534-2.682-.17-4.42-.864-5.417-.927-1.337-2.264-1.978-3.19-2.13-.232-.026-1.363-.231-2.7-.48 1.328-.856 3.252-1.694 5.533-1.47.348.133.766.222 1.23.32.294.062.597.116.74.16 2.574.9 3.902 2.522 4.436 5.453.214 1.114.553 1.96 1.105 2.735.205.295.49.508.82.642l23.264 8.83c.356.142.757.151 1.132.044.748-.213 1.399-.561 2.031-1.096.455-.418 2.156-1.755 4.812-1.265h.017c2.53.455 4.197 1.996 5.186 3.333-1.15-.205-2.281-.392-2.718-.455-.605-.142-2.174-.356-3.733.633-1.399.882-2.299 2.397-2.682 4.481-.534 2.673.178 4.41.856 5.4.935 1.345 2.272 1.987 3.207 2.147z" transform="translate(-794 -1215) translate(794 1215)"/>
            </g>
        </g>
    </g>
</svg>
