<svg xmlns="http://www.w3.org/2000/svg" xmlns:xlink="http://www.w3.org/1999/xlink" width="24" height="24" viewBox="0 0 24 24">
    <defs>
        <filter id="hsa5s34w0a">
            <feColorMatrix in="SourceGraphic" values="0 0 0 0 0.082353 0 0 0 0 0.258824 0 0 0 0 0.360784 0 0 0 1.000000 0"/>
        </filter>
        <path id="jg8hbmwpgb" d="M0 0H24V24H0z"/>
    </defs>
    <g fill="none" fill-rule="evenodd">
        <g filter="url(#hsa5s34w0a)" transform="translate(-954 -995)">
            <g transform="translate(954 995)">
                <mask id="if1nhhng8c" fill="#fff">
                    <use xlink:href="#jg8hbmwpgb"/>
                </mask>
                <path fill="#2E3A59" d="M16.293 12.293l-1.594 1.594c-.739-.22-2.118-.72-2.992-1.594-.874-.874-1.374-2.253-1.594-2.992l1.594-1.594c.391-.391.391-1.023 0-1.414l-4-4c-.391-.391-1.023-.391-1.414 0L3.581 5.005c-.38.38-.594.902-.586 1.435.023 1.424.4 6.37 4.298 10.268 3.898 3.898 8.844 4.274 10.269 4.298h.028c.528 0 1.027-.208 1.405-.586l2.712-2.712c.391-.391.391-1.023 0-1.414l-4-4.001c-.391-.391-1.023-.391-1.414 0zm-7.586 3c-3.366-3.366-3.692-7.651-3.712-8.874L7 4.414 9.586 7 8.293 8.293c-.239.238-.341.582-.272.912.024.115.611 2.842 2.271 4.502 1.66 1.66 4.387 2.247 4.502 2.271.333.071.674-.032.912-.271L17 14.414 19.586 17l-2.006 2.005c-1.248-.021-5.518-.356-8.873-3.712z" mask="url(#if1nhhng8c)"/>
            </g>
        </g>
    </g>
</svg>
