<?xml version="1.0" encoding="utf-8"?>
<!-- Generator: Adobe Illustrator 25.0.0, SVG Export Plug-In . SVG Version: 6.00 Build 0)  -->
<svg version="1.1" id="Layer_1" xmlns="http://www.w3.org/2000/svg" xmlns:xlink="http://www.w3.org/1999/xlink" x="0px" y="0px"
	 viewBox="0 0 195.9 182.8" style="enable-background:new 0 0 195.9 182.8;" xml:space="preserve">
<style type="text/css">
	.st0{opacity:0.5484;enable-background:new    ;}
	.st1{clip-path:url(#SVGID_2_);}
	.st2{opacity:0.3;clip-path:url(#SVGID_4_);enable-background:new    ;}
	.st3{clip-path:url(#SVGID_6_);}
	.st4{clip-path:url(#SVGID_8_);}
	.st5{fill:#2196F3;}
	.st6{opacity:0.21;clip-path:url(#SVGID_4_);}
	.st7{opacity:0.5;clip-path:url(#SVGID_4_);}
	.st8{opacity:0.21;clip-path:url(#SVGID_10_);enable-background:new    ;}
	.st9{clip-path:url(#SVGID_12_);}
	.st10{clip-path:url(#SVGID_14_);}
	.st11{opacity:0.5;clip-path:url(#SVGID_16_);enable-background:new    ;}
	.st12{clip-path:url(#SVGID_18_);}
	.st13{clip-path:url(#SVGID_20_);}
	.st14{clip-path:url(#SVGID_22_);enable-background:new    ;}
	.st15{clip-path:url(#SVGID_24_);}
	.st16{clip-path:url(#SVGID_26_);}
	.st17{fill:#48DD68;}
	.st18{clip-path:url(#SVGID_28_);}
	.st19{clip-path:url(#SVGID_30_);}
	.st20{fill:#74E270;}
	.st21{clip-path:url(#SVGID_32_);}
	.st22{clip-path:url(#SVGID_34_);}
	.st23{fill:#96E993;}
	.st24{fill:#A1FF9D;}
	.st25{fill:#FFFFFF;}
	.st26{opacity:0.5;enable-background:new    ;}
	.st27{clip-path:url(#SVGID_36_);}
	.st28{clip-path:url(#SVGID_38_);}
	.st29{clip-path:url(#SVGID_40_);}
	.st30{fill:#47E6B1;}
	.st31{clip-path:url(#SVGID_42_);}
	.st32{clip-path:url(#SVGID_44_);}
	.st33{opacity:0.5;clip-path:url(#SVGID_46_);}
	.st34{fill:#4D8AF0;}
	.st35{opacity:0.5;clip-path:url(#SVGID_48_);}
	.st36{fill:#FDD835;}
	.st37{opacity:0.5;clip-path:url(#SVGID_50_);}
	.st38{opacity:0.5;clip-path:url(#SVGID_52_);}
	.st39{fill:#F55F44;}
	.st40{opacity:0.5;clip-path:url(#SVGID_54_);}
	.st41{opacity:0.5;clip-path:url(#SVGID_56_);}
	.st42{opacity:0.5;clip-path:url(#SVGID_58_);}
	.st43{opacity:0.5;clip-path:url(#SVGID_60_);}
	.st44{opacity:0.5;clip-path:url(#SVGID_62_);}
</style>
<g class="st0">
	<g>
		<defs>
			<rect id="SVGID_1_" x="0.2" y="-5.8" width="191" height="207"/>
		</defs>
		<clipPath id="SVGID_2_">
			<use xlink:href="#SVGID_1_"  style="overflow:visible;"/>
		</clipPath>
		<g class="st1">
			<defs>
				<rect id="SVGID_3_" x="2.2" y="1.2" width="193" height="182"/>
			</defs>
			<clipPath id="SVGID_4_">
				<use xlink:href="#SVGID_3_"  style="overflow:visible;"/>
			</clipPath>
			<g class="st2">
				<g>
					<defs>
						<rect id="SVGID_5_" x="137.2" y="16.2" width="54" height="144"/>
					</defs>
					<clipPath id="SVGID_6_">
						<use xlink:href="#SVGID_5_"  style="overflow:visible;"/>
					</clipPath>
					<g class="st3">
						<defs>
							<rect id="SVGID_7_" x="123.2" y="34.2" width="70" height="108"/>
						</defs>
						<clipPath id="SVGID_8_">
							<use xlink:href="#SVGID_7_"  style="overflow:visible;"/>
						</clipPath>
						<g class="st4">
							<path class="st5" d="M149.1,38c-0.3-0.3-0.6-0.6-0.9-0.9l2.2-2.3c0.3,0.3,0.7,0.6,1,1L149.1,38z"/>
						</g>
						<g class="st4">
							<path class="st5" d="M166.3,136.5l-2.8-1.5c1.4-2.7,2.7-5.6,3.8-8.5l3,1.2C169.1,130.7,167.8,133.6,166.3,136.5z
								 M173.3,118.5l-3.1-0.8c0.8-3,1.4-6.1,1.9-9.1l3.2,0.5C174.7,112.2,174.1,115.4,173.3,118.5z M176.1,99.5l-3.2-0.1
								c0-1.1,0.1-2.2,0.1-3.2c0-2-0.1-4-0.2-6l3.2-0.2c0.2,2.1,0.2,4.2,0.2,6.3C176.2,97.2,176.2,98.3,176.1,99.5z M171.6,80.8
								c-0.6-3-1.3-6.1-2.2-9l3.1-0.9c0.9,3.1,1.7,6.2,2.3,9.4L171.6,80.8z M166.1,63.1c-1.2-2.8-2.6-5.6-4.2-8.3l2.8-1.6
								c1.6,2.8,3.1,5.7,4.3,8.6L166.1,63.1z M156.9,47c-1.8-2.5-3.8-4.9-5.9-7.1l2.3-2.2c2.2,2.3,4.3,4.8,6.2,7.4L156.9,47z"/>
						</g>
						<g class="st4">
							<path class="st5" d="M163.8,141.1l-2.7-1.6c0.2-0.4,0.5-0.8,0.7-1.2l2.8,1.6C164.2,140.3,164,140.7,163.8,141.1z"/>
						</g>
					</g>
				</g>
			</g>
			<g class="st6">
				<path class="st5" d="M13.2,76.4l-3.1-0.8c0.8-3.1,1.9-6.3,3.1-9.3l3,1.2C15,70.4,14,73.4,13.2,76.4z M20.1,58.9l-2.8-1.5
					c1.5-2.9,3.2-5.7,5.1-8.4l2.6,1.8C23.2,53.4,21.6,56.1,20.1,58.9z M30.8,43.4l-2.4-2.1c2.1-2.4,4.4-4.8,6.8-7l2.2,2.4
					C35,38.8,32.8,41.1,30.8,43.4z M44.7,30.8l-1.9-2.6c2.6-1.9,5.4-3.7,8.3-5.2l1.6,2.8C49.9,27.3,47.2,29,44.7,30.8z M61.1,21.7
					l-1.2-3c3-1.2,6.1-2.3,9.2-3.2l0.9,3.1C67,19.4,64,20.5,61.1,21.7z M79.2,16.6l-0.5-3.2c1.9-0.3,3.8-0.5,5.7-0.7l0.3,3.2
					C82.8,16.1,81,16.3,79.2,16.6z"/>
			</g>
			<g class="st7">
				<path class="st5" d="M91.3,182.2c-3,0-6.1-0.2-9.1-0.5l0.3-3.2c2.9,0.3,5.8,0.5,8.7,0.5l0.7,0l0,3.2L91.3,182.2z M101.8,181.5
					l-0.4-3.2c3.1-0.4,6.2-1,9.3-1.7l0.8,3.1C108.2,180.5,105,181.1,101.8,181.5z M72.6,180c-1-0.2-2-0.5-3.1-0.8
					c-2.1-0.6-4.3-1.2-6.3-2l1.1-3c2,0.7,4,1.3,6.1,1.9c1,0.3,2,0.5,3,0.7L72.6,180z M54.2,173.5c-2.9-1.4-5.8-3.1-8.5-4.8l1.7-2.7
					c2.6,1.7,5.4,3.3,8.2,4.6L54.2,173.5z M37.8,162.9c-2.5-2.1-4.9-4.3-7.2-6.6l2.3-2.2c2.2,2.3,4.5,4.4,6.9,6.4L37.8,162.9z
					 M24.3,148.9c-2-2.6-3.8-5.3-5.5-8.1l2.8-1.6c1.6,2.7,3.4,5.3,5.3,7.8L24.3,148.9z M14.3,132.1c-0.5-1.1-1-2.3-1.5-3.5l3-1.2
					c0.4,1.1,0.9,2.2,1.4,3.3L14.3,132.1z"/>
			</g>
		</g>
		<g class="st1">
			<defs>
				<rect id="SVGID_9_" x="2.2" y="1.2" width="193" height="182"/>
			</defs>
			<clipPath id="SVGID_10_">
				<use xlink:href="#SVGID_9_"  style="overflow:visible;"/>
			</clipPath>
			<g class="st8">
				<g>
					<defs>
						<rect id="SVGID_11_" x="17.2" y="14.2" width="134" height="164"/>
					</defs>
					<clipPath id="SVGID_12_">
						<use xlink:href="#SVGID_11_"  style="overflow:visible;"/>
					</clipPath>
					<g class="st9">
						<defs>
							<rect id="SVGID_13_" x="20.2" y="25.2" width="141" height="143"/>
						</defs>
						<clipPath id="SVGID_14_">
							<use xlink:href="#SVGID_13_"  style="overflow:visible;"/>
						</clipPath>
						<g class="st10">
							<path class="st5" d="M140.3,128.2l-2.7-1.7c0.2-0.4,0.5-0.7,0.7-1.1l2.7,1.7C140.8,127.4,140.5,127.8,140.3,128.2z"/>
						</g>
						<g class="st10">
							<path class="st5" d="M87.7,154.8c-3.3-0.2-6.5-0.7-9.7-1.5l0.8-3.1c3,0.7,6.1,1.2,9.2,1.4L87.7,154.8z M97.5,154.6l-0.3-3.2
								c3.1-0.3,6.1-0.9,9.1-1.7l0.9,3.1C104,153.6,100.8,154.2,97.5,154.6z M68.7,150.2c-3-1.3-5.9-2.9-8.7-4.6l1.7-2.7
								c2.6,1.7,5.3,3.2,8.2,4.4L68.7,150.2z M116.4,149.3l-1.4-2.9c2.8-1.3,5.5-2.9,8-4.7l1.8,2.6
								C122.2,146.2,119.3,147.9,116.4,149.3z M52.3,139.5c-2.4-2.2-4.6-4.7-6.6-7.3l2.5-1.9c1.9,2.5,4,4.8,6.2,6.9L52.3,139.5z
								 M132.4,138l-2.3-2.3c2.2-2.2,4.2-4.6,6-7.1l2.6,1.9C136.8,133.2,134.7,135.7,132.4,138z M40.4,124c-1.5-2.9-2.8-5.9-3.8-9
								l3-1c1,2.9,2.2,5.8,3.6,8.5L40.4,124z M34.3,105.4c-0.4-2.7-0.6-5.5-0.6-8.3c0-0.5,0-1,0-1.5l3.2,0.1c0,0.5,0,1,0,1.4
								c0,2.6,0.2,5.2,0.6,7.8L34.3,105.4z M38,86.4l-3.1-0.6c0.2-1.3,0.5-2.5,0.9-3.8c0.5-1.9,1.1-3.8,1.8-5.7l3,1.1
								c-0.7,1.7-1.2,3.5-1.7,5.4C38.5,84,38.2,85.2,38,86.4z M44.6,69.1l-2.8-1.6c1.7-2.8,3.6-5.5,5.7-8l2.4,2.1
								C48,63.9,46.1,66.5,44.6,69.1z M132,60.2c-2.1-2.3-4.4-4.4-6.8-6.3l2-2.5c2.6,2,5,4.3,7.2,6.7L132,60.2z M56.5,55.1l-2.1-2.5
								c2.5-2.1,5.2-4,8-5.6l1.6,2.8C61.5,51.3,58.9,53.1,56.5,55.1z M117.5,48.8c-2.7-1.5-5.6-2.7-8.5-3.7l1-3c3.1,1,6.1,2.3,9,3.9
								L117.5,48.8z M72.5,45.8l-1.1-3c3.1-1.1,6.2-2,9.5-2.6l0.6,3.1C78.4,43.8,75.4,44.7,72.5,45.8z M99.9,43
								c-3.1-0.5-6.2-0.7-9.3-0.6l-0.1-3.2c3.3-0.1,6.6,0.2,9.8,0.7L99.9,43z"/>
						</g>
						<g class="st10">
							<path class="st5" d="M136.4,65.7c-0.3-0.4-0.5-0.7-0.8-1.1l2.6-1.9c0.3,0.4,0.5,0.8,0.8,1.1L136.4,65.7z"/>
						</g>
					</g>
				</g>
			</g>
		</g>
		<g class="st1">
			<defs>
				<rect id="SVGID_15_" x="2.2" y="1.2" width="193" height="182"/>
			</defs>
			<clipPath id="SVGID_16_">
				<use xlink:href="#SVGID_15_"  style="overflow:visible;"/>
			</clipPath>
			<g class="st11">
				<g>
					<defs>
						<rect id="SVGID_17_" x="83.2" y="45.2" width="54" height="95"/>
					</defs>
					<clipPath id="SVGID_18_">
						<use xlink:href="#SVGID_17_"  style="overflow:visible;"/>
					</clipPath>
					<g class="st12">
						<defs>
							<rect id="SVGID_19_" x="81.2" y="62.2" width="52" height="61"/>
						</defs>
						<clipPath id="SVGID_20_">
							<use xlink:href="#SVGID_19_"  style="overflow:visible;"/>
						</clipPath>
						<g class="st13">
							<path class="st5" d="M96.1,66.6c-0.4-0.1-0.9-0.1-1.3-0.2l0.4-3.2c0.5,0.1,1,0.1,1.4,0.2L96.1,66.6z"/>
						</g>
						<g class="st13">
							<path class="st5" d="M117.2,117.9l-2.4-2.1c1.9-2.2,3.5-4.7,4.6-7.4l2.9,1.3C121.1,112.7,119.3,115.4,117.2,117.9z
								 M124.9,100.3l-3.2-0.4c0.1-1.1,0.2-2.3,0.2-3.4c0-1.8-0.2-3.6-0.5-5.3l3.1-0.6c0.3,1.9,0.5,3.9,0.5,5.9
								C125.1,97.8,125,99.1,124.9,100.3z M118.6,82.9c-1.3-2.6-3-5-5.1-7.1l2.3-2.2c2.2,2.4,4.1,5,5.6,7.9L118.6,82.9z M106.7,70.4
								c-2.3-1.3-4.8-2.4-7.4-3.1l-0.8-0.2l0.8-3.1l0.8,0.2c2.9,0.8,5.6,1.9,8.2,3.4L106.7,70.4z"/>
						</g>
						<g class="st13">
							<path class="st5" d="M113.6,121.6l-2.1-2.4c0.3-0.3,0.6-0.6,0.9-0.8l2.2,2.3C114.3,121,114,121.3,113.6,121.6z"/>
						</g>
					</g>
				</g>
			</g>
		</g>
	</g>
</g>
<g>
	<defs>
		<path id="SVGID_21_" d="M29.6,1.2h136c6.6,0,12,5.4,12,12v157.6c0,6.6-5.4,12-12,12h-136c-6.6,0-12-5.4-12-12V13.2
			C17.6,6.6,23,1.2,29.6,1.2z"/>
	</defs>
	<clipPath id="SVGID_22_">
		<use xlink:href="#SVGID_21_"  style="overflow:visible;"/>
	</clipPath>
	<g class="st14">
		<g>
			<defs>
				<rect id="SVGID_23_" x="-73.8" y="-121.8" width="272" height="310"/>
			</defs>
			<clipPath id="SVGID_24_">
				<use xlink:href="#SVGID_23_"  style="overflow:visible;"/>
			</clipPath>
			<g class="st15">
				<defs>
					<rect id="SVGID_25_" x="17.2" y="1.2" width="161" height="182"/>
				</defs>
				<clipPath id="SVGID_26_">
					<use xlink:href="#SVGID_25_"  style="overflow:visible;"/>
				</clipPath>
				<g class="st16">
					<rect x="12.6" y="-3.8" class="st17" width="170" height="191.6"/>
				</g>
			</g>
			<g class="st15">
				<defs>
					
						<ellipse id="SVGID_27_" transform="matrix(0.7071 -0.7071 0.7071 0.7071 8.4732 47.781)" cx="61.9" cy="13.7" rx="122" ry="122"/>
				</defs>
				<clipPath id="SVGID_28_">
					<use xlink:href="#SVGID_27_"  style="overflow:visible;"/>
				</clipPath>
				<g class="st18">
					<defs>
						<rect id="SVGID_29_" x="17.2" y="1.2" width="161" height="182"/>
					</defs>
					<clipPath id="SVGID_30_">
						<use xlink:href="#SVGID_29_"  style="overflow:visible;"/>
					</clipPath>
					<g class="st19">
						
							<rect x="-65.1" y="-113.3" transform="matrix(0.2588 -0.9659 0.9659 0.2588 32.6921 69.93)" class="st20" width="254" height="254"/>
					</g>
				</g>
			</g>
			<g class="st15">
				<defs>
					<circle id="SVGID_31_" cx="44.2" cy="-6.8" r="64.4"/>
				</defs>
				<clipPath id="SVGID_32_">
					<use xlink:href="#SVGID_31_"  style="overflow:visible;"/>
				</clipPath>
				<g class="st21">
					<defs>
						<rect id="SVGID_33_" x="17.2" y="1.2" width="161" height="182"/>
					</defs>
					<clipPath id="SVGID_34_">
						<use xlink:href="#SVGID_33_"  style="overflow:visible;"/>
					</clipPath>
					<g class="st22">
						
							<rect x="-25.2" y="-76.2" transform="matrix(0.2588 -0.9659 0.9659 0.2588 39.353 37.6514)" class="st23" width="138.8" height="138.8"/>
					</g>
				</g>
			</g>
		</g>
	</g>
</g>
<g>
	<path class="st24" d="M98.8,130.6c-4.5,0-9.1-0.6-13.5-1.8c-13.4-3.6-24.6-12.2-31.6-24.2c-6.9-12-8.8-26-5.2-39.5
		c3.6-13.4,12.2-24.6,24.2-31.6c12-6.9,26-8.8,39.5-5.2c13.4,3.6,24.6,12.2,31.6,24.2s8.8,26,5.2,39.5
		c-3.6,13.4-12.2,24.6-24.2,31.6C116.7,128.3,107.9,130.6,98.8,130.6z M98.7,42.6c-6.2,0-12.4,1.6-17.9,4.8
		C72.4,52.2,66.5,60,64,69.3c-2.5,9.3-1.2,19,3.6,27.3c4.8,8.3,12.6,14.3,21.9,16.8l0,0c9.3,2.5,19,1.2,27.3-3.6
		s14.3-12.6,16.8-21.9c2.5-9.3,1.2-19-3.6-27.3s-12.6-14.3-21.9-16.8C105,43,101.8,42.6,98.7,42.6z"/>
</g>
<g>
	<path class="st25" d="M98.7,129.8c-27.4,0-50.2-21.8-51.1-49.4L62,79.9c0.7,20.3,17.8,36.2,38.1,35.5c20.3-0.7,36.2-17.8,35.5-38.1
		s-17.8-36.2-38.1-35.5L97,27.4c28.2-1,52,21.2,53,49.4c1,28.2-21.2,52-49.4,53C99.9,129.8,99.3,129.8,98.7,129.8z"/>
</g>
<g>
	<g>
		<path class="st25" d="M91.3,78.7l-5,7.5h-3l3.6-5.3h-0.3c-3.2,0-5.6-2.2-5.6-5.4c0-3.2,2.3-5.4,5.6-5.4s5.5,2.2,5.5,5.4
			C92.3,76.7,92,77.8,91.3,78.7z M86.8,78.4c1.7,0,3-1.1,3-2.9s-1.3-2.9-3-2.9c-1.7,0-3,1.1-3,2.9C83.8,77.3,85.1,78.4,86.8,78.4z"
			/>
	</g>
	<g>
		<path class="st25" d="M103.6,78.7l-5,7.5h-3l3.6-5.3H99c-3.2,0-5.6-2.2-5.6-5.4c0-3.2,2.3-5.4,5.6-5.4s5.5,2.2,5.5,5.4
			C104.5,76.7,104.2,77.8,103.6,78.7z M99,78.4c1.7,0,3-1.1,3-2.9s-1.3-2.9-3-2.9c-1.7,0-3,1.1-3,2.9C96,77.3,97.3,78.4,99,78.4z"/>
	</g>
	<g>
		<path class="st25" d="M106.2,73.8c0-2,1.6-3.6,3.7-3.6c2.1,0,3.7,1.6,3.7,3.6c0,2-1.5,3.6-3.7,3.6
			C107.7,77.3,106.2,75.7,106.2,73.8z M117.8,72.3L119,73l-10.3,11.5l-1.2-0.7L117.8,72.3z M111.4,73.8c0-0.9-0.6-1.6-1.6-1.6
			c-0.9,0-1.6,0.7-1.6,1.6c0,0.9,0.6,1.6,1.6,1.6C110.8,75.4,111.4,74.6,111.4,73.8z M113.3,82.8c0-2,1.6-3.6,3.7-3.6
			c2.1,0,3.7,1.6,3.7,3.6c0,2-1.6,3.6-3.7,3.6C114.9,86.4,113.3,84.8,113.3,82.8z M118.6,82.8c0-0.9-0.6-1.6-1.6-1.6
			c-0.9,0-1.6,0.7-1.6,1.6c0,0.9,0.6,1.6,1.6,1.6C118,84.4,118.6,83.7,118.6,82.8z"/>
	</g>
</g>
<g>
	<g>
		<path class="st25" d="M56.4,151.9l1.4-0.8c0.4,1,1.1,1.7,2.5,1.7c1.3,0,1.9-0.6,1.9-1.3c0-0.9-0.8-1.2-2.3-1.7
			c-1.6-0.5-3.1-1.1-3.1-3c0-1.9,1.5-2.9,3.2-2.9c1.7,0,2.9,0.9,3.5,2.2l-1.4,0.8c-0.4-0.8-1-1.4-2.1-1.4c-1,0-1.6,0.5-1.6,1.3
			c0,0.8,0.6,1.1,2,1.6c1.7,0.5,3.4,1.1,3.4,3.1c0,1.8-1.5,3-3.6,3C58.4,154.4,57,153.4,56.4,151.9z"/>
	</g>
	<g>
		<path class="st25" d="M68.8,153c0.9,0,1.5-0.4,1.9-0.9l1.3,0.7c-0.7,1-1.7,1.6-3.2,1.6c-2.4,0-3.9-1.6-3.9-3.8
			c0-2.1,1.5-3.8,3.8-3.8c2.1,0,3.6,1.7,3.6,3.8c0,0.2,0,0.4-0.1,0.6h-5.7C66.7,152.4,67.6,153,68.8,153z M70.7,150
			c-0.2-1.2-1.1-1.8-2.1-1.8c-1.2,0-2,0.7-2.2,1.8H70.7z"/>
	</g>
	<g>
		<path class="st25" d="M73.2,150.6c0-2.1,1.6-3.8,3.8-3.8c1.4,0,2.6,0.7,3.2,1.9l-1.3,0.8c-0.3-0.7-1-1.1-1.9-1.1
			c-1.3,0-2.2,1-2.2,2.3c0,1.3,1,2.3,2.2,2.3c0.9,0,1.6-0.4,1.9-1.1l1.3,0.8c-0.6,1.1-1.8,1.9-3.2,1.9
			C74.9,154.4,73.2,152.7,73.2,150.6z"/>
	</g>
	<g>
		<path class="st25" d="M87.8,147v7.2h-1.6v-0.9c-0.5,0.7-1.3,1.1-2.2,1.1c-1.6,0-2.8-1.1-2.8-3V147h1.6v4.3c0,1.1,0.6,1.7,1.6,1.7
			c1,0,1.8-0.6,1.8-2.1V147H87.8z"/>
	</g>
	<g>
		<path class="st25" d="M93.4,146.9v1.7c-1-0.1-2.2,0.4-2.2,2v3.6h-1.6V147h1.6v1.2C91.6,147.2,92.5,146.9,93.4,146.9z"/>
	</g>
	<g>
		<path class="st25" d="M94.4,144.9c0-0.5,0.4-1,1-1c0.5,0,1,0.4,1,1c0,0.5-0.4,1-1,1C94.8,145.9,94.4,145.5,94.4,144.9z M94.6,147
			h1.6v7.2h-1.6V147z"/>
	</g>
	<g>
		<path class="st25" d="M100.2,148.5v3.5c0,0.9,0.6,0.9,1.8,0.8v1.4c-2.4,0.3-3.3-0.4-3.3-2.2v-3.5h-1.3V147h1.3v-1.6l1.6-0.5v2h1.8
			v1.5H100.2z"/>
	</g>
	<g>
		<path class="st25" d="M109.9,147l-2.8,7.4c-0.7,1.8-1.9,2.8-3.5,2.7v-1.5c1,0.1,1.6-0.5,1.9-1.4l0.1-0.1l-3.1-7.1h1.7l2.1,5.2
			l1.8-5.2H109.9z"/>
	</g>
	<g>
		<path class="st25" d="M120.4,152.6v1.6h-5.8v-10.1h1.7v8.5H120.4z"/>
	</g>
	<g>
		<path class="st25" d="M125,153c0.9,0,1.5-0.4,1.9-0.9l1.3,0.7c-0.7,1-1.7,1.6-3.2,1.6c-2.4,0-3.9-1.6-3.9-3.8
			c0-2.1,1.5-3.8,3.8-3.8c2.1,0,3.6,1.7,3.6,3.8c0,0.2,0,0.4-0.1,0.6h-5.7C123,152.4,123.9,153,125,153z M127,150
			c-0.2-1.2-1.1-1.8-2.1-1.8c-1.2,0-2,0.7-2.2,1.8H127z"/>
	</g>
	<g>
		<path class="st25" d="M136.5,147l-2.8,7.2h-1.8l-2.8-7.2h1.7l2,5.5l2-5.5H136.5z"/>
	</g>
	<g>
		<path class="st25" d="M141,153c0.9,0,1.5-0.4,1.9-0.9l1.3,0.7c-0.7,1-1.7,1.6-3.2,1.6c-2.4,0-3.9-1.6-3.9-3.8
			c0-2.1,1.5-3.8,3.8-3.8c2.1,0,3.6,1.7,3.6,3.8c0,0.2,0,0.4-0.1,0.6h-5.7C138.9,152.4,139.8,153,141,153z M142.9,150
			c-0.2-1.2-1.1-1.8-2.1-1.8c-1.2,0-2,0.7-2.2,1.8H142.9z"/>
	</g>
	<g>
		<path class="st25" d="M145.8,143.7h1.6v10.5h-1.6V143.7z"/>
	</g>
</g>
<g class="st26">
	<g>
		<defs>
			<rect id="SVGID_35_" x="8.2" y="133.2" width="5" height="5"/>
		</defs>
		<clipPath id="SVGID_36_">
			<use xlink:href="#SVGID_35_"  style="overflow:visible;"/>
		</clipPath>
		<g class="st27">
			<defs>
				
					<rect id="SVGID_37_" x="9" y="135.5" transform="matrix(0.2588 -0.9659 0.9659 0.2588 -123.0858 111.2569)" width="4" height="0.7"/>
			</defs>
			<clipPath id="SVGID_38_">
				<use xlink:href="#SVGID_37_"  style="overflow:visible;"/>
			</clipPath>
			<g class="st28">
				<defs>
					<rect id="SVGID_39_" x="8.2" y="133.2" width="6" height="6"/>
				</defs>
				<clipPath id="SVGID_40_">
					<use xlink:href="#SVGID_39_"  style="overflow:visible;"/>
				</clipPath>
				<g class="st29">
					
						<rect x="4" y="130.5" transform="matrix(0.2588 -0.9659 0.9659 0.2588 -123.0859 111.2577)" class="st30" width="14" height="10.7"/>
				</g>
			</g>
		</g>
		<g class="st27">
			<defs>
				
					<rect id="SVGID_41_" x="10.6" y="133.9" transform="matrix(0.2588 -0.9659 0.9659 0.2588 -123.0852 111.2606)" width="0.7" height="4"/>
			</defs>
			<clipPath id="SVGID_42_">
				<use xlink:href="#SVGID_41_"  style="overflow:visible;"/>
			</clipPath>
			<g class="st31">
				<defs>
					<rect id="SVGID_43_" x="8.2" y="133.2" width="6" height="6"/>
				</defs>
				<clipPath id="SVGID_44_">
					<use xlink:href="#SVGID_43_"  style="overflow:visible;"/>
				</clipPath>
				<g class="st32">
					
						<rect x="5.6" y="128.9" transform="matrix(0.2588 -0.9659 0.9659 0.2588 -123.0851 111.2598)" class="st30" width="10.7" height="14"/>
				</g>
			</g>
		</g>
	</g>
</g>
<g>
	<defs>
		<path id="SVGID_45_" d="M136.1,24.9c-0.4-0.3-0.4-0.8-0.2-1.2c0,0,0-0.1,0-0.1c0.1-0.2,0-0.4-0.2-0.5c-0.2-0.1-0.4-0.1-0.5,0
			c0,0,0,0-0.1,0.1c-0.3,0.4-0.8,0.4-1.2,0.2c0,0-0.1,0-0.1,0c-0.2-0.1-0.4,0-0.5,0.2c-0.1,0.2-0.1,0.4,0,0.5c0,0,0,0,0.1,0.1
			c0.4,0.3,0.4,0.8,0.2,1.2c0,0,0,0.1,0,0.1c-0.1,0.2,0,0.4,0.2,0.5c0.2,0.1,0.4,0.1,0.5,0c0,0,0,0,0.1-0.1c0.3-0.4,0.8-0.4,1.2-0.2
			c0,0,0.1,0,0.1,0c0.2,0.1,0.4,0,0.5-0.2C136.3,25.3,136.3,25.1,136.1,24.9C136.1,24.9,136.1,24.9,136.1,24.9z"/>
	</defs>
	<clipPath id="SVGID_46_">
		<use xlink:href="#SVGID_45_"  style="overflow:visible;"/>
	</clipPath>
	<g class="st33">
		
			<rect x="128.2" y="17.9" transform="matrix(0.2588 -0.9659 0.9659 0.2588 76.2466 148.3549)" class="st34" width="13.2" height="13.2"/>
	</g>
</g>
<g>
	<defs>
		<path id="SVGID_47_" d="M44.5,23.5c-0.4-0.3-0.4-0.8-0.2-1.2c0,0,0-0.1,0-0.1c0.1-0.2,0-0.4-0.2-0.5c-0.2-0.1-0.4-0.1-0.5,0
			c0,0,0,0-0.1,0.1c-0.3,0.4-0.8,0.4-1.2,0.2c0,0-0.1,0-0.1,0c-0.2-0.1-0.4,0-0.5,0.2c-0.1,0.2-0.1,0.4,0,0.5c0,0,0,0,0.1,0.1
			c0.4,0.3,0.4,0.8,0.2,1.2c0,0,0,0.1,0,0.1c-0.1,0.2,0,0.4,0.2,0.5c0.2,0.1,0.4,0.1,0.5,0c0,0,0,0,0.1-0.1c0.3-0.4,0.8-0.4,1.2-0.2
			c0,0,0.1,0,0.1,0c0.2,0.1,0.4,0,0.5-0.2C44.7,24,44.7,23.8,44.5,23.5C44.6,23.6,44.5,23.5,44.5,23.5z"/>
	</defs>
	<clipPath id="SVGID_48_">
		<use xlink:href="#SVGID_47_"  style="overflow:visible;"/>
	</clipPath>
	<g class="st35">
		
			<rect x="36.6" y="16.5" transform="matrix(0.2588 -0.9659 0.9659 0.2588 9.6759 58.9054)" class="st36" width="13.2" height="13.2"/>
	</g>
</g>
<g>
	<defs>
		<path id="SVGID_49_" d="M20.6,85c-0.4-0.3-0.4-0.8-0.2-1.2c0,0,0-0.1,0-0.1c0.1-0.2,0-0.4-0.2-0.5c-0.2-0.1-0.4-0.1-0.5,0
			c0,0,0,0-0.1,0.1c-0.3,0.4-0.8,0.4-1.2,0.2c0,0-0.1,0-0.1,0c-0.2-0.1-0.4,0-0.5,0.2c-0.1,0.2-0.1,0.4,0,0.5c0,0,0,0,0.1,0.1
			c0.4,0.3,0.4,0.8,0.2,1.2c0,0,0,0.1,0,0.1c-0.1,0.2,0,0.4,0.2,0.5c0.2,0.1,0.4,0.1,0.5,0c0,0,0,0,0.1-0.1c0.3-0.4,0.8-0.4,1.2-0.2
			c0,0,0.1,0,0.1,0c0.2,0.1,0.4,0,0.5-0.2C20.8,85.5,20.8,85.3,20.6,85C20.6,85.1,20.6,85,20.6,85z"/>
	</defs>
	<clipPath id="SVGID_50_">
		<use xlink:href="#SVGID_49_"  style="overflow:visible;"/>
	</clipPath>
	<g class="st37">
		
			<rect x="12.7" y="78" transform="matrix(0.2588 -0.9659 0.9659 0.2588 -67.4687 81.3714)" class="st36" width="13.2" height="13.2"/>
	</g>
</g>
<g>
	<defs>
		<path id="SVGID_51_" d="M3.6,59.7c0.9,0.2,1.7-0.3,2-1.1s-0.3-1.7-1.1-2s-1.7,0.3-2,1.1C2.2,58.6,2.7,59.5,3.6,59.7z"/>
	</defs>
	<clipPath id="SVGID_52_">
		<use xlink:href="#SVGID_51_"  style="overflow:visible;"/>
	</clipPath>
	<g class="st38">
		
			<rect x="-2.6" y="51.6" transform="matrix(0.2588 -0.9659 0.9659 0.2588 -53.236 47.0107)" class="st39" width="13.2" height="13.2"/>
	</g>
</g>
<g>
	<defs>
		<path id="SVGID_53_" d="M193.9,66.8c0.9,0.2,1.7-0.3,2-1.1c0.2-0.9-0.3-1.7-1.1-2c-0.9-0.2-1.7,0.3-2,1.1
			C192.5,65.7,193,66.6,193.9,66.8z"/>
	</defs>
	<clipPath id="SVGID_54_">
		<use xlink:href="#SVGID_53_"  style="overflow:visible;"/>
	</clipPath>
	<g class="st40">
		
			<rect x="187.7" y="58.7" transform="matrix(0.2588 -0.9659 0.9659 0.2588 80.9333 236.0266)" class="st39" width="13.2" height="13.2"/>
	</g>
</g>
<g>
	<defs>
		<path id="SVGID_55_" d="M173.1,110.1c0.9,0.2,1.7-0.3,2-1.1c0.2-0.9-0.3-1.7-1.1-2c-0.9-0.2-1.7,0.3-2,1.1
			C171.8,109,172.3,109.9,173.1,110.1z"/>
	</defs>
	<clipPath id="SVGID_56_">
		<use xlink:href="#SVGID_55_"  style="overflow:visible;"/>
	</clipPath>
	<g class="st41">
		
			<rect x="166.9" y="102" transform="matrix(0.2588 -0.9659 0.9659 0.2588 23.7405 248.1196)" class="st34" width="13.2" height="13.2"/>
	</g>
</g>
<g>
	<defs>
		
			<ellipse id="SVGID_57_" transform="matrix(0.4283 -0.9036 0.9036 0.4283 -9.8719 31.4601)" cx="19.9" cy="23.5" rx="1.6" ry="1.6"/>
	</defs>
	<clipPath id="SVGID_58_">
		<use xlink:href="#SVGID_57_"  style="overflow:visible;"/>
	</clipPath>
	<g class="st42">
		
			<rect x="13.3" y="16.9" transform="matrix(0.2588 -0.9659 0.9659 0.2588 -7.9599 36.6908)" class="st30" width="13.2" height="13.2"/>
	</g>
</g>
<g>
	<defs>
		<path id="SVGID_59_" d="M161.9,176.7c0.9,0.2,1.7-0.3,2-1.1s-0.3-1.7-1.1-2c-0.9-0.2-1.7,0.3-2,1.1
			C160.6,175.6,161.1,176.5,161.9,176.7z"/>
	</defs>
	<clipPath id="SVGID_60_">
		<use xlink:href="#SVGID_59_"  style="overflow:visible;"/>
	</clipPath>
	<g class="st43">
		
			<rect x="155.7" y="168.6" transform="matrix(0.2588 -0.9659 0.9659 0.2588 -48.867 286.6291)" class="st30" width="13.2" height="13.2"/>
	</g>
</g>
<g>
	<defs>
		<path id="SVGID_61_" d="M186.5,134.4c0.9,0.2,1.7-0.3,2-1.1c0.2-0.9-0.3-1.7-1.1-2c-0.9-0.2-1.7,0.3-2,1.1
			S185.6,134.2,186.5,134.4z"/>
	</defs>
	<clipPath id="SVGID_62_">
		<use xlink:href="#SVGID_61_"  style="overflow:visible;"/>
	</clipPath>
	<g class="st44">
		
			<rect x="180.3" y="126.3" transform="matrix(0.2588 -0.9659 0.9659 0.2588 10.1893 279.0351)" class="st30" width="13.2" height="13.2"/>
	</g>
</g>
</svg>
