<svg xmlns="http://www.w3.org/2000/svg" xmlns:xlink="http://www.w3.org/1999/xlink" width="249" height="208" viewBox="0 0 249 208">
    <defs>
        <filter id="xk8z64ru8b" width="170%" height="161.7%" x="-35%" y="-22%" filterUnits="objectBoundingBox">
            <feOffset dy="16" in="SourceAlpha" result="shadowOffsetOuter1"/>
            <feGaussianBlur in="shadowOffsetOuter1" result="shadowBlurOuter1" stdDeviation="16"/>
            <feColorMatrix in="shadowBlurOuter1" values="0 0 0 0 0.317647059 0 0 0 0 0.349019608 0 0 0 0 0.48627451 0 0 0 0.07 0"/>
        </filter>
        <rect id="n07u1um2fa" width="160" height="181.6" x="20.775" y="17.612" rx="12"/>
    </defs>
    <g fill="none" fill-rule="evenodd">
        <g>
            <g>
                <g>
                    <g>
                        <g transform="translate(-1219 -1240) translate(173 1040) translate(997 185) translate(49) rotate(15 28.126 220.022)">
                            <g stroke="#2196F3" stroke-width="3.2" opacity=".548">
                                <g opacity=".3">
                                    <path d="M.157.076c.394.218.785.44 1.175.666" transform="translate(13.6 36.8) translate(122.4 4)"/>
                                    <path stroke-dasharray="9.48" d="M3.62 2.106c23.663 14.738 39.468 41.381 39.468 71.802.005 7.066-.86 14.105-2.574 20.95" transform="translate(13.6 36.8) translate(122.4 4)"/>
                                    <path d="M40.178 96.17c-.118.442-.24.882-.365 1.322" transform="translate(13.6 36.8) translate(122.4 4)"/>
                                </g>
                                <path stroke-dasharray="9.6" d="M0 78.4C0 42.246 22.697 11.479 54.4 0" opacity=".21" transform="translate(13.6 36.8)"/>
                                <path stroke-dasharray="9.6" d="M122.4 151.405c-12.209 6.712-25.885 10.217-39.778 10.195-27.216 0-51.39-13.19-66.622-33.6" opacity=".5" transform="translate(13.6 36.8)"/>
                                <g opacity=".21">
                                    <path d="M110.218 72.171c-.128.438-.26.874-.398 1.309" transform="translate(13.6 36.8) translate(26.4 21.6)"/>
                                    <path stroke-dasharray="9.56" d="M108.934 76.055c-7.967 21.404-28.556 36.652-52.71 36.652C25.174 112.707 0 87.505 0 56.42 0 25.336 25.173.134 56.224.134 68.547.116 80.531 4.17 90.32 11.665" transform="translate(13.6 36.8) translate(26.4 21.6)"/>
                                    <path d="M91.393 12.5c.355.285.706.574 1.054.867" transform="translate(13.6 36.8) translate(26.4 21.6)"/>
                                </g>
                                <g opacity=".5">
                                    <path d="M.005.496C.462.43.919.372 1.376.324" transform="translate(13.6 36.8) translate(77.6 45.6)"/>
                                    <path stroke-dasharray="9.248" d="M4 .145h.8c11.349 0 21.848 5.956 27.595 15.652 5.746 9.697 5.88 21.684.35 31.504" transform="translate(13.6 36.8) translate(77.6 45.6)"/>
                                    <path d="M32.078 48.43c-.24.386-.487.763-.743 1.131" transform="translate(13.6 36.8) translate(77.6 45.6)"/>
                                </g>
                            </g>
                            <g>
                                <g>
                                    <mask id="h0io6emcec" fill="#fff">
                                        <use xlink:href="#n07u1um2fa"/>
                                    </mask>
                                    <g transform="rotate(-15 100.775 108.412)">
                                        <use fill="#000" filter="url(#xk8z64ru8b)" xlink:href="#n07u1um2fa"/>
                                        <use fill="#48DD68" xlink:href="#n07u1um2fa"/>
                                    </g>
                                    <circle cx="46" cy="42" r="122" fill="#74E270" mask="url(#h0io6emcec)"/>
                                    <circle cx="23.6" cy="26.8" r="64.4" fill="#96E993" mask="url(#h0io6emcec)"/>
                                </g>
                                <circle cx="98.4" cy="95.2" r="44" stroke="#A1FF9D" stroke-width="16"/>
                                <path stroke="#FFF" stroke-width="14.4" d="M56.323 108.064c7.104 23.24 31.703 36.318 54.941 29.213 23.24-7.104 36.318-31.703 29.213-54.941-7.104-23.24-31.703-36.318-54.941-29.213"/>
                                <text fill="#FFF" font-family="CircularStd-Medium, Circular Std" font-size="22.4" font-weight="400" transform="rotate(-15 100.652 94.11)">
                                    <tspan x="78.241" y="102.11">99%</tspan>
                                </text>
                                <text fill="#FFF" font-family="CircularStd-Medium, Circular Std" font-size="14.4" font-weight="400" transform="rotate(-15 119.921 162.51)">
                                    <tspan x="73.063" y="167.51">Security Level</tspan>
                                </text>
                            </g>
                            <g fill="#47E6B1" opacity=".5">
                                <path d="M1.648 0.017H2.6479999999999997V3.977H1.648z" transform="translate(26.4 171.2)"/>
                                <path d="M1.65 0.017L2.349 0.017 2.349 3.977 1.65 3.977z" transform="translate(26.4 171.2) rotate(90 1.999 1.997)"/>
                            </g>
                            <path fill="#4D8AF0" d="M120.547 33.633c-.413-.18-.626-.642-.494-1.074.01-.032.017-.065.02-.099.006-.191-.11-.365-.29-.432-.179-.067-.38-.011-.5.138-.02.027-.037.056-.05.087-.18.413-.642.626-1.074.494-.032-.01-.065-.017-.099-.02-.191-.006-.365.11-.432.29-.067.179-.011.38.138.5.027.02.056.037.087.05.413.18.626.642.494 1.074-.01.032-.017.065-.02.099-.006.191.11.365.29.432.179.067.38.011.5-.138.02-.027.037-.056.05-.087.18-.413.642-.626 1.074-.494.032.01.065.017.099.02.191.006.365-.11.432-.29.067-.179.011-.38-.138-.5-.027-.02-.056-.037-.087-.05z" opacity=".5"/>
                            <path fill="#FDD835" d="M31.747 56.033c-.413-.18-.626-.642-.494-1.074.01-.032.017-.065.02-.099.006-.191-.11-.365-.29-.432-.179-.067-.38-.011-.5.138-.02.027-.037.056-.05.087-.18.413-.642.626-1.074.494-.032-.01-.065-.017-.099-.02-.191-.006-.365.11-.432.29-.067.179-.011.38.138.5.027.02.056.037.087.05.413.18.626.642.494 1.074-.01.032-.017.065-.02.099-.006.191.11.365.29.432.179.067.38.011.5-.138.02-.027.037-.056.05-.087.18-.413.642-.626 1.074-.494.032.01.065.017.099.02.191.006.365-.11.432-.29.067-.179.011-.38-.138-.5-.027-.02-.056-.037-.087-.05zM24.547 121.633c-.413-.18-.626-.642-.494-1.074.01-.032.017-.065.02-.099.006-.191-.11-.365-.29-.432-.179-.067-.38-.011-.5.138-.02.027-.037.056-.05.087-.18.413-.642.626-1.074.494-.032-.01-.065-.017-.099-.02-.191-.006-.365.11-.432.29-.067.179-.011.38.138.5.027.02.056.037.087.05.413.18.626.642.494 1.074-.01.032-.017.065-.02.099-.006.191.11.365.29.432.179.067.38.011.5-.138.02-.027.037-.056.05-.087.18-.413.642-.626 1.074-.494.032.01.065.017.099.02.191.006.365-.11.432-.29.067-.179.011-.38-.138-.5-.027-.02-.056-.037-.087-.05z" opacity=".5"/>
                            <circle cx="73.6" cy="37.6" r="1.6" fill="#F55F44" opacity=".5"/>
                            <circle cx="1.6" cy="100" r="1.6" fill="#F55F44" opacity=".5"/>
                            <circle cx="187.2" cy="57.6" r="1.6" fill="#F55F44" opacity=".5"/>
                            <circle cx="178.4" cy="104.8" r="1.6" fill="#4D8AF0" opacity=".5"/>
                            <circle cx="8" cy="62.4" r="1.6" fill="#47E6B1" opacity=".5"/>
                            <circle cx="184.8" cy="172" r="1.6" fill="#47E6B1" opacity=".5"/>
                            <circle cx="197.6" cy="124.8" r="1.6" fill="#47E6B1" opacity=".5"/>
                        </g>
                    </g>
                </g>
            </g>
        </g>
    </g>
</svg>
