<svg xmlns="http://www.w3.org/2000/svg" width="70" height="98" viewBox="0 0 70 98">
    <defs>
        <filter id="hkkqomlh3a">
            <feColorMatrix in="SourceGraphic" values="0 0 0 0 0.000000 0 0 0 0 0.513725 0 0 0 0 0.807843 0 0 0 1.000000 0"/>
        </filter>
    </defs>
    <g fill="none" fill-rule="evenodd">
        <g>
            <g>
                <g filter="url(#hkkqomlh3a)" transform="translate(-541 -1091) translate(541.179 1091)">
                    <path fill="#000" fill-rule="nonzero" d="M67.276 63.313c-2.49-2.693-2.025.653-2.025-5.345.002-4.928-3.492-9.152-8.303-10.04l-14.076-2.652V40.34c2.012-1.427 3.623-3.353 4.679-5.591h3.422c3.356 0 6.076-2.74 6.076-6.121V18.425c0-3.38-2.72-6.121-6.076-6.121h-2.025V8.223c0-4.508-3.627-8.162-8.101-8.162-23.574 0-23.25-.449-24.06 1.082-.81 1.53.122 2.142 3.12 6.672.87 1.285.688 2.448.688 4.489h-2.026c-3.355 0-6.075 2.74-6.075 6.12v2.041c0 3.38 2.72 6.121 6.075 6.121h2.026v2.04c.003 4.67 2.271 9.044 6.075 11.713v4.937l-13.974 2.571c-4.81.887-8.305 5.112-8.303 10.039 0 6.121.425 2.591-2.025 5.346-2.451 2.754-1.742 2.775.405 32.87.074 1.071.96 1.9 2.025 1.898h60.068c1.066.003 1.951-.827 2.026-1.898 2.167-30.646 2.794-30.259.384-32.789zM50.973 30.667h-2.187c.17-1.353.225-2.718.162-4.08h2.025c2.552 0 2.025-1.53 2.025 2.04 0 1.127-.906 2.04-2.025 2.04zm2.025-12.242v2.04c0 1.127-.906 2.04-2.025 2.04h-2.025v-6.12h2.025c1.119 0 2.025.913 2.025 2.04zM40.847 4.142c2.237 0 4.05 1.827 4.05 4.08v4.082H24.645c0-4.081.162-4.448-2.288-8.162h18.49zM18.569 22.506c-1.118 0-2.025-.914-2.025-2.04v-2.041c0-1.127.907-2.04 2.025-2.04h2.026v6.12h-2.026zm6.076 6.12V16.385h20.252c0 13.1 0 12.896-.202 14.283h-7.898c-1.119 0-2.026.914-2.026 2.04 0 1.127.907 2.041 2.026 2.041h6.075c-2.615 3.513-7.168 4.946-11.303 3.557-4.135-1.388-6.924-5.287-6.924-9.678zm14.177 13.692v3.754c-2.378 1.88-5.723 1.88-8.101 0v-3.754c2.643.794 5.458.794 8.1 0zm-25.397 9.528l14.724-2.672c3.848 3.186 9.396 3.186 13.245 0l14.723 2.672c2.923.539 5.03 3.128 4.982 6.122v3.305H8.443v-3.387c-.009-2.963 2.09-5.506 4.982-6.04zM62.983 93.92H6.56L4.697 67.537c-.04-.565.156-1.122.54-1.536.384-.414.922-.649 1.485-.647 60.757 0 56.706-.306 57.577.653.871.959.71-.653-1.316 27.912z"/>
                </g>
                <path fill="#A6D9FA" fill-rule="nonzero" d="M34.821 75c-2.761 0-5 2.239-5 5s2.239 5 5 5c2.762 0 5-2.239 5-5s-2.238-5-5-5zm0 6.667c-.92 0-1.667-.747-1.667-1.667s.747-1.667 1.667-1.667 1.667.747 1.667 1.667-.746 1.667-1.667 1.667z" transform="translate(-541 -1091) translate(541.179 1091)"/>
            </g>
        </g>
    </g>
</svg>
