<svg xmlns="http://www.w3.org/2000/svg" width="94" height="98" viewBox="0 0 94 98">
    <g fill="none" fill-rule="evenodd">
        <g fill-rule="nonzero">
            <g>
                <path fill="#A6D9FA" d="M46.703 68C33.998 68 23.71 57.697 23.71 44.992 23.71 32.287 33.998 22 46.703 22S69.71 32.287 69.71 44.992 59.408 68 46.703 68z" transform="translate(-1103 -1091) translate(1103.29 1091)"/>
                <path fill="#0083CE" d="M46.71 98c-.41 0-.821-.127-1.17-.382l-.666-.484c-5.466-3.974-10.665-8.6-15.45-13.752-5.486-5.907-10.339-12.4-14.426-19.3-4.298-7.26-7.698-14.9-10.105-22.71-2.246-7.287-3.626-14.75-4.104-22.184l-.074-1.132c-.072-1.107.756-2.064 1.854-2.143l1.13-.081c7.098-.483 14.244-1.855 20.672-3.967 7.86-2.572 14.71-6.217 20.366-10.835l.72-.584c.732-.595 1.775-.594 2.506-.002l.717.58c5.652 4.62 12.503 8.265 20.369 10.84 6.43 2.113 13.575 3.485 20.666 3.967l1.138.082c1.097.079 1.925 1.036 1.853 2.143l-.074 1.131c-.474 7.42-1.855 14.883-4.103 22.185-2.41 7.81-5.809 15.45-10.106 22.71-4.09 6.904-8.943 13.398-14.425 19.3-4.784 5.15-9.983 9.778-15.452 13.754l-.666.483c-.348.254-.76.381-1.17.381zM4.842 19.79c.506 6.832 1.808 13.684 3.872 20.385 2.313 7.506 5.583 14.854 9.72 21.84 3.94 6.652 8.621 12.914 13.91 18.61 4.463 4.804 9.294 9.132 14.368 12.87 5.076-3.74 9.907-8.068 14.368-12.87 5.287-5.691 9.966-11.954 13.91-18.61 4.136-6.986 7.406-14.335 9.72-21.84 2.069-6.715 3.37-13.569 3.872-20.387-7.127-.552-14.293-1.963-20.77-4.092C59.727 13.05 52.632 9.318 46.71 4.6c-5.925 4.72-13.022 8.454-21.103 11.099-6.474 2.127-13.636 3.538-20.767 4.091zm40.653 34.286L60.85 38.599c.78-.787.78-2.063 0-2.85-.781-.787-2.047-.787-2.829 0l-13.94 14.05-5.709-5.753c-.78-.787-2.046-.787-2.828 0-.781.787-.781 2.063 0 2.85l7.122 7.18c.375.378.884.59 1.414.59.53 0 1.04-.212 1.414-.59zm1.217 16.679c-13.832 0-25.086-11.342-25.086-25.282s11.254-25.282 25.086-25.282c13.831 0 25.085 11.341 25.085 25.282 0 13.94-11.254 25.282-25.085 25.282zm0-46.534c-11.627 0-21.086 9.533-21.086 21.251 0 11.718 9.46 21.251 21.086 21.251 11.626 0 21.085-9.533 21.085-21.25 0-11.719-9.46-21.252-21.085-21.252z" transform="translate(-1103 -1091) translate(1103.29 1091)"/>
            </g>
        </g>
    </g>
</svg>
