<?xml version="1.0" encoding="utf-8"?>
<!-- Generator: Adobe Illustrator 25.0.0, SVG Export Plug-In . SVG Version: 6.00 Build 0)  -->
<svg version="1.1" id="Layer_1" xmlns="http://www.w3.org/2000/svg" xmlns:xlink="http://www.w3.org/1999/xlink" x="0px" y="0px"
	 viewBox="0 0 80 93" style="enable-background:new 0 0 80 93;" xml:space="preserve">
<style type="text/css">
	.st0{fill:#A6D9FA;}
	.st1{fill:#0083CE;}
</style>
<path id="Shape" class="st0" d="M15.5,6C11.9,6,9,8.9,9,12.5s2.9,6.5,6.5,6.5s6.5-2.9,6.5-6.5C22,8.9,19.1,6,15.5,6L15.5,6z
	 M15.5,15.8c-1.8,0-3.3-1.5-3.3-3.3s1.5-3.3,3.3-3.3s3.3,1.5,3.3,3.3C18.8,14.3,17.3,15.8,15.5,15.8L15.5,15.8z"/>
<path id="Path" class="st0" d="M68.5,6c-0.4,0-0.8,0.2-1.1,0.5S67,7.2,67,7.6v9.8c0,0.9,0.7,1.6,1.5,1.6c0.8,0,1.5-0.7,1.5-1.6V7.6
	c0-0.4-0.2-0.8-0.4-1.1C69.3,6.2,68.9,6,68.5,6L68.5,6z"/>
<path id="Path_1_" class="st0" d="M61.5,6c-0.4,0-0.8,0.2-1.1,0.5S60,7.2,60,7.6v9.8c0,0.9,0.7,1.6,1.5,1.6c0.8,0,1.5-0.7,1.5-1.6
	V7.6c0-0.4-0.2-0.8-0.4-1.1S61.9,6,61.5,6L61.5,6z"/>
<path id="Path_2_" class="st0" d="M52.4,11H29.6c-0.9,0-1.6,0.7-1.6,1.5s0.7,1.5,1.6,1.5h22.8c0.9,0,1.6-0.7,1.6-1.5
	S53.3,11,52.4,11z"/>
<path id="Shape_1_" class="st0" d="M15.5,29C11.9,29,9,31.9,9,35.5s2.9,6.5,6.5,6.5s6.5-2.9,6.5-6.5C22,31.9,19.1,29,15.5,29z
	 M15.5,38.8c-1.8,0-3.3-1.5-3.3-3.3s1.5-3.3,3.3-3.3s3.3,1.5,3.3,3.3C18.8,37.3,17.3,38.8,15.5,38.8L15.5,38.8z"/>
<path id="Path_3_" class="st0" d="M68.5,29c-0.8,0-1.5,0.7-1.5,1.6v9.8c0,0.9,0.7,1.6,1.5,1.6c0.8,0,1.5-0.7,1.5-1.6v-9.8
	C70,29.7,69.3,29,68.5,29L68.5,29z"/>
<path id="Path_4_" class="st0" d="M61.5,29c-0.8,0-1.5,0.7-1.5,1.6v9.8c0,0.9,0.7,1.6,1.5,1.6c0.8,0,1.5-0.7,1.5-1.6v-9.8
	C63,29.7,62.3,29,61.5,29L61.5,29z"/>
<path id="Path_5_" class="st0" d="M52.4,34H29.6c-0.9,0-1.6,0.7-1.6,1.5s0.7,1.5,1.6,1.5h22.8c0.9,0,1.6-0.7,1.6-1.5
	S53.3,34,52.4,34z"/>
<path id="Shape_2_" class="st1" d="M7.6,71.5h30.8v7.7c-2.6,0.6-4.7,2.6-5.3,5.2h-26c-0.9,0-1.6,0.7-1.6,1.6c0,0.9,0.7,1.6,1.6,1.6
	h26.1c0.7,3.2,3.6,5.4,6.9,5.4c3.3,0,6.1-2.2,6.9-5.4h26c0.9,0,1.6-0.7,1.6-1.6c0-0.9-0.7-1.6-1.6-1.6h-26c-0.6-2.6-2.7-4.6-5.3-5.2
	v-7.7h30.8c3.6,0,6.6-2.9,6.6-6.5V52.1c0-1.9-0.8-3.7-2.3-4.9c1.5-1.2,2.3-3,2.3-4.9V29.3c0-1.9-0.8-3.7-2.3-4.9
	c1.5-1.2,2.3-3,2.3-4.9V6.5C79,2.9,76.1,0,72.4,0H7.6C3.9,0,1,2.9,1,6.5v12.9c0,1.9,0.8,3.7,2.3,4.9c-1.5,1.2-2.3,3-2.3,4.9v12.9
	c0,1.9,0.8,3.7,2.3,4.9c-1.5,1.2-2.3,3-2.3,4.9V65C1,68.6,3.9,71.5,7.6,71.5z M43.9,86c0,2.1-1.7,3.8-3.9,3.8
	c-2.1,0-3.9-1.7-3.9-3.8v0c0-2.1,1.7-3.8,3.9-3.8C42.1,82.2,43.9,83.9,43.9,86L43.9,86z M4.2,19.4V6.5c0-1.9,1.5-3.4,3.4-3.4h64.9
	c1.9,0,3.4,1.5,3.4,3.4v12.9c0,1.9-1.5,3.4-3.4,3.4H7.6C5.7,22.8,4.2,21.3,4.2,19.4z M4.2,42.2V29.3c0-1.9,1.5-3.4,3.4-3.4h64.9
	c1.9,0,3.4,1.5,3.4,3.4v12.9c0,1.9-1.5,3.4-3.4,3.4H7.6C5.7,45.6,4.2,44.1,4.2,42.2L4.2,42.2z M72.4,48.7c1.9,0,3.4,1.5,3.4,3.4V65
	c0,1.9-1.5,3.4-3.4,3.4H7.6c-1.9,0-3.4-1.5-3.4-3.4V52.1c0-1.9,1.5-3.4,3.4-3.4H72.4z"/>
<path id="Shape_3_" class="st0" d="M15.5,65c3.6,0,6.5-2.9,6.5-6.5S19.1,52,15.5,52S9,54.9,9,58.5C9,62.1,11.9,65,15.5,65z
	 M15.5,55.2c1.8,0,3.3,1.5,3.3,3.3s-1.5,3.3-3.3,3.3s-3.3-1.5-3.3-3.3C12.2,56.7,13.7,55.2,15.5,55.2L15.5,55.2z"/>
<path id="Path_6_" class="st0" d="M68.5,65c0.8,0,1.5-0.7,1.5-1.6v-9.8c0-0.9-0.7-1.6-1.5-1.6c-0.8,0-1.5,0.7-1.5,1.6v9.8
	C67,64.3,67.7,65,68.5,65L68.5,65z"/>
<path id="Path_7_" class="st0" d="M61.5,65c0.8,0,1.5-0.7,1.5-1.6v-9.8c0-0.9-0.7-1.6-1.5-1.6c-0.8,0-1.5,0.7-1.5,1.6v9.8
	C60,64.3,60.7,65,61.5,65L61.5,65z"/>
<path id="Path_8_" class="st0" d="M29.6,60h22.8c0.9,0,1.6-0.7,1.6-1.5S53.3,57,52.4,57H29.6c-0.9,0-1.6,0.7-1.6,1.5
	S28.7,60,29.6,60L29.6,60z"/>
</svg>
