<svg xmlns="http://www.w3.org/2000/svg" width="80" height="93" viewBox="0 0 80 93">
    <defs>
        <filter id="57ta23xkoa">
            <feColorMatrix in="SourceGraphic" values="0 0 0 0 0.000000 0 0 0 0 0.513725 0 0 0 0 0.807843 0 0 0 1.000000 0"/>
        </filter>
    </defs>
    <g fill="none" fill-rule="evenodd">
        <g filter="url(#57ta23xkoa)" transform="translate(-1061 -2437)">
            <g fill="#000" fill-rule="nonzero">
                <path d="M15.365 6c-3.59 0-6.5 2.91-6.5 6.5s2.91 6.5 6.5 6.5 6.5-2.91 6.5-6.5c-.003-3.588-2.911-6.496-6.5-6.5zm0 9.796c-1.82 0-3.295-1.476-3.295-3.296 0-1.82 1.475-3.296 3.295-3.296 1.82 0 3.296 1.476 3.296 3.296-.001 1.82-1.476 3.293-3.296 3.293v.003zM68.365 6c-.398 0-.78.168-1.06.469-.282.3-.44.708-.44 1.133v9.796c0 .885.672 1.602 1.5 1.602.829 0 1.5-.717 1.5-1.602V7.602c0-.425-.157-.833-.439-1.133-.281-.3-.663-.47-1.06-.469zM61.365 6c-.398 0-.78.168-1.06.469-.282.3-.44.708-.44 1.133v9.796c0 .885.672 1.602 1.5 1.602.829 0 1.5-.717 1.5-1.602V7.602c0-.425-.157-.833-.439-1.133-.281-.3-.663-.47-1.06-.469zM52.277 11H29.454c-.877 0-1.589.672-1.589 1.5s.712 1.5 1.589 1.5h22.823c.877 0 1.588-.672 1.588-1.5s-.71-1.5-1.588-1.5zM15.365 29c-3.59 0-6.5 2.91-6.5 6.5s2.91 6.5 6.5 6.5 6.5-2.91 6.5-6.5c-.004-3.588-2.911-6.496-6.5-6.5zm0 9.796c-1.82 0-3.295-1.476-3.295-3.296 0-1.82 1.475-3.296 3.295-3.296 1.82 0 3.296 1.476 3.296 3.296-.001 1.82-1.476 3.293-3.296 3.293v.003zM68.365 29c-.828 0-1.5.717-1.5 1.602v9.796c0 .885.672 1.602 1.5 1.602.829 0 1.5-.717 1.5-1.602v-9.796c0-.885-.671-1.602-1.5-1.602zM61.365 29c-.828 0-1.5.717-1.5 1.602v9.796c0 .885.672 1.602 1.5 1.602.829 0 1.5-.717 1.5-1.602v-9.796c0-.885-.671-1.602-1.5-1.602zM52.277 34H29.454c-.877 0-1.589.672-1.589 1.5s.712 1.5 1.589 1.5h22.823c.877 0 1.588-.672 1.588-1.5s-.71-1.5-1.588-1.5z" transform="translate(1061.135 2437)"/>
                <path d="M7.43 71.492h30.847v7.705c-2.617.605-4.661 2.632-5.273 5.23H6.957c-.88 0-1.591.706-1.591 1.578 0 .873.712 1.58 1.59 1.58h26.051c.738 3.17 3.581 5.415 6.858 5.415 3.278 0 6.121-2.245 6.858-5.415h26.048c.878 0 1.59-.707 1.59-1.58 0-.872-.712-1.579-1.59-1.579H46.723c-.61-2.595-2.65-4.62-5.264-5.228v-7.706h30.844c3.623-.004 6.559-2.92 6.562-6.516V52.07c0-1.898-.837-3.702-2.29-4.936 1.453-1.234 2.29-3.037 2.29-4.935V29.293c0-1.899-.837-3.702-2.29-4.936 1.453-1.234 2.29-3.037 2.29-4.936V6.515C78.862 2.92 75.926.004 72.303 0H7.43C3.805.002.867 2.92.865 6.518v12.906c0 1.898.838 3.702 2.291 4.936-1.453 1.234-2.29 3.037-2.29 4.935v12.906c0 1.899.837 3.702 2.29 4.936-1.453 1.234-2.29 3.037-2.29 4.936v12.906c.004 3.596 2.941 6.51 6.564 6.513zm36.3 14.513c0 2.119-1.73 3.836-3.864 3.836s-3.864-1.717-3.864-3.836v-.009c0-2.118 1.73-3.835 3.864-3.835s3.864 1.717 3.864 3.835v.01zM4.047 19.423V6.517c.002-1.853 1.514-3.354 3.38-3.356h64.876c1.866.002 3.378 1.503 3.38 3.356v12.906c-.002 1.852-1.514 3.354-3.38 3.356H7.43c-1.867 0-3.38-1.503-3.383-3.356zm0 22.776V29.294c.002-1.853 1.514-3.354 3.38-3.357h64.876c1.866.003 3.378 1.504 3.38 3.357v12.905c-.002 1.853-1.514 3.354-3.38 3.357H7.43c-1.867-.001-3.38-1.503-3.383-3.357zm68.256 6.516c1.866.002 3.378 1.504 3.38 3.356v12.906c-.001 1.853-1.513 3.355-3.38 3.357H7.43c-1.866-.002-3.378-1.504-3.38-3.357V52.071c.002-1.852 1.514-3.354 3.38-3.356h64.873z" transform="translate(1061.135 2437)"/>
                <path d="M15.365 65c3.59 0 6.5-2.91 6.5-6.5s-2.91-6.5-6.5-6.5-6.5 2.91-6.5 6.5c.004 3.588 2.912 6.496 6.5 6.5zm0-9.796c1.82 0 3.296 1.476 3.296 3.296 0 1.82-1.475 3.296-3.296 3.296-1.82 0-3.295-1.476-3.295-3.296 0-1.82 1.476-3.294 3.295-3.294v-.002zM68.365 65c.829 0 1.5-.717 1.5-1.602v-9.796c0-.885-.671-1.602-1.5-1.602-.828 0-1.5.717-1.5 1.602V63.4c.001.885.673 1.601 1.5 1.601zM61.365 65c.829 0 1.5-.717 1.5-1.602v-9.796c0-.885-.671-1.602-1.5-1.602-.828 0-1.5.717-1.5 1.602V63.4c.001.885.673 1.601 1.5 1.601zM29.454 60h22.823c.877 0 1.588-.672 1.588-1.5s-.71-1.5-1.588-1.5H29.454c-.877 0-1.589.672-1.589 1.5s.712 1.5 1.589 1.5z" transform="translate(1061.135 2437)"/>
            </g>
        </g>
    </g>
</svg>
