<svg xmlns="http://www.w3.org/2000/svg" width="44" height="36" viewBox="0 0 44 36">
    <g fill="none" fill-rule="evenodd">
        <g fill-rule="nonzero">
            <g>
                <path fill="#EEC8AD" d="M26 10c0-2.206-1.794-4-4-4s-4 1.794-4 4v2c0 2.206 1.794 4 4 4s4-1.794 4-4v-2z" transform="translate(-846 -759) translate(846 759)"/>
                <path fill="#E1B597" d="M25 10.449c-2.325-.299-4.691-.267-7 .156v1c1.755-.303 3.539-.392 5.314-.287.936.055 1.518 1.111 1.001 1.893C23.603 14.288 22.387 15 21 15c-.848 0-1.632-.269-2.279-.72.785 1.126 2.13 1.835 3.632 1.705C24.452 15.803 26 14.302 26 11.813v-1.216c-.333-.058-.665-.105-1-.148z" transform="translate(-846 -759) translate(846 759)"/>
                <path fill="#E4F0FF" d="M30 18.64V25h11c.551 0 1-.449 1-1v-5.36c0-.475-.338-.888-.804-.981l-1.431-.286c-2.474-.494-5.056-.494-7.529 0l-1.431.286c-.467.093-.805.506-.805.981z" transform="translate(-846 -759) translate(846 759)"/>
                <path fill="#004463" d="M41 27H29c-.552 0-1-.448-1-1v-7.36c0-1.425 1.014-2.663 2.412-2.942l1.431-.286c2.732-.546 5.583-.546 8.314 0l1.432.286C42.986 15.977 44 17.214 44 18.64V24c0 1.654-1.346 3-3 3zm-11-2h11c.551 0 1-.449 1-1v-5.36c0-.475-.338-.888-.804-.981l-1.431-.286c-2.474-.494-5.056-.494-7.529 0l-1.431.286c-.467.093-.805.506-.805.981V25z" transform="translate(-846 -759) translate(846 759)"/>
                <path fill="#69C3EE" d="M41.196 17.659l-.196-.04v4.379c0 .551-.448 1-1 1H30V25h11c.552 0 1-.449 1-1v-5.36c0-.475-.338-.888-.804-.981z" transform="translate(-846 -759) translate(846 759)"/>
                <path fill="#E4F0FF" d="M2 18.64V24c0 .551.449 1 1 1h11v-6.36c0-.475-.338-.888-.804-.981l-1.431-.286C10.528 17.125 9.261 17 8 17c-1.261 0-2.528.125-3.765.373l-1.431.286c-.466.093-.804.506-.804.981z" transform="translate(-846 -759) translate(846 759)"/>
                <path fill="#004463" d="M15 27H3c-1.654 0-3-1.346-3-3v-5.36c0-1.425 1.014-2.663 2.412-2.942l1.431-.286c2.732-.546 5.583-.546 8.314 0l1.432.286C14.986 15.977 16 17.214 16 18.64V26c0 .552-.448 1-1 1zM8 17c-1.261 0-2.528.125-3.765.373l-1.431.286c-.466.093-.804.506-.804.981V24c0 .551.449 1 1 1h11v-6.36c0-.475-.338-.888-.804-.981l-1.431-.286C10.528 17.125 9.261 17 8 17z" transform="translate(-846 -759) translate(846 759)"/>
                <path fill="#69C3EE" d="M13.196 17.659l-.196-.04V21c0 1.105-.895 2-2 2H2v1c0 .551.448 1 1 1h11v-6.36c0-.475-.338-.888-.804-.981z" transform="translate(-846 -759) translate(846 759)"/>
                <path fill="#E4F0FF" d="M30 31.438v-7.704c0-.494-.369-.919-.858-.99l-3.802-.543c-.937-.133-1.892-.201-2.837-.201h-1.007c-.945 0-1.899.068-2.837.201l-3.801.543c-.489.071-.858.496-.858.99v7.704c0 .46.312.859.758.97l5.515 1.378c1.13.282 2.326.282 3.454 0l5.516-1.378c.445-.111.757-.51.757-.97z" transform="translate(-846 -759) translate(846 759)"/>
                <path fill="#004463" d="M22 36c-.745 0-1.489-.092-2.212-.272l-5.515-1.378C12.935 34.015 12 32.818 12 31.438v-7.704c0-1.483 1.107-2.76 2.576-2.969l3.801-.543c1.031-.147 2.081-.222 3.12-.222h1.007c1.039 0 2.088.075 3.119.222l3.802.543c1.468.21 2.575 1.486 2.575 2.969v7.704c0 1.379-.935 2.576-2.272 2.911l-5.516 1.378c-.723.181-1.467.273-2.212.273zm-.503-14c-.945 0-1.899.068-2.837.201l-3.801.543c-.49.071-.859.496-.859.99v7.704c0 .46.312.859.758.97l5.515 1.378c1.13.282 2.326.282 3.454 0l5.516-1.378c.446-.111.758-.51.758-.97v-7.704c0-.494-.369-.919-.858-.99l-3.802-.543c-.938-.133-1.893-.201-2.838-.201h-1.006zM34 36c-.552 0-1-.448-1-1s.448-1 1-1c2.757 0 5-2.243 5-5 0-.552.448-1 1-1s1 .448 1 1c0 3.86-3.14 7-7 7zM10 36c-3.86 0-7-3.14-7-7 0-.552.448-1 1-1s1 .448 1 1c0 2.757 2.243 5 5 5 .552 0 1 .448 1 1s-.448 1-1 1z" transform="translate(-846 -759) translate(846 759)"/>
                <path fill="#4C9BD5" d="M29.142 22.745L29 22.724v6.185c0 .918-.625 1.718-1.515 1.94l-3.757.939c-1.134.283-2.321.283-3.455 0l-5.514-1.378c-.447-.111-.759-.51-.759-.97v1.998c0 .459.312.859.758.971l5.514 1.378c1.134.284 2.321.284 3.455 0L29 32.469l.243-.061c.445-.111.757-.51.757-.97V23.734c0-.494-.369-.92-.858-.989z" transform="translate(-846 -759) translate(846 759)"/>
                <path fill="#69C3EE" d="M22 8.251c1.587 0 3.173.149 4.734.445C26.042 6.516 24.184 5 22 5s-4.042 1.516-4.734 3.696c1.561-.296 3.147-.445 4.734-.445z" transform="translate(-846 -759) translate(846 759)"/>
                <path fill="#175F81" d="M25.393 8.506c.448.06.897.106 1.341.19C26.041 6.516 24.184 5 22 5c-.215 0-.425.011-.633.04 1.839.253 3.361 1.603 4.026 3.466z" transform="translate(-846 -759) translate(846 759)"/>
                <path fill="#004463" d="M22 3c-3.674 0-6.682 2.975-6.997 6.92-.025.322.105.636.352.844.182.154.412.234.645.235V12c0 3.309 2.691 6 6 6s6-2.691 6-6v-1c.233 0 .462-.082.645-.236.247-.208.377-.522.352-.844C28.682 5.975 25.674 3 22 3zm0 2c2.184 0 4.042 1.516 4.734 3.696-1.561-.296-3.147-.445-4.734-.445-1.587 0-3.173.149-4.734.445C17.958 6.516 19.816 5 22 5zm0 11c-2.206 0-4-1.794-4-4v-1.395c2.643-.456 5.357-.456 8 0V12c0 2.206-1.794 4-4 4z" transform="translate(-846 -759) translate(846 759)"/>
                <g>
                    <path fill="#EEC8AD" d="M9 6c0-1.654-1.346-3-3-3S3 4.346 3 6v2c0 1.654 1.346 3 3 3s3-1.346 3-3V6z" transform="translate(-846 -759) translate(846 759) translate(30)"/>
                    <path fill="#69C3EE" d="M6 4.376c1.237 0 2.474.108 3.693.322C9.077 3.093 7.655 2 6 2 4.345 2 2.923 3.093 2.307 4.698 3.526 4.484 4.763 4.376 6 4.376z" transform="translate(-846 -759) translate(846 759) translate(30)"/>
                    <path fill="#E1B597" d="M8 6.49c-1.664-.172-3.346-.128-5 .131v1c1.337-.209 2.693-.269 4.042-.194.513.029.813.603.56 1.05C7.088 9.385 6.117 10 5 10c-.571 0-1.099-.169-1.554-.446.628 1.029 1.846 1.659 3.189 1.38C8.041 10.642 9 9.584 9 7.889V6.621c-.332-.052-.665-.097-1-.131z" transform="translate(-846 -759) translate(846 759) translate(30)"/>
                    <path fill="#175F81" d="M8.302 4.516c.465.051.93.102 1.391.183C9.077 3.093 7.655 2 6 2c-.223 0-.44.016-.653.055 1.306.234 2.394 1.169 2.955 2.461z" transform="translate(-846 -759) translate(846 759) translate(30)"/>
                    <path fill="#004463" d="M6 0C2.851 0 .272 2.545.003 5.92c-.025.322.105.636.352.844.182.154.411.234.645.234V8c0 2.757 2.243 5 5 5s5-2.243 5-5V7c.233 0 .463-.082.645-.236.247-.208.377-.522.352-.844C11.728 2.545 9.149 0 6 0zm0 2c1.655 0 3.077 1.093 3.693 2.698C8.474 4.484 7.237 4.376 6 4.376s-2.474.108-3.693.322C2.923 3.093 4.345 2 6 2zm0 9c-1.654 0-3-1.346-3-3V6.621c1.986-.31 4.014-.31 6 0V8c0 1.654-1.346 3-3 3z" transform="translate(-846 -759) translate(846 759) translate(30)"/>
                </g>
                <g>
                    <path fill="#EEC8AD" d="M9 6c0-1.654-1.346-3-3-3S3 4.346 3 6v2c0 1.654 1.346 3 3 3s3-1.346 3-3V6z" transform="translate(-846 -759) translate(846 759) translate(2)"/>
                    <path fill="#69C3EE" d="M6 4.376c1.237 0 2.474.108 3.693.322C9.077 3.093 7.655 2 6 2 4.345 2 2.924 3.093 2.307 4.698c1.22-.214 2.456-.322 3.693-.322z" transform="translate(-846 -759) translate(846 759) translate(2)"/>
                    <path fill="#E1B597" d="M8 6.49c-1.664-.172-3.346-.128-5 .131v1c1.337-.209 2.693-.269 4.042-.194.513.029.813.603.56 1.05C7.088 9.385 6.117 10 5 10c-.571 0-1.099-.169-1.554-.446.628 1.029 1.846 1.659 3.189 1.38C8.041 10.642 9 9.584 9 7.889V6.621c-.332-.052-.665-.097-1-.131z" transform="translate(-846 -759) translate(846 759) translate(2)"/>
                    <path fill="#175F81" d="M8.302 4.516c.465.051.93.102 1.391.183C9.077 3.093 7.655 2 6 2c-.223 0-.44.016-.653.055 1.306.234 2.394 1.169 2.955 2.461z" transform="translate(-846 -759) translate(846 759) translate(2)"/>
                    <path fill="#004463" d="M6 0C2.851 0 .273 2.545.003 5.92c-.025.322.105.636.352.844.182.154.412.234.645.234V8c0 2.757 2.243 5 5 5s5-2.243 5-5V7c.233 0 .463-.082.645-.236.247-.208.377-.522.352-.844C11.728 2.545 9.15 0 6 0zm0 2c1.655 0 3.077 1.093 3.693 2.698C8.474 4.484 7.237 4.376 6 4.376s-2.473.108-3.693.322C2.924 3.093 4.345 2 6 2zm0 9c-1.654 0-3-1.346-3-3V6.621c1.986-.31 4.014-.31 6 0V8c0 1.654-1.346 3-3 3z" transform="translate(-846 -759) translate(846 759) translate(2)"/>
                </g>
            </g>
        </g>
    </g>
</svg>
