<svg xmlns="http://www.w3.org/2000/svg" width="84" height="81" viewBox="0 0 84 81">
    <g fill="none" fill-rule="evenodd">
        <g fill-rule="nonzero">
            <g>
                <path fill="#A6D9FA" d="M68.398 1.715c1.811 0 3.28 1.468 3.28 3.279v18.584c0 1.811-1.469 3.279-3.28 3.279H51.933l-5.583 8.317c-.602.896-2.001.47-2.001-.609v-7.707h-3.28c-1.81 0-3.279-1.468-3.279-3.28V4.995c0-1.812 1.469-3.28 3.28-3.28h27.328z" transform="translate(-523 -1651) translate(523 1651)"/>
                <path fill="#0083CE" d="M77.057 7.737c-.838 0-1.517.68-1.517 1.517 0 .838.68 1.517 1.517 1.517 1.714 0 3.108 1.394 3.108 3.108v38.565H44.052c.004-.777.008-1.682.01-1.77v-.23c-.017-2.39-.833-4.592-2.499-6.74-1.53-1.948-3.465-2.856-5.513-3.818-.593-.278-1.207-.566-1.84-.894-.588-.305-1.304-.195-1.772.274l-5.1 5.103-5.099-5.102c-.433-.435-1.087-.564-1.652-.331-.564.232-5.57 2.34-7.482 4.775-1.66 2.14-2.476 4.343-2.492 6.722v.242c.002.089.005.994.009 1.77H3.035V13.879c0-1.713 1.394-3.107 3.108-3.107H32.9c.838 0 1.517-.68 1.517-1.517 0-.838-.68-1.518-1.517-1.518H6.143c-3.387 0-6.142 2.757-6.142 6.143v44.708c0 3.387 2.755 6.142 6.142 6.142h24.69v6.19l.002.025h-3.11c-.402 0-.788.16-1.072.445l-3.083 3.083c-.285.285-.445.67-.445 1.073v3.34c0 .838.68 1.517 1.517 1.517H60.1c.837 0 1.517-.68 1.517-1.517v-3.34c0-.402-.16-.788-.445-1.073L58.09 71.39c-.285-.284-.67-.444-1.072-.444h-3.11l.002-.024v-6.19h23.149c3.387 0 6.142-2.757 6.142-6.143V13.879c0-3.387-2.755-6.142-6.143-6.142zM13.648 50.63v-.165c.012-1.699.62-3.3 1.85-4.887.907-1.154 3.45-2.568 5.327-3.433l5.44 5.443c.285.285.67.445 1.073.445.403 0 .789-.16 1.073-.445l5.401-5.404c.321.156.637.304.947.45 1.863.874 3.334 1.565 4.411 2.937 1.237 1.596 1.844 3.197 1.857 4.907v.152c-.002.077-.005 1.018-.01 1.815h-27.36l-.009-1.815zm44.934 25.544v1.194H26.159v-1.194l2.194-2.195h28.035l2.194 2.195zm-7.706-5.23H33.865l.003-.024v-6.19h17.006v6.19l.002.024zm26.18-9.25H6.144c-1.714 0-3.107-1.394-3.107-3.107V55.48h77.129v3.108c0 1.713-1.394 3.108-3.108 3.108zM60.004 13.923c0-.839.68-1.517 1.518-1.517h3.916c.838 0 1.518.679 1.518 1.517 0 .838-.68 1.517-1.518 1.517h-3.916c-.838 0-1.518-.679-1.518-1.517zm-8.745 0c0-.839.68-1.517 1.517-1.517h3.917c.838 0 1.517.679 1.517 1.517 0 .838-.68 1.517-1.517 1.517h-3.917c-.837 0-1.517-.679-1.517-1.517zm-10.19 14.453h1.763v6.191c0 1.157.744 2.16 1.85 2.498.255.077.514.115.769.115.851 0 1.663-.419 2.159-1.158l5.133-7.646h15.656c2.646 0 4.797-2.151 4.797-4.796V4.994c0-2.645-2.151-4.796-4.797-4.796H41.07c-2.646 0-4.797 2.151-4.797 4.796v18.584c0 2.646 2.151 4.797 4.797 4.797zM39.308 4.994c0-.972.79-1.762 1.762-1.762h27.33c.971 0 1.761.79 1.761 1.762v18.584c0 .972-.79 1.762-1.762 1.762H51.932c-.505 0-.978.252-1.26.672l-4.806 7.16v-6.314c0-.838-.68-1.517-1.517-1.517h-3.28c-.972 0-1.762-.79-1.762-1.762V4.994zm3.206 8.928c0-.839.68-1.517 1.517-1.517h3.917c.837 0 1.517.679 1.517 1.517 0 .838-.68 1.517-1.517 1.517H44.03c-.838 0-1.517-.679-1.517-1.517zm-15.177 9.704c-4.462 0-8.092 3.63-8.092 8.092 0 4.462 3.63 8.093 8.092 8.093 4.463 0 8.093-3.63 8.093-8.093 0-4.462-3.63-8.092-8.093-8.092zm0 13.15c-2.788 0-5.057-2.269-5.057-5.057 0-2.789 2.269-5.058 5.057-5.058 2.789 0 5.058 2.27 5.058 5.058s-2.268 5.057-5.058 5.057z" transform="translate(-523 -1651) translate(523 1651)"/>
            </g>
        </g>
    </g>
</svg>
