<svg xmlns="http://www.w3.org/2000/svg" width="85" height="85" viewBox="0 0 85 85">
    <defs>
        <linearGradient id="upiet7n5aa" x1="0%" x2="100%" y1="0%" y2="100%">
            <stop offset="0%" stop-color="#E7EEFF"/>
            <stop offset="100%" stop-color="#DEF5FF"/>
        </linearGradient>
    </defs>
    <g fill="none" fill-rule="evenodd">
        <g fill-rule="nonzero">
            <g>
                <g>
                    <g>
                        <g fill="url(#upiet7n5aa)" transform="translate(-600 -2410) translate(265 2147) translate(297 220) translate(38.539 43.48)">
                            <circle cx="41.997" cy="41.997" r="41.997"/>
                        </g>
                        <g>
                            <path fill="#A6D9FA" d="M38.73 13.55l-1.61 1.606c-1.866 1.864-4.477 1.486-6.944.569l-6.998 6.986c-.691.69-1.412 1.402-2.148 2.136L6.016 39.835c-.888.887-2.33.887-3.218 0l-1.07-1.076c-.888-.886-.888-2.318 0-3.212 2.945-2.94 9.48-9.457 15.013-14.98.736-.736 1.458-1.455 2.148-2.137 3.97-3.97 6.99-6.986 6.99-6.986-.918-2.463-1.358-5.145.51-7.002l1.608-1.606C30.054.776 32.711.268 35.512 1.76L31.216 6.05c-.297.295-.304.765-.008 1.068l3.218 3.213c.296.295.79.303 1.085.007L39.8 6.05c1.495 2.796.987 5.44-1.07 7.501z" transform="translate(-600 -2410) translate(265 2147) translate(297 220) translate(38.539 43.48) translate(21.461 20.52)"/>
                            <path fill="#0083CE" d="M32.1 28.332c-.001-.836.002-2.856.002-2.856 0-.43-.3-.8-.72-.886-3.148-.646-3.149-.646-3.502-.292l-.974.977-2.454-2.46 5.96-5.975c1.627.563 4.958 1.423 7.352-.977l1.61-1.615c2.402-2.42 2.85-5.554 1.227-8.602-.134-.252-.38-.426-.662-.468-.28-.04-.568.053-.77.256l-4.191 4.211-3.024-3.032 4.2-4.213c.201-.202.296-.488.253-.771-.041-.283-.214-.53-.466-.664-3.046-1.632-6.173-1.179-8.576 1.24l-1.609 1.612c-2.38 2.378-1.488 5.785-.915 7.444l-5.951 5.976-3.696-3.71c-2-2.008-3.005-3.016-3.557-3.522l-.488-2.471c-.047-.236-.185-.443-.384-.576L4.32 2.648c-.358-.24-.833-.192-1.136.112l-2.15 2.156c-.303.304-.35.781-.112 1.139l4.298 6.457c.132.2.338.337.571.384l2.421.487 7.257 7.278L1.086 35.08c-1.233 1.246-1.231 3.265 0 4.5l1.073 1.084c.619.62 1.432.932 2.246.932.813 0 1.626-.311 2.246-.932l14.383-14.42 2.454 2.46-.976.979c-.353.353-.353.353.291 3.51.086.421.454.723.882.723h.001s2.007-.003 2.846-.002l8.327 8.352c.6.602 1.399.934 2.247.934.85 0 1.648-.331 2.248-.934l1.073-1.076c.6-.602.931-1.403.931-2.254 0-.852-.33-1.652-.93-2.254l-8.328-8.35zM8.833 11.667l-2.322-.468-3.68-5.53L3.934 4.56l5.52 3.691.46 2.32c.037.193.135.361.27.487.149.144 1.735 1.737 3.735 3.745l3.695 3.708-.32.32-.316.316-.237.237-7.45-7.472c-.125-.126-.285-.212-.459-.246zm-3.455 27.72c-.537.538-1.41.538-1.944.002L2.36 38.305c-.534-.536-.533-1.412 0-1.951l15.018-15.055c.735-.737 1.455-1.46 2.145-2.143 0-.002.002-.003.004-.004 3.97-3.99 6.992-7.02 6.992-7.02.249-.25.33-.623.207-.954-1.068-2.878-.973-4.81.301-6.083L28.64 3.48c1.112-1.12 2.359-1.683 3.688-1.683.527 0 1.067.089 1.617.266l-3.36 3.37c-.652.652-.659 1.682-.007 2.35l3.218 3.23c.312.312.728.486 1.17.49.462-.006.874-.168 1.19-.484l3.351-3.367c.62 1.937.145 3.758-1.407 5.32l-1.608 1.614c-1.29 1.293-3.195 1.409-5.996.363-.33-.123-.702-.042-.951.208L21.86 22.86l-1.466 1.465c-.004.004-.005.01-.01.015L5.378 39.387zm19.383-11.96l-2.454-2.461.827-.828.045-.046 2.454 2.46-.758.76-.114.114zm14.393 12.485l-1.073 1.077c-.52.521-1.428.522-1.949 0l-8.567-8.592c-.24-.258-.268-.288-2.772-.288h-.373c-.108-.536-.224-1.107-.299-1.487l2.018-2.024 1.405-1.404c.008-.008.014-.019.023-.028l1.25-1.254c.38.076.949.19 1.483.3-.003 2.9.015 2.915.265 3.131l8.59 8.616c.26.26.403.607.403.976 0 .37-.143.717-.404.977zm-1.086-.864c.234.236.234.616 0 .852-.117.117-.271.176-.425.176-.153 0-.307-.059-.424-.176l-9.126-9.154c-.235-.235-.235-.616 0-.85.234-.236.614-.236.849 0l9.126 9.152zM6.19 36.734c0 .664-.537 1.203-1.2 1.203-.663 0-1.2-.539-1.2-1.203 0-.665.537-1.204 1.2-1.204.663 0 1.2.539 1.2 1.204z" transform="translate(-600 -2410) translate(265 2147) translate(297 220) translate(38.539 43.48) translate(21.461 20.52)"/>
                        </g>
                    </g>
                </g>
            </g>
        </g>
    </g>
</svg>
