<svg xmlns="http://www.w3.org/2000/svg" width="85" height="85" viewBox="0 0 85 85">
    <defs>
        <linearGradient id="8a88xqfx0a" x1="0%" x2="100%" y1="0%" y2="100%">
            <stop offset="0%" stop-color="#E7EEFF"/>
            <stop offset="100%" stop-color="#DEF5FF"/>
        </linearGradient>
    </defs>
    <g fill="none" fill-rule="evenodd">
        <g fill-rule="nonzero">
            <g>
                <g>
                    <g>
                        <g fill="url(#8a88xqfx0a)" transform="translate(-304 -2445) translate(265 2147) translate(0 253) translate(39.527 45.456)">
                            <circle cx="41.997" cy="41.997" r="41.997"/>
                        </g>
                        <g>
                            <path fill="#0083CE" d="M45 18h-1v-3c0-.552-.448-1-1-1h-4c.159-1.517-.828-2.918-2.31-3.28-.378-.029-.707-.269-.85-.62-.149-.327-.11-.709.1-1 .797-1.19.642-2.777-.37-3.79l-1.92-1.88c-1.028-1.03-2.647-1.173-3.84-.34-.278.17-.62.193-.919.064-.298-.13-.515-.396-.581-.714-.27-1.417-1.508-2.441-2.95-2.44h-2.72c-1.391 0-2.6.956-2.92 2.31-.029.378-.269.707-.62.85-.327.149-.709.11-1-.1-1.19-.797-2.777-.642-3.79.37l-1.88 1.92c-1.03 1.028-1.173 2.647-.34 3.84.17.278.193.62.064.919-.13.298-.396.515-.714.581-1.544.311-2.6 1.743-2.44 3.31H5c-.552 0-1 .448-1 1v3H3c-1.657 0-3 1.343-3 3v24c0 1.657 1.343 3 3 3h42c1.657 0 3-1.343 3-3V21c0-1.657-1.343-3-3-3zm-34-4.36c-.009-.486.333-.908.81-1 .985-.192 1.808-.865 2.194-1.79.386-.927.283-1.985-.274-2.82-.276-.4-.225-.939.12-1.28C15.66 5 16.12 4.17 17 4.7c.845.587 1.932.7 2.88.3 2.26-.94 1.28-3 2.77-3h2.72c.486-.009.908.333 1 .81.19.992.865 1.821 1.797 2.208.933.387 1.997.278 2.833-.288.4-.276.939-.225 1.28.12C34.05 6.66 34.82 7.12 34.3 8c-.585.833-.707 1.906-.326 2.85.382.943 1.216 1.628 2.216 1.82.477.092.819.514.81 1V14h-5.07c-.53-3.975-3.92-6.944-7.93-6.944S16.6 10.025 16.07 14H11v-.36zM24 16c-1.74-2.33-4-2-5.91-2 .503-2.87 2.996-4.965 5.91-4.965S29.407 11.13 29.91 14c-2.15 0-4.22-.23-5.91 2zM6 16h14c1.657 0 3 1.343 3 3v24c-1.78-1.33-1.85-1-17-1V16zM3 46c-.552 0-1-.448-1-1V21c0-.552.448-1 1-1h1v23c0 .552.448 1 1 1h15c1.272 0 2.406.8 2.83 2H3zm22-27c0-1.657 1.343-3 3-3h14v26c-15.16 0-15.24-.32-17 1V19zm21 26c0 .552-.448 1-1 1H25.17c.424-1.2 1.558-2 2.83-2h15c.552 0 1-.448 1-1V20h1c.552 0 1 .448 1 1v24z" transform="translate(-304 -2445) translate(265 2147) translate(0 253) translate(39.527 45.456) translate(18.473 17.544)"/>
                            <path fill="#A6D9FA" d="M9 27h11c.552 0 1-.448 1-1v-6c0-.552-.448-1-1-1H9c-.552 0-1 .448-1 1v6c0 .552.448 1 1 1zm1-6h9v4h-9v-4zM9 31h2c.552 0 1-.448 1-1s-.448-1-1-1H9c-.552 0-1 .448-1 1s.448 1 1 1zM20 29h-5c-.552 0-1 .448-1 1s.448 1 1 1h5c.552 0 1-.448 1-1s-.448-1-1-1zM15 33H9c-.552 0-1 .448-1 1s.448 1 1 1h6c.552 0 1-.448 1-1s-.448-1-1-1zM13 37H9c-.552 0-1 .448-1 1s.448 1 1 1h4c.552 0 1-.448 1-1s-.448-1-1-1zM20 37h-3c-.552 0-1 .448-1 1s.448 1 1 1h3c.552 0 1-.448 1-1s-.448-1-1-1zM20 33h-1c-.552 0-1 .448-1 1s.448 1 1 1h1c.552 0 1-.448 1-1s-.448-1-1-1zM27.62 20.92c.44.182.948.027 1.213-.369.264-.396.213-.923-.123-1.261-.286-.287-.716-.373-1.09-.219-.375.155-.619.52-.619.925s.245.77.619.924zM32 21h7c.552 0 1-.448 1-1s-.448-1-1-1h-7c-.552 0-1 .448-1 1s.448 1 1 1zM27.62 24.92c.371.149.796.062 1.079-.221.283-.283.37-.708.221-1.079-.128-.31-.402-.535-.73-.6-.496-.082-.976.218-1.12.7-.145.481.09.995.55 1.2zM32 25h7c.552 0 1-.448 1-1s-.448-1-1-1h-7c-.552 0-1 .448-1 1s.448 1 1 1zM28 35h4c.552 0 1-.448 1-1v-6c0-.552-.448-1-1-1h-4c-.552 0-1 .448-1 1v6c0 .552.448 1 1 1zm1-6h2v4h-2v-4zM39 39c.552 0 1-.448 1-1s-.448-1-1-1H28c-.552 0-1 .448-1 1s.448 1 1 1h11zM39 32h-3c-.552 0-1 .448-1 1s.448 1 1 1h3c.552 0 1-.448 1-1s-.448-1-1-1zM39 28h-3c-.552 0-1 .448-1 1s.448 1 1 1h3c.552 0 1-.448 1-1s-.448-1-1-1z" transform="translate(-304 -2445) translate(265 2147) translate(0 253) translate(39.527 45.456) translate(18.473 17.544)"/>
                        </g>
                    </g>
                </g>
            </g>
        </g>
    </g>
</svg>
