<?xml version="1.0" encoding="utf-8"?>
<!-- Generator: Adobe Illustrator 25.0.0, SVG Export Plug-In . SVG Version: 6.00 Build 0)  -->
<svg version="1.1" id="Layer_1" xmlns="http://www.w3.org/2000/svg" xmlns:xlink="http://www.w3.org/1999/xlink" x="0px" y="0px"
	 viewBox="0 0 80 80" style="enable-background:new 0 0 80 80;" xml:space="preserve">
<style type="text/css">
	.st0{fill:#0083CE;}
	.st1{fill:#A6D9FA;}
</style>
<path id="Shape" class="st0" d="M71.7,0H8.3C3.7,0,0,3.7,0,8.3v63.3c0,2.2,0.9,4.3,2.4,5.9C4,79.1,6.1,80,8.3,80h63.3
	c2.2,0,4.3-0.9,5.9-2.4c1.6-1.6,2.4-3.7,2.4-5.9V8.3c0-2.2-0.9-4.3-2.4-5.9C76,0.9,73.9,0,71.7,0z M8.3,3.3h63.3c2.8,0,5,2.2,5,5v5
	H3.3v-5C3.3,5.6,5.6,3.3,8.3,3.3z M71.7,76.7H8.3c-2.8,0-5-2.2-5-5v-55h73.3v55C76.7,74.4,74.4,76.7,71.7,76.7z"/>
<path id="Path" class="st0" d="M71.4,10c0.8,0.1,1.6-0.5,1.6-1.3S72.5,7.1,71.6,7c-0.5-0.1-1.1,0.2-1.4,0.6c-0.3,0.4-0.4,1-0.1,1.5
	C70.4,9.6,70.8,9.9,71.4,10L71.4,10z"/>
<path id="Path_1_" class="st0" d="M65.4,10c0.8,0.1,1.6-0.5,1.6-1.3c0.1-0.8-0.5-1.6-1.3-1.6c-0.8-0.1-1.6,0.5-1.6,1.3
	C63.9,9.2,64.5,9.9,65.4,10z"/>
<path id="Path_2_" class="st0" d="M58.4,10c0.8,0.1,1.6-0.5,1.6-1.3S59.5,7.1,58.6,7c-0.5-0.1-1.1,0.2-1.4,0.6
	c-0.3,0.4-0.4,1-0.1,1.5C57.4,9.6,57.8,9.9,58.4,10z"/>
<path id="Path_3_" class="st1" d="M8.6,10h29.7c0.9,0,1.7-0.7,1.7-1.5S39.3,7,38.3,7H8.6C7.7,7,7,7.7,7,8.5S7.7,10,8.6,10z"/>
<path id="Path_4_" class="st0" d="M60.2,32.5L54.9,38l-2.1-2.2c-0.6-0.7-1.7-0.7-2.3,0c-0.6,0.7-0.6,1.7,0,2.4
	c5.3,5.5,3.2,5.7,12-3.3c0.6-0.7,0.6-1.7,0-2.4C61.9,31.8,60.9,31.8,60.2,32.5z"/>
<path id="Shape_1_" class="st0" d="M57,22c-8.3,0-15,6.7-15,15s6.7,15,15,15s15-6.7,15-15S65.3,22,57,22z M57,48.7
	c-6.4,0-11.7-5.2-11.7-11.7S50.6,25.3,57,25.3S68.7,30.6,68.7,37c0,3.1-1.2,6.1-3.4,8.2C63.1,47.4,60.1,48.7,57,48.7z"/>
<path id="Path_5_" class="st1" d="M43.3,68H16.7c-0.9,0-1.7,0.7-1.7,1.5s0.7,1.5,1.7,1.5h26.7c0.9,0,1.7-0.7,1.7-1.5
	S44.3,68,43.3,68z"/>
<path id="Path_6_" class="st1" d="M16.6,65h14.7c0.9,0,1.6-0.7,1.6-1.5c0-0.8-0.7-1.5-1.6-1.5H16.6c-0.9,0-1.6,0.7-1.6,1.5
	C15,64.3,15.7,65,16.6,65z"/>
<path id="Path_7_" class="st1" d="M16.7,51h8.6c0.9,0,1.7-0.7,1.7-1.5S26.2,48,25.3,48h-8.6c-0.9,0-1.7,0.7-1.7,1.5S15.8,51,16.7,51
	z"/>
<path id="Path_8_" class="st1" d="M16.7,58h23.6c0.9,0,1.7-0.7,1.7-1.5S41.2,55,40.3,55H16.7c-0.9,0-1.7,0.7-1.7,1.5
	S15.8,58,16.7,58z"/>
<path id="Path_9_" class="st1" d="M11.6,69.4c-0.5-0.5-1.2-0.6-1.8-0.2c-0.6,0.3-0.9,1-0.7,1.7S9.8,72,10.5,72
	c0.6,0,1.2-0.4,1.4-0.9C12.1,70.5,12,69.9,11.6,69.4z"/>
<path id="Path_10_" class="st1" d="M11.6,62.4c-0.5-0.5-1.3-0.6-1.9-0.2s-0.8,1.2-0.6,1.8c0.2,0.6,0.8,0.9,1.4,0.9s1.1-0.4,1.4-0.9
	C12.1,63.5,12,62.9,11.6,62.4L11.6,62.4z"/>
<path id="Path_11_" class="st1" d="M8.3,55.6c-1.2,1.8,1.8,3.5,2.6,1.4c0.3-0.7,0-1.5-0.7-1.9C9.5,54.8,8.7,55,8.3,55.6z"/>
<path id="Path_12_" class="st1" d="M9.9,49.1c-0.6,0.3-1,0.9-0.9,1.5c0.1,0.7,0.6,1.2,1.2,1.3c0.6,0.1,1.3-0.2,1.6-0.8
	c0.3-0.6,0.2-1.3-0.3-1.8C11.1,49,10.5,48.9,9.9,49.1z"/>
<path id="Path_13_" class="st1" d="M16.7,45h16.7c0.9,0,1.7-0.7,1.7-1.5S34.3,42,33.3,42H16.7c-0.9,0-1.7,0.7-1.7,1.5
	S15.7,45,16.7,45z"/>
<path id="Path_14_" class="st1" d="M16.7,31h18.6c0.9,0,1.7-0.7,1.7-1.5S36.2,28,35.3,28H16.7c-0.9,0-1.7,0.7-1.7,1.5
	S15.8,31,16.7,31z"/>
<path id="Path_15_" class="st1" d="M16.7,38h11.7c0.9,0,1.7-0.7,1.7-1.5S29.3,35,28.3,35H16.7c-0.9,0-1.7,0.7-1.7,1.5
	S15.7,38,16.7,38z"/>
<path id="Path_16_" class="st1" d="M11.6,42.4c-0.5-0.5-1.4-0.6-2-0.1c-0.6,0.5-0.8,1.3-0.4,1.9c0.4,0.7,1.2,0.9,1.9,0.6
	c0.5-0.2,0.8-0.6,0.9-1.1C12.1,43.3,11.9,42.8,11.6,42.4z"/>
<path id="Path_17_" class="st1" d="M10.6,35.4c-0.6-0.6-1.5-0.6-2.1,0c-0.6,0.6-0.6,1.5,0,2.1c0.6,0.6,1.5,0.6,2.1,0
	C11.1,37,11.1,36,10.6,35.4L10.6,35.4z"/>
<path id="Path_18_" class="st1" d="M11.6,28.4c-0.6-0.6-1.5-0.6-2.1,0c-0.6,0.6-0.6,1.5,0,2.1c0.6,0.6,1.5,0.6,2.1,0
	c0.3-0.3,0.4-0.7,0.4-1.1S11.8,28.7,11.6,28.4z"/>
<path id="Path_19_" class="st1" d="M16.7,25h6.7c0.9,0,1.7-0.7,1.7-1.5S24.3,22,23.3,22h-6.7c-0.9,0-1.7,0.7-1.7,1.5
	S15.7,25,16.7,25z"/>
<path id="Path_20_" class="st1" d="M29.6,25h9.8c0.9,0,1.6-0.7,1.6-1.5S40.3,22,39.4,22h-9.8c-0.9,0-1.6,0.7-1.6,1.5
	S28.7,25,29.6,25z"/>
<path id="Path_21_" class="st1" d="M11.6,22.4c-0.6-0.6-1.5-0.6-2.1,0c-0.6,0.6-0.6,1.5,0,2.1c0.6,0.6,1.5,0.6,2.1,0
	c0.3-0.3,0.4-0.7,0.4-1.1S11.8,22.7,11.6,22.4z"/>
<path id="Path_22_" class="st1" d="M69.4,68H49.6c-0.9,0-1.6,0.7-1.6,1.5s0.7,1.5,1.6,1.5h19.7c0.9,0,1.6-0.7,1.6-1.5
	S70.3,68,69.4,68z"/>
<path id="Path_23_" class="st1" d="M37.7,65h18.6c0.9,0,1.7-0.7,1.7-1.5c0-0.8-0.8-1.5-1.7-1.5H37.7c-0.9,0-1.7,0.7-1.7,1.5
	C36,64.3,36.8,65,37.7,65z"/>
<path id="Path_24_" class="st1" d="M53.3,58c0.9,0,1.7-0.7,1.7-1.5S54.3,55,53.3,55h-6.7c-0.9,0-1.7,0.7-1.7,1.5s0.7,1.5,1.7,1.5
	H53.3z"/>
</svg>
