<svg xmlns="http://www.w3.org/2000/svg" width="80" height="80" viewBox="0 0 80 80">
    <defs>
        <filter id="t0v1m12uja">
            <feColorMatrix in="SourceGraphic" values="0 0 0 0 0.000000 0 0 0 0 0.513725 0 0 0 0 0.807843 0 0 0 1.000000 0"/>
        </filter>
    </defs>
    <g fill="none" fill-rule="evenodd">
        <g filter="url(#t0v1m12uja)" transform="translate(-755 -2094)">
            <g fill="#000" fill-rule="nonzero">
                <path d="M71.667 0H8.333C3.731 0 0 3.731 0 8.333v63.334c0 2.21.878 4.33 2.44 5.892C4.005 79.122 6.124 80 8.334 80h63.334c2.21 0 4.33-.878 5.892-2.44C79.122 75.995 80 73.876 80 71.666V8.333c0-2.21-.878-4.33-2.44-5.892C75.995.878 73.876 0 71.666 0zM8.333 3.333h63.334c2.761 0 5 2.239 5 5v5H3.333v-5c0-2.761 2.239-5 5-5zm63.334 73.334H8.333c-2.761 0-5-2.239-5-5v-55h73.334v55c0 2.761-2.239 5-5 5z" transform="translate(755 2094)"/>
                <path d="M71.35 9.992c.825.083 1.56-.519 1.642-1.343.083-.824-.519-1.56-1.343-1.642-.533-.053-1.054.182-1.367.617-.313.436-.37 1.005-.15 1.493.221.488.685.822 1.219.875zM65.35 9.992c.825.083 1.56-.519 1.642-1.343.083-.824-.519-1.559-1.343-1.641-.824-.083-1.559.519-1.641 1.343-.083.824.519 1.559 1.343 1.641zM58.35 9.992c.825.083 1.56-.519 1.642-1.343.083-.824-.519-1.56-1.343-1.642-.533-.053-1.054.182-1.367.617-.313.436-.37 1.005-.15 1.493.221.488.685.822 1.219.875zM8.65 10h29.7c.911 0 1.65-.672 1.65-1.5S39.261 7 38.35 7H8.65C7.739 7 7 7.672 7 8.5S7.739 10 8.65 10zM60.217 32.49l-5.34 5.493-2.094-2.164c-.637-.653-1.669-.653-2.306 0-.636.652-.636 1.71 0 2.363 5.341 5.46 3.247 5.66 12.046-3.329.636-.653.636-1.71 0-2.363-.637-.653-1.669-.653-2.306 0z" transform="translate(755 2094)"/>
                <path d="M57 22c-8.284 0-15 6.716-15 15 0 8.284 6.716 15 15 15 8.284 0 15-6.716 15-15 0-8.284-6.716-15-15-15zm0 26.667c-6.443 0-11.667-5.224-11.667-11.667S50.557 25.333 57 25.333 68.667 30.557 68.667 37c0 3.094-1.23 6.062-3.417 8.25-2.188 2.188-5.156 3.417-8.25 3.417zM43.333 68H16.667c-.92 0-1.667.672-1.667 1.5s.746 1.5 1.667 1.5h26.666c.92 0 1.667-.672 1.667-1.5s-.746-1.5-1.667-1.5zM16.636 65h14.728c.903 0 1.636-.672 1.636-1.5s-.733-1.5-1.636-1.5H16.636c-.903 0-1.636.672-1.636 1.5s.733 1.5 1.636 1.5zM16.714 51h8.572c.946 0 1.714-.672 1.714-1.5s-.768-1.5-1.714-1.5h-8.572c-.946 0-1.714.672-1.714 1.5s.768 1.5 1.714 1.5zM16.688 58h23.625c.931 0 1.687-.672 1.687-1.5s-.756-1.5-1.688-1.5H16.689c-.932 0-1.688.672-1.688 1.5s.756 1.5 1.688 1.5zM11.556 69.435c-.48-.477-1.22-.572-1.807-.233-.586.339-.872 1.028-.699 1.683.174.654.764 1.111 1.441 1.115.61.004 1.16-.362 1.394-.925.234-.563.104-1.21-.329-1.64zM11.566 62.44c-.508-.507-1.302-.585-1.898-.186-.595.4-.827 1.165-.554 1.829.236.556.781.917 1.384.917.603 0 1.148-.36 1.384-.917.236-.562.111-1.21-.316-1.644zM8.267 55.642c-1.155 1.757 1.757 3.484 2.628 1.412.28-.709-.015-1.515-.686-1.875-.671-.36-1.506-.161-1.942.463zM9.919 49.117c-.61.256-.98.881-.91 1.538.068.658.558 1.193 1.207 1.318.65.125 1.303-.19 1.611-.774.308-.585.197-1.303-.273-1.767-.432-.425-1.077-.55-1.635-.315zM16.667 45h16.666c.92 0 1.667-.672 1.667-1.5s-.746-1.5-1.667-1.5H16.667c-.92 0-1.667.672-1.667 1.5s.746 1.5 1.667 1.5zM16.692 31h18.616c.934 0 1.692-.672 1.692-1.5s-.758-1.5-1.692-1.5H16.692c-.934 0-1.692.672-1.692 1.5s.758 1.5 1.692 1.5zM16.667 38h11.666c.92 0 1.667-.672 1.667-1.5s-.746-1.5-1.667-1.5H16.667c-.92 0-1.667.672-1.667 1.5s.746 1.5 1.667 1.5zM11.564 42.443c-.53-.534-1.374-.592-1.973-.136-.599.456-.767 1.285-.393 1.938.375.653 1.175.928 1.871.643.464-.19.802-.6.901-1.09.1-.492-.053-1-.406-1.355zM10.56 35.44c-.585-.586-1.535-.586-2.12 0-.586.585-.586 1.535 0 2.12.585.586 1.535.586 2.12 0 .586-.585.586-1.535 0-2.12zM11.556 28.435c-.587-.582-1.534-.58-2.118.006-.584.585-.584 1.533 0 2.118.584.586 1.531.588 2.118.006.284-.282.444-.665.444-1.065 0-.4-.16-.783-.444-1.065zM16.667 25h6.666c.92 0 1.667-.672 1.667-1.5s-.746-1.5-1.667-1.5h-6.666c-.92 0-1.667.672-1.667 1.5s.746 1.5 1.667 1.5zM29.625 25h9.75c.897 0 1.625-.672 1.625-1.5s-.728-1.5-1.625-1.5h-9.75c-.897 0-1.625.672-1.625 1.5s.728 1.5 1.625 1.5zM11.556 22.435c-.587-.582-1.534-.58-2.118.006-.584.585-.584 1.533 0 2.118.584.586 1.531.588 2.118.006.284-.282.444-.665.444-1.065 0-.4-.16-.783-.444-1.065zM69.357 68H49.643c-.907 0-1.643.672-1.643 1.5s.736 1.5 1.643 1.5h19.714c.907 0 1.643-.672 1.643-1.5s-.736-1.5-1.643-1.5zM37.692 65h18.616c.934 0 1.692-.672 1.692-1.5s-.758-1.5-1.692-1.5H37.692c-.934 0-1.692.672-1.692 1.5s.758 1.5 1.692 1.5zM53.333 58c.92 0 1.667-.672 1.667-1.5s-.746-1.5-1.667-1.5h-6.666c-.92 0-1.667.672-1.667 1.5s.746 1.5 1.667 1.5h6.666z" transform="translate(755 2094)"/>
            </g>
        </g>
    </g>
</svg>
